VotoSerifGX-ExtendedText.ufo
<glyph name="dollar" format="2">
  <advance width="685"/>
  <unicode hex="0024"/>
  <outline>
    <contour>
      <point x="325" y="-79" type="line"/>
      <point x="370" y="-79" type="line"/>
      <point x="370" y="40" type="line"/>
      <point x="501" y="42"/>
      <point x="595" y="114"/>
      <point x="595" y="217" type="curve" smooth="yes"/>
      <point x="595" y="324"/>
      <point x="509" y="374"/>
      <point x="370" y="413" type="curve"/>
      <point x="370" y="647" type="line"/>
      <point x="467" y="637"/>
      <point x="503" y="602"/>
      <point x="503" y="518" type="curve"/>
      <point x="556" y="518"/>
      <point x="572" y="542"/>
      <point x="572" y="579" type="curve" smooth="yes"/>
      <point x="572" y="624"/>
      <point x="513" y="685"/>
      <point x="370" y="688" type="curve"/>
      <point x="370" y="760" type="line"/>
      <point x="325" y="760" type="line"/>
      <point x="325" y="689" type="line"/>
      <point x="201" y="681"/>
      <point x="122" y="618"/>
      <point x="122" y="527" type="curve" smooth="yes"/>
      <point x="122" y="442"/>
      <point x="180" y="390"/>
      <point x="325" y="336" type="curve"/>
      <point x="325" y="81" type="line"/>
      <point x="164" y="89"/>
      <point x="153" y="176"/>
      <point x="151" y="244" type="curve"/>
      <point x="123" y="244"/>
      <point x="88" y="238"/>
      <point x="88" y="178" type="curve" smooth="yes"/>
      <point x="88" y="147"/>
      <point x="121" y="39"/>
      <point x="325" y="39" type="curve"/>
    </contour>
    <contour>
      <point x="370" y="82" type="curve"/>
      <point x="370" y="321" type="line"/>
      <point x="486" y="280"/>
      <point x="514" y="238"/>
      <point x="514" y="186" type="curve" smooth="yes"/>
      <point x="514" y="131"/>
      <point x="460" y="84"/>
    </contour>
    <contour>
      <point x="325" y="434" type="line"/>
      <point x="239" y="473"/>
      <point x="202" y="500"/>
      <point x="202" y="558" type="curve" smooth="yes"/>
      <point x="202" y="609"/>
      <point x="252" y="646"/>
      <point x="325" y="649" type="curve"/>
    </contour>
  </outline>
</glyph>
<glyph name="ampersand" format="2">
  <advance width="883"/>
  <unicode hex="0026"/>
  <outline>
    <contour>
      <point x="312" y="-10" type="curve" smooth="yes"/>
      <point x="444" y="-10"/>
      <point x="525" y="41"/>
      <point x="577" y="96" type="curve"/>
      <point x="687" y="0" type="line"/>
      <point x="872" y="0" type="line"/>
      <point x="872" y="38" type="line"/>
      <point x="855" y="38" type="line" smooth="yes"/>
      <point x="804" y="38"/>
      <point x="771" y="42"/>
      <point x="744" y="67" type="curve" smooth="yes"/>
      <point x="635" y="167" type="line"/>
      <point x="665" y="208"/>
      <point x="685" y="276"/>
      <point x="695" y="323" type="curve" smooth="yes"/>
      <point x="709" y="381"/>
      <point x="728" y="383"/>
      <point x="793" y="383" type="curve" smooth="yes"/>
      <point x="834" y="383" type="line"/>
      <point x="834" y="422" type="line"/>
      <point x="630" y="422" type="line"/>
      <point x="630" y="399" type="line" smooth="yes"/>
      <point x="630" y="344"/>
      <point x="618" y="263"/>
      <point x="586" y="208" type="curve"/>
      <point x="363" y="401" type="line"/>
      <point x="508" y="437"/>
      <point x="574" y="497"/>
      <point x="574" y="582" type="curve" smooth="yes"/>
      <point x="574" y="656"/>
      <point x="515" y="724"/>
      <point x="364" y="724" type="curve" smooth="yes"/>
      <point x="202" y="724"/>
      <point x="142" y="652"/>
      <point x="142" y="572" type="curve" smooth="yes"/>
      <point x="142" y="496"/>
      <point x="180" y="456"/>
      <point x="230" y="404" type="curve"/>
      <point x="124" y="369"/>
      <point x="36" y="312"/>
      <point x="36" y="196" type="curve" smooth="yes"/>
      <point x="36" y="68"/>
      <point x="144" y="-10"/>
    </contour>
    <contour>
      <point x="332" y="39" type="curve" smooth="yes"/>
      <point x="218" y="39"/>
      <point x="141" y="112"/>
      <point x="141" y="205" type="curve" smooth="yes"/>
      <point x="141" y="298"/>
      <point x="205" y="345"/>
      <point x="271" y="369" type="curve"/>
      <point x="544" y="128" type="line"/>
      <point x="504" y="83"/>
      <point x="434" y="39"/>
    </contour>
    <contour>
      <point x="323" y="435" type="curve"/>
      <point x="272" y="478"/>
      <point x="234" y="512"/>
      <point x="234" y="581" type="curve" smooth="yes"/>
      <point x="234" y="643"/>
      <point x="281" y="680"/>
      <point x="373" y="680" type="curve" smooth="yes"/>
      <point x="450" y="680"/>
      <point x="496" y="637"/>
      <point x="496" y="581" type="curve" smooth="yes"/>
      <point x="496" y="513"/>
      <point x="446" y="462"/>
    </contour>
  </outline>
</glyph>
<glyph name="asterisk" format="2">
  <advance width="533"/>
  <unicode hex="002A"/>
  <outline>
    <contour>
      <point x="223" y="359" type="line"/>
      <point x="311" y="359" type="line"/>
      <point x="284" y="537" type="line"/>
      <point x="448" y="439" type="line"/>
      <point x="484" y="507" type="line"/>
      <point x="301" y="563" type="line"/>
      <point x="484" y="614" type="line"/>
      <point x="448" y="685" type="line"/>
      <point x="284" y="586" type="line"/>
      <point x="310" y="761" type="line"/>
      <point x="223" y="761" type="line"/>
      <point x="250" y="585" type="line"/>
      <point x="87" y="687" type="line"/>
      <point x="50" y="615" type="line"/>
      <point x="234" y="563" type="line"/>
      <point x="50" y="506" type="line"/>
      <point x="87" y="438" type="line"/>
      <point x="249" y="538" type="line"/>
    </contour>
  </outline>
</glyph>
<glyph name="comma" format="2">
  <advance width="290"/>
  <unicode hex="002C"/>
  <outline>
    <contour>
      <point x="50" y="-154" type="line"/>
      <point x="169" y="-125"/>
      <point x="214" y="-62"/>
      <point x="214" y="18" type="curve" smooth="yes"/>
      <point x="214" y="80"/>
      <point x="186" y="116"/>
      <point x="135" y="116" type="curve" smooth="yes"/>
      <point x="103" y="116"/>
      <point x="82" y="97"/>
      <point x="82" y="62" type="curve" smooth="yes"/>
      <point x="82" y="9"/>
      <point x="146" y="3"/>
      <point x="146" y="-30" type="curve" smooth="yes"/>
      <point x="146" y="-61"/>
      <point x="117" y="-99"/>
      <point x="50" y="-118" type="curve"/>
    </contour>
  </outline>
</glyph>
<glyph name="eight" format="2">
  <advance width="685"/>
  <unicode hex="0038"/>
  <outline>
    <contour>
      <point x="333" y="-10" type="curve" smooth="yes"/>
      <point x="514" y="-10"/>
      <point x="618" y="57"/>
      <point x="618" y="170" type="curve" smooth="yes"/>
      <point x="618" y="266"/>
      <point x="569" y="319"/>
      <point x="419" y="384" type="curve"/>
      <point x="536" y="429"/>
      <point x="592" y="478"/>
      <point x="592" y="566" type="curve" smooth="yes"/>
      <point x="592" y="652"/>
      <point x="513" y="724"/>
      <point x="346" y="724" type="curve" smooth="yes"/>
      <point x="191" y="724"/>
      <point x="97" y="660"/>
      <point x="97" y="556" type="curve" smooth="yes"/>
      <point x="97" y="453"/>
      <point x="162" y="416"/>
      <point x="268" y="368" type="curve"/>
      <point x="147" y="329"/>
      <point x="67" y="273"/>
      <point x="67" y="170" type="curve" smooth="yes"/>
      <point x="67" y="63"/>
      <point x="146" y="-10"/>
    </contour>
    <contour>
      <point x="336" y="34" type="curve" smooth="yes"/>
      <point x="223" y="34"/>
      <point x="159" y="78"/>
      <point x="159" y="176" type="curve" smooth="yes"/>
      <point x="159" y="251"/>
      <point x="221" y="311"/>
      <point x="324" y="342" type="curve"/>
      <point x="478" y="284"/>
      <point x="517" y="229"/>
      <point x="517" y="161" type="curve" smooth="yes"/>
      <point x="517" y="72"/>
      <point x="445" y="34"/>
    </contour>
    <contour>
      <point x="359" y="406" type="curve"/>
      <point x="255" y="446"/>
      <point x="195" y="480"/>
      <point x="195" y="562" type="curve" smooth="yes"/>
      <point x="195" y="639"/>
      <point x="252" y="681"/>
      <point x="346" y="681" type="curve" smooth="yes"/>
      <point x="456" y="681"/>
      <point x="501" y="627"/>
      <point x="501" y="563" type="curve" smooth="yes"/>
      <point x="501" y="487"/>
      <point x="450" y="436"/>
    </contour>
  </outline>
</glyph>
<glyph name="E" format="2">
  <advance width="747"/>
  <unicode hex="0045"/>
  <anchor x="374" y="0" name="bottom"/>
  <anchor x="374" y="714" name="top"/>
  <anchor x="727" y="714" name="topright"/>
  <outline>
    <contour>
      <point x="48" y="0" type="line"/>
      <point x="685" y="0" type="line"/>
      <point x="695" y="175" type="line"/>
      <point x="645" y="175" type="line"/>
      <point x="638" y="113" type="line" smooth="yes"/>
      <point x="634" y="66"/>
      <point x="619" y="44"/>
      <point x="576" y="44" type="curve" smooth="yes"/>
      <point x="276" y="44" type="line"/>
      <point x="275" y="352" type="line"/>
      <point x="564" y="352" type="line"/>
      <point x="564" y="396" type="line"/>
      <point x="275" y="396" type="line"/>
      <point x="275" y="670" type="line"/>
      <point x="538" y="670" type="line" smooth="yes"/>
      <point x="581" y="670"/>
      <point x="593" y="651"/>
      <point x="597" y="613" type="curve" smooth="yes"/>
      <point x="603" y="539" type="line"/>
      <point x="653" y="539" type="line"/>
      <point x="646" y="714" type="line"/>
      <point x="48" y="714" type="line"/>
      <point x="48" y="676" type="line"/>
      <point x="113" y="676" type="line" smooth="yes"/>
      <point x="153" y="676"/>
      <point x="166" y="666"/>
      <point x="166" y="603" type="curve" smooth="yes"/>
      <point x="166" y="109" type="line" smooth="yes"/>
      <point x="166" y="54"/>
      <point x="156" y="38"/>
      <point x="114" y="38" type="curve" smooth="yes"/>
      <point x="48" y="38" type="line"/>
    </contour>
  </outline>
</glyph>
<glyph name="P" format="2">
  <advance width="724"/>
  <unicode hex="0050"/>
  <anchor x="221" y="0" name="bottom"/>
  <anchor x="362" y="714" name="top"/>
  <anchor x="713" y="714" name="topright"/>
  <outline>
    <contour>
      <point x="48" y="0" type="line"/>
      <point x="416" y="0" type="line"/>
      <point x="416" y="38" type="line"/>
      <point x="331" y="38" type="line" smooth="yes"/>
      <point x="289" y="38"/>
      <point x="275" y="47"/>
      <point x="275" y="112" type="curve" smooth="yes"/>
      <point x="275" y="277" type="line"/>
      <point x="364" y="277" type="line" smooth="yes"/>
      <point x="600" y="277"/>
      <point x="685" y="365"/>
      <point x="685" y="505" type="curve" smooth="yes"/>
      <point x="685" y="636"/>
      <point x="598" y="714"/>
      <point x="395" y="714" type="curve" smooth="yes"/>
      <point x="48" y="714" type="line"/>
      <point x="48" y="676" type="line"/>
      <point x="111" y="676" type="line" smooth="yes"/>
      <point x="151" y="676"/>
      <point x="166" y="666"/>
      <point x="166" y="602" type="curve" smooth="yes"/>
      <point x="166" y="113" type="line" smooth="yes"/>
      <point x="166" y="48"/>
      <point x="152" y="38"/>
      <point x="108" y="38" type="curve" smooth="yes"/>
      <point x="48" y="38" type="line"/>
    </contour>
    <contour>
      <point x="275" y="321" type="line"/>
      <point x="275" y="670" type="line"/>
      <point x="387" y="670" type="line" smooth="yes"/>
      <point x="515" y="670"/>
      <point x="572" y="609"/>
      <point x="572" y="503" type="curve" smooth="yes"/>
      <point x="572" y="382"/>
      <point x="518" y="321"/>
      <point x="357" y="321" type="curve" smooth="yes"/>
    </contour>
  </outline>
</glyph>
<glyph name="T" format="2">
  <advance width="732"/>
  <unicode hex="0054"/>
  <anchor x="366" y="0" name="bottom"/>
  <anchor x="366" y="357" name="center"/>
  <anchor x="366" y="714" name="top"/>
  <anchor x="712" y="714" name="topright"/>
  <outline>
    <contour>
      <point x="174" y="0" type="line"/>
      <point x="554" y="0" type="line"/>
      <point x="554" y="38" type="line"/>
      <point x="482" y="38" type="line" smooth="yes"/>
      <point x="435" y="38"/>
      <point x="420" y="48"/>
      <point x="420" y="114" type="curve" smooth="yes"/>
      <point x="420" y="670" type="line"/>
      <point x="574" y="670" type="line" smooth="yes"/>
      <point x="633" y="670"/>
      <point x="646" y="656"/>
      <point x="650" y="605" type="curve" smooth="yes"/>
      <point x="656" y="537" type="line"/>
      <point x="704" y="537" type="line"/>
      <point x="697" y="714" type="line"/>
      <point x="33" y="714" type="line"/>
      <point x="26" y="537" type="line"/>
      <point x="75" y="537" type="line"/>
      <point x="81" y="605" type="line" smooth="yes"/>
      <point x="85" y="656"/>
      <point x="98" y="670"/>
      <point x="157" y="670" type="curve" smooth="yes"/>
      <point x="309" y="670" type="line"/>
      <point x="309" y="116" type="line" smooth="yes"/>
      <point x="309" y="48"/>
      <point x="295" y="38"/>
      <point x="247" y="38" type="curve" smooth="yes"/>
      <point x="174" y="38" type="line"/>
    </contour>
  </outline>
</glyph>
<glyph name="f" format="2">
  <advance width="438"/>
  <unicode hex="0066"/>
  <anchor x="220" y="0" name="bottom"/>
  <anchor x="335" y="770" name="top"/>
  <anchor x="522" y="770" name="topright"/>
  <outline>
    <contour>
      <point x="33" y="0" type="line"/>
      <point x="402" y="0" type="line"/>
      <point x="402" y="38" type="line"/>
      <point x="334" y="38" type="line" smooth="yes"/>
      <point x="281" y="38"/>
      <point x="258" y="40"/>
      <point x="258" y="105" type="curve" smooth="yes"/>
      <point x="258" y="484" type="line"/>
      <point x="428" y="484" type="line"/>
      <point x="428" y="536" type="line"/>
      <point x="258" y="536" type="line"/>
      <point x="258" y="594" type="line" smooth="yes"/>
      <point x="258" y="690"/>
      <point x="303" y="727"/>
      <point x="367" y="727" type="curve" smooth="yes"/>
      <point x="431" y="727"/>
      <point x="447" y="672"/>
      <point x="447" y="638" type="curve"/>
      <point x="502" y="638"/>
      <point x="521" y="659"/>
      <point x="521" y="695" type="curve" smooth="yes"/>
      <point x="521" y="720"/>
      <point x="480" y="770"/>
      <point x="363" y="770" type="curve" smooth="yes"/>
      <point x="219" y="770"/>
      <point x="151" y="695"/>
      <point x="151" y="582" type="curve" smooth="yes"/>
      <point x="151" y="536" type="line"/>
      <point x="38" y="536" type="line"/>
      <point x="38" y="484" type="line"/>
      <point x="151" y="484" type="line"/>
      <point x="151" y="105" type="line" smooth="yes"/>
      <point x="151" y="40"/>
      <point x="125" y="38"/>
      <point x="75" y="38" type="curve" smooth="yes"/>
      <point x="33" y="38" type="line"/>
    </contour>
  </outline>
</glyph>
<glyph name="o" format="2">
  <advance width="690"/>
  <unicode hex="006F"/>
  <anchor x="345" y="0" name="bottom"/>
  <anchor x="345" y="268" name="center"/>
  <anchor x="345" y="536" name="top"/>
  <anchor x="654" y="536" name="topright"/>
  <outline>
    <contour>
      <point x="343" y="-10" type="curve" smooth="yes"/>
      <point x="525" y="-10"/>
      <point x="620" y="85"/>
      <point x="620" y="269" type="curve" smooth="yes"/>
      <point x="620" y="465"/>
      <point x="517" y="546"/>
      <point x="349" y="546" type="curve" smooth="yes"/>
      <point x="168" y="546"/>
      <point x="68" y="458"/>
      <point x="68" y="269" type="curve" smooth="yes"/>
      <point x="68" y="83"/>
      <point x="175" y="-10"/>
    </contour>
    <contour>
      <point x="343" y="35" type="curve" smooth="yes"/>
      <point x="226" y="35"/>
      <point x="177" y="124"/>
      <point x="177" y="269" type="curve" smooth="yes"/>
      <point x="177" y="422"/>
      <point x="227" y="500"/>
      <point x="350" y="500" type="curve" smooth="yes"/>
      <point x="459" y="500"/>
      <point x="513" y="428"/>
      <point x="513" y="269" type="curve" smooth="yes"/>
      <point x="513" y="131"/>
      <point x="468" y="35"/>
    </contour>
  </outline>
</glyph>
<glyph name="q" format="2">
  <advance width="737"/>
  <unicode hex="0071"/>
  <anchor x="368" y="-231" name="bottom"/>
  <anchor x="368" y="536" name="top"/>
  <anchor x="725" y="536" name="topright"/>
  <outline>
    <contour>
      <point x="388" y="-231" type="line"/>
      <point x="704" y="-231" type="line"/>
      <point x="704" y="-193" type="line"/>
      <point x="690" y="-193" type="line" smooth="yes"/>
      <point x="631" y="-193"/>
      <point x="610" y="-189"/>
      <point x="610" y="-123" type="curve" smooth="yes"/>
      <point x="610" y="427" type="line" smooth="yes"/>
      <point x="610" y="493"/>
      <point x="628" y="498"/>
      <point x="700" y="498" type="curve" smooth="yes"/>
      <point x="713" y="498" type="line"/>
      <point x="713" y="536" type="line"/>
      <point x="527" y="536" type="line"/>
      <point x="515" y="444" type="line"/>
      <point x="510" y="444" type="line"/>
      <point x="474" y="515"/>
      <point x="419" y="546"/>
      <point x="322" y="546" type="curve" smooth="yes"/>
      <point x="147" y="546"/>
      <point x="67" y="447"/>
      <point x="67" y="267" type="curve" smooth="yes"/>
      <point x="67" y="77"/>
      <point x="155" y="-10"/>
      <point x="305" y="-10" type="curve" smooth="yes"/>
      <point x="416" y="-10"/>
      <point x="473" y="31"/>
      <point x="502" y="88" type="curve"/>
      <point x="507" y="88" type="line"/>
      <point x="503" y="66"/>
      <point x="503" y="20"/>
      <point x="503" y="-46" type="curve" smooth="yes"/>
      <point x="503" y="-124" type="line" smooth="yes"/>
      <point x="503" y="-189"/>
      <point x="481" y="-193"/>
      <point x="425" y="-193" type="curve" smooth="yes"/>
      <point x="388" y="-193" type="line"/>
    </contour>
    <contour>
      <point x="337" y="40" type="curve" smooth="yes"/>
      <point x="226" y="40"/>
      <point x="175" y="116"/>
      <point x="175" y="266" type="curve" smooth="yes"/>
      <point x="175" y="410"/>
      <point x="223" y="495"/>
      <point x="349" y="495" type="curve" smooth="yes"/>
      <point x="469" y="495"/>
      <point x="503" y="417"/>
      <point x="503" y="267" type="curve" smooth="yes"/>
      <point x="503" y="85"/>
      <point x="423" y="40"/>
    </contour>
  </outline>
</glyph>
<glyph name="micro" format="2">
  <advance width="731"/>
  <unicode hex="00B5"/>
  <outline>
    <contour>
      <point x="180" y="-240" type="curve" smooth="yes"/>
      <point x="236" y="-240"/>
      <point x="258" y="-216"/>
      <point x="258" y="-185" type="curve"/>
      <point x="185" y="-180"/>
      <point x="161" y="-154"/>
      <point x="161" y="68" type="curve"/>
      <point x="188" y="19"/>
      <point x="234" y="-10"/>
      <point x="314" y="-10" type="curve" smooth="yes"/>
      <point x="398" y="-10"/>
      <point x="456" y="35"/>
      <point x="498" y="112" type="curve"/>
      <point x="504" y="112" type="line"/>
      <point x="507" y="37"/>
      <point x="560" y="0"/>
      <point x="621" y="0" type="curve" smooth="yes"/>
      <point x="706" y="0" type="line"/>
      <point x="706" y="41" type="line"/>
      <point x="694" y="41" type="line" smooth="yes"/>
      <point x="618" y="41"/>
      <point x="608" y="66"/>
      <point x="608" y="129" type="curve" smooth="yes"/>
      <point x="608" y="536" type="line"/>
      <point x="501" y="536" type="line"/>
      <point x="501" y="234" type="line" smooth="yes"/>
      <point x="501" y="160"/>
      <point x="440" y="49"/>
      <point x="343" y="49" type="curve" smooth="yes"/>
      <point x="261" y="49"/>
      <point x="218" y="115"/>
      <point x="218" y="186" type="curve" smooth="yes"/>
      <point x="218" y="536" type="line"/>
      <point x="111" y="536" type="line"/>
      <point x="111" y="118" type="line" smooth="yes"/>
      <point x="110" y="-32"/>
      <point x="103" y="-37"/>
      <point x="103" y="-134" type="curve" smooth="yes"/>
      <point x="103" y="-210"/>
      <point x="143" y="-240"/>
    </contour>
  </outline>
</glyph>
<glyph name="thorn" format="2">
  <advance width="735"/>
  <unicode hex="00FE"/>
  <anchor x="367" y="-240" name="bottom"/>
  <anchor x="367" y="760" name="top"/>
  <outline>
    <contour>
      <point x="22" y="-240" type="line"/>
      <point x="366" y="-240" type="line"/>
      <point x="366" y="-202" type="line"/>
      <point x="314" y="-202" type="line" smooth="yes"/>
      <point x="256" y="-202"/>
      <point x="240" y="-195"/>
      <point x="240" y="-126" type="curve" smooth="yes"/>
      <point x="240" y="-37" type="line" smooth="yes"/>
      <point x="240" y="37"/>
      <point x="235" y="72"/>
      <point x="234" y="92" type="curve"/>
      <point x="238" y="92" type="line"/>
      <point x="273" y="20"/>
      <point x="335" y="-12"/>
      <point x="430" y="-12" type="curve" smooth="yes"/>
      <point x="578" y="-12"/>
      <point x="666" y="76"/>
      <point x="666" y="271" type="curve" smooth="yes"/>
      <point x="666" y="454"/>
      <point x="591" y="546"/>
      <point x="428" y="546" type="curve" smooth="yes"/>
      <point x="326" y="546"/>
      <point x="267" y="508"/>
      <point x="242" y="455" type="curve"/>
      <point x="237" y="455" type="line"/>
      <point x="239" y="490"/>
      <point x="240" y="526"/>
      <point x="240" y="559" type="curve" smooth="yes"/>
      <point x="240" y="760" type="line"/>
      <point x="20" y="760" type="line"/>
      <point x="20" y="722" type="line"/>
      <point x="73" y="722" type="line" smooth="yes"/>
      <point x="116" y="722"/>
      <point x="133" y="717"/>
      <point x="133" y="645" type="curve" smooth="yes"/>
      <point x="133" y="-129" type="line" smooth="yes"/>
      <point x="133" y="-196"/>
      <point x="115" y="-202"/>
      <point x="65" y="-202" type="curve" smooth="yes"/>
      <point x="22" y="-202" type="line"/>
    </contour>
    <contour>
      <point x="402" y="38" type="curve" smooth="yes"/>
      <point x="283" y="38"/>
      <point x="240" y="120"/>
      <point x="240" y="274" type="curve" smooth="yes"/>
      <point x="240" y="394"/>
      <point x="272" y="495"/>
      <point x="401" y="495" type="curve" smooth="yes"/>
      <point x="519" y="495"/>
      <point x="558" y="409"/>
      <point x="558" y="263" type="curve" smooth="yes"/>
      <point x="558" y="108"/>
      <point x="498" y="38"/>
    </contour>
  </outline>
</glyph>
<glyph name="florin" format="2">
  <advance width="678"/>
  <unicode hex="0192"/>
  <anchor x="266" y="-240" name="bottom"/>
  <anchor x="325" y="724" name="top"/>
  <outline>
    <contour>
      <point x="139" y="-240" type="curve" smooth="yes"/>
      <point x="249" y="-240"/>
      <point x="311" y="-189"/>
      <point x="311" y="-10" type="curve" smooth="yes"/>
      <point x="311" y="391" type="line"/>
      <point x="441" y="391" type="line"/>
      <point x="441" y="445" type="line"/>
      <point x="311" y="445" type="line"/>
      <point x="311" y="560" type="line" smooth="yes"/>
      <point x="311" y="642"/>
      <point x="333" y="680"/>
      <point x="382" y="680" type="curve" smooth="yes"/>
      <point x="426" y="680"/>
      <point x="443" y="644"/>
      <point x="444" y="580" type="curve"/>
      <point x="495" y="581"/>
      <point x="513" y="603"/>
      <point x="513" y="628" type="curve" smooth="yes"/>
      <point x="513" y="678"/>
      <point x="472" y="724"/>
      <point x="373" y="724" type="curve" smooth="yes"/>
      <point x="254" y="724"/>
      <point x="200" y="661"/>
      <point x="200" y="554" type="curve" smooth="yes"/>
      <point x="200" y="445" type="line"/>
      <point x="102" y="445" type="line"/>
      <point x="102" y="391" type="line"/>
      <point x="200" y="391" type="line"/>
      <point x="200" y="-10" type="line" smooth="yes"/>
      <point x="200" y="-147"/>
      <point x="168" y="-193"/>
      <point x="106" y="-193" type="curve" smooth="yes"/>
      <point x="93" y="-193"/>
      <point x="84" y="-191"/>
      <point x="65" y="-186" type="curve"/>
      <point x="65" y="-230" type="line"/>
      <point x="83" y="-235"/>
      <point x="109" y="-240"/>
    </contour>
  </outline>
</glyph>
<glyph name="uni0193" format="2">
  <advance width="851"/>
  <unicode hex="0193"/>
  <anchor x="425" y="0" name="bottom"/>
  <anchor x="425" y="714" name="top"/>
  <outline>
    <contour>
      <point x="480" y="-10" type="curve" smooth="yes"/>
      <point x="583" y="-10"/>
      <point x="663" y="5"/>
      <point x="741" y="37" type="curve"/>
      <point x="741" y="228" type="line" smooth="yes"/>
      <point x="741" y="284"/>
      <point x="750" y="291"/>
      <point x="775" y="291" type="curve" smooth="yes"/>
      <point x="825" y="291" type="line"/>
      <point x="825" y="330" type="line"/>
      <point x="530" y="330" type="line"/>
      <point x="530" y="291" type="line"/>
      <point x="585" y="291" type="line" smooth="yes"/>
      <point x="619" y="291"/>
      <point x="631" y="281"/>
      <point x="631" y="233" type="curve" smooth="yes"/>
      <point x="631" y="54" type="line"/>
      <point x="596" y="44"/>
      <point x="543" y="38"/>
      <point x="498" y="38" type="curve" smooth="yes"/>
      <point x="277" y="38"/>
      <point x="184" y="167"/>
      <point x="184" y="358" type="curve" smooth="yes"/>
      <point x="184" y="589"/>
      <point x="289" y="678"/>
      <point x="480" y="678" type="curve" smooth="yes"/>
      <point x="619" y="678"/>
      <point x="660" y="643"/>
      <point x="660" y="540" type="curve"/>
      <point x="729" y="540"/>
      <point x="747" y="576"/>
      <point x="747" y="621" type="curve" smooth="yes"/>
      <point x="747" y="709" type="line" smooth="yes"/>
      <point x="747" y="774"/>
      <point x="763" y="796"/>
      <point x="817" y="796" type="curve" smooth="yes"/>
      <point x="841" y="796"/>
      <point x="855" y="791"/>
      <point x="882" y="787" type="curve"/>
      <point x="889" y="793"/>
      <point x="893" y="805"/>
      <point x="893" y="815" type="curve" smooth="yes"/>
      <point x="893" y="840"/>
      <point x="853" y="857"/>
      <point x="813" y="857" type="curve" smooth="yes"/>
      <point x="709" y="857"/>
      <point x="692" y="799"/>
      <point x="692" y="748" type="curve" smooth="yes"/>
      <point x="692" y="680" type="line"/>
      <point x="652" y="706"/>
      <point x="589" y="724"/>
      <point x="486" y="724" type="curve" smooth="yes"/>
      <point x="237" y="724"/>
      <point x="70" y="623"/>
      <point x="70" y="358" type="curve" smooth="yes"/>
      <point x="70" y="147"/>
      <point x="205" y="-10"/>
    </contour>
  </outline>
</glyph>
<glyph name="uni019D" format="2">
  <advance width="922"/>
  <unicode hex="019D"/>
  <anchor x="462" y="-240" name="bottom"/>
  <anchor x="462" y="714" name="top"/>
  <outline>
    <contour>
      <point x="-2" y="-240" type="line"/>
      <point x="33" y="-240" type="line" smooth="yes"/>
      <point x="153" y="-240"/>
      <point x="220" y="-222"/>
      <point x="220" y="-41" type="curve" smooth="yes"/>
      <point x="220" y="607" type="line"/>
      <point x="701" y="0" type="line"/>
      <point x="765" y="0" type="line"/>
      <point x="765" y="599" type="line" smooth="yes"/>
      <point x="765" y="662"/>
      <point x="778" y="676"/>
      <point x="823" y="676" type="curve" smooth="yes"/>
      <point x="880" y="676" type="line"/>
      <point x="880" y="714" type="line"/>
      <point x="602" y="714" type="line"/>
      <point x="602" y="676" type="line"/>
      <point x="643" y="676" type="line" smooth="yes"/>
      <point x="704" y="676"/>
      <point x="711" y="663"/>
      <point x="711" y="600" type="curve" smooth="yes"/>
      <point x="711" y="138" type="line"/>
      <point x="252" y="714" type="line"/>
      <point x="48" y="714" type="line"/>
      <point x="48" y="676" type="line"/>
      <point x="114" y="676" type="line" smooth="yes"/>
      <point x="150" y="676"/>
      <point x="166" y="666"/>
      <point x="166" y="600" type="curve" smooth="yes"/>
      <point x="166" y="-11" type="line" smooth="yes"/>
      <point x="166" y="-144"/>
      <point x="135" y="-193"/>
      <point x="10" y="-193" type="curve" smooth="yes"/>
      <point x="-2" y="-193" type="line"/>
    </contour>
  </outline>
</glyph>
<glyph name="ohorn" format="2">
  <advance width="773"/>
  <unicode hex="01A1"/>
  <anchor x="387" y="0" name="bottom"/>
  <anchor x="387" y="536" name="top"/>
  <outline>
    <contour>
      <point x="343" y="-10" type="curve" smooth="yes"/>
      <point x="525" y="-10"/>
      <point x="620" y="85"/>
      <point x="620" y="269" type="curve" smooth="yes"/>
      <point x="620" y="312"/>
      <point x="614" y="347"/>
      <point x="603" y="378" type="curve"/>
      <point x="680" y="384"/>
      <point x="759" y="439"/>
      <point x="759" y="539" type="curve" smooth="yes"/>
      <point x="759" y="597"/>
      <point x="734" y="627"/>
      <point x="698" y="627" type="curve" smooth="yes"/>
      <point x="672" y="627"/>
      <point x="647" y="613"/>
      <point x="647" y="587" type="curve" smooth="yes"/>
      <point x="647" y="537"/>
      <point x="697" y="542"/>
      <point x="697" y="502" type="curve" smooth="yes"/>
      <point x="697" y="452"/>
      <point x="639" y="408"/>
      <point x="591" y="411" type="curve"/>
      <point x="550" y="502"/>
      <point x="466" y="546"/>
      <point x="349" y="546" type="curve" smooth="yes"/>
      <point x="168" y="546"/>
      <point x="68" y="458"/>
      <point x="68" y="269" type="curve" smooth="yes"/>
      <point x="68" y="83"/>
      <point x="175" y="-10"/>
    </contour>
    <contour>
      <point x="343" y="35" type="curve" smooth="yes"/>
      <point x="226" y="35"/>
      <point x="178" y="124"/>
      <point x="177" y="269" type="curve" smooth="yes"/>
      <point x="176" y="423"/>
      <point x="227" y="500"/>
      <point x="350" y="500" type="curve" smooth="yes"/>
      <point x="459" y="500"/>
      <point x="513" y="428"/>
      <point x="513" y="269" type="curve" smooth="yes"/>
      <point x="513" y="131"/>
      <point x="468" y="35"/>
    </contour>
  </outline>
</glyph>
<glyph name="uni01A2" format="2">
  <advance width="1317"/>
  <unicode hex="01A2"/>
  <anchor x="659" y="0" name="bottom"/>
  <anchor x="659" y="714" name="top"/>
  <outline>
    <contour>
      <point x="961" y="-240" type="line"/>
      <point x="1289" y="-240" type="line"/>
      <point x="1289" y="-202" type="line"/>
      <point x="1219" y="-202" type="line" smooth="yes"/>
      <point x="1190" y="-202"/>
      <point x="1179" y="-191"/>
      <point x="1179" y="-137" type="curve" smooth="yes"/>
      <point x="1179" y="503" type="line" smooth="yes"/>
      <point x="1179" y="672"/>
      <point x="1105" y="724"/>
      <point x="950" y="724" type="curve" smooth="yes"/>
      <point x="829" y="724"/>
      <point x="750" y="662"/>
      <point x="732" y="569" type="curve"/>
      <point x="686" y="666"/>
      <point x="589" y="725"/>
      <point x="422" y="725" type="curve" smooth="yes"/>
      <point x="197" y="725"/>
      <point x="68" y="595"/>
      <point x="68" y="359" type="curve" smooth="yes"/>
      <point x="68" y="124"/>
      <point x="187" y="-10"/>
      <point x="430" y="-10" type="curve" smooth="yes"/>
      <point x="682" y="-10"/>
      <point x="776" y="129"/>
      <point x="774" y="346" type="curve" smooth="yes"/>
      <point x="772" y="462" type="line" smooth="yes"/>
      <point x="771" y="602"/>
      <point x="824" y="679"/>
      <point x="927" y="679" type="curve" smooth="yes"/>
      <point x="1023" y="679"/>
      <point x="1068" y="625"/>
      <point x="1068" y="511" type="curve" smooth="yes"/>
      <point x="1068" y="-142" type="line" smooth="yes"/>
      <point x="1068" y="-193"/>
      <point x="1050" y="-202"/>
      <point x="1033" y="-202" type="curve" smooth="yes"/>
      <point x="961" y="-202" type="line"/>
    </contour>
    <contour>
      <point x="430" y="36" type="curve" smooth="yes"/>
      <point x="258" y="36"/>
      <point x="182" y="144"/>
      <point x="182" y="358" type="curve" smooth="yes"/>
      <point x="182" y="564"/>
      <point x="266" y="679"/>
      <point x="427" y="679" type="curve" smooth="yes"/>
      <point x="606" y="679"/>
      <point x="670" y="542"/>
      <point x="670" y="398" type="curve" smooth="yes"/>
      <point x="670" y="293" type="line" smooth="yes"/>
      <point x="670" y="144"/>
      <point x="606" y="36"/>
    </contour>
  </outline>
</glyph>
<glyph name="uni01B5" format="2">
  <advance width="699"/>
  <unicode hex="01B5"/>
  <anchor x="349" y="0" name="bottom"/>
  <anchor x="349" y="714" name="top"/>
  <outline>
    <contour>
      <point x="42" y="0" type="line"/>
      <point x="641" y="0" type="line"/>
      <point x="647" y="176" type="line"/>
      <point x="595" y="176" type="line"/>
      <point x="589" y="111" type="line" smooth="yes"/>
      <point x="584" y="70"/>
      <point x="560" y="44"/>
      <point x="501" y="44" type="curve" smooth="yes"/>
      <point x="168" y="44" type="line"/>
      <point x="394" y="350" type="line"/>
      <point x="588" y="350" type="line"/>
      <point x="588" y="395" type="line"/>
      <point x="426" y="395" type="line"/>
      <point x="629" y="667" type="line"/>
      <point x="629" y="714" type="line"/>
      <point x="70" y="714" type="line"/>
      <point x="65" y="537" type="line"/>
      <point x="117" y="537" type="line"/>
      <point x="123" y="616" type="line" smooth="yes"/>
      <point x="128" y="650"/>
      <point x="139" y="670"/>
      <point x="198" y="670" type="curve" smooth="yes"/>
      <point x="507" y="670" type="line"/>
      <point x="303" y="395" type="line"/>
      <point x="117" y="395" type="line"/>
      <point x="117" y="350" type="line"/>
      <point x="273" y="350" type="line"/>
      <point x="42" y="38" type="line"/>
    </contour>
  </outline>
</glyph>
<glyph name="uni01BE" format="2">
  <advance width="547"/>
  <unicode hex="01BE"/>
  <anchor x="273" y="0" name="bottom"/>
  <anchor x="273" y="659" name="top"/>
  <outline>
    <contour>
      <point x="276" y="-10" type="curve" smooth="yes"/>
      <point x="415" y="-10"/>
      <point x="494" y="64"/>
      <point x="494" y="157" type="curve" smooth="yes"/>
      <point x="494" y="266"/>
      <point x="421" y="283"/>
      <point x="378" y="296" type="curve" smooth="yes"/>
      <point x="339" y="308"/>
      <point x="293" y="327"/>
      <point x="292" y="381" type="curve" smooth="yes"/>
      <point x="292" y="488" type="line"/>
      <point x="443" y="488" type="line"/>
      <point x="443" y="536" type="line"/>
      <point x="292" y="536" type="line"/>
      <point x="292" y="659" type="line"/>
      <point x="229" y="659" type="line"/>
      <point x="225" y="594"/>
      <point x="204" y="566"/>
      <point x="190" y="557" type="curve" smooth="yes"/>
      <point x="170" y="543"/>
      <point x="138" y="525"/>
      <point x="93" y="526" type="curve"/>
      <point x="93" y="488" type="line"/>
      <point x="185" y="488" type="line"/>
      <point x="185" y="359" type="line" smooth="yes"/>
      <point x="188" y="266"/>
      <point x="269" y="247"/>
      <point x="319" y="231" type="curve" smooth="yes"/>
      <point x="363" y="217"/>
      <point x="410" y="197"/>
      <point x="410" y="132" type="curve" smooth="yes"/>
      <point x="410" y="89"/>
      <point x="369" y="33"/>
      <point x="274" y="33" type="curve" smooth="yes"/>
      <point x="188" y="33"/>
      <point x="135" y="68"/>
      <point x="135" y="155" type="curve"/>
      <point x="101" y="155"/>
      <point x="72" y="141"/>
      <point x="72" y="99" type="curve" smooth="yes"/>
      <point x="72" y="45"/>
      <point x="134" y="-10"/>
    </contour>
  </outline>
</glyph>
<glyph name="uni01F7" format="2">
  <advance width="847"/>
  <unicode hex="01F7"/>
  <anchor x="423" y="-240" name="bottom"/>
  <anchor x="423" y="714" name="top"/>
  <outline>
    <contour>
      <point x="67" y="-240" type="line"/>
      <point x="411" y="-240" type="line"/>
      <point x="411" y="-202" type="line"/>
      <point x="336" y="-202" type="line" smooth="yes"/>
      <point x="306" y="-202"/>
      <point x="281" y="-192"/>
      <point x="280" y="-134" type="curve" smooth="yes"/>
      <point x="280" y="3" type="line"/>
      <point x="534" y="42"/>
      <point x="782" y="119"/>
      <point x="782" y="437" type="curve" smooth="yes"/>
      <point x="782" y="615"/>
      <point x="721" y="724"/>
      <point x="537" y="724" type="curve" smooth="yes"/>
      <point x="400" y="724"/>
      <point x="312" y="658"/>
      <point x="274" y="567" type="curve"/>
      <point x="267" y="567" type="line"/>
      <point x="257" y="714" type="line"/>
      <point x="64" y="714" type="line"/>
      <point x="64" y="676" type="line"/>
      <point x="107" y="676" type="line" smooth="yes"/>
      <point x="145" y="676"/>
      <point x="175" y="670"/>
      <point x="175" y="593" type="curve" smooth="yes"/>
      <point x="175" y="-136" type="line" smooth="yes"/>
      <point x="175" y="-192"/>
      <point x="148" y="-202"/>
      <point x="119" y="-202" type="curve" smooth="yes"/>
      <point x="67" y="-202" type="line"/>
    </contour>
    <contour>
      <point x="280" y="50" type="curve"/>
      <point x="280" y="380" type="line" smooth="yes"/>
      <point x="280" y="572"/>
      <point x="378" y="674"/>
      <point x="512" y="674" type="curve" smooth="yes"/>
      <point x="653" y="674"/>
      <point x="680" y="571"/>
      <point x="680" y="439" type="curve" smooth="yes"/>
      <point x="680" y="215"/>
      <point x="545" y="97"/>
    </contour>
  </outline>
</glyph>
<glyph name="uni0240" format="2">
  <advance width="626"/>
  <unicode hex="0240"/>
  <anchor x="313" y="-234" name="bottom"/>
  <anchor x="313" y="536" name="top"/>
  <outline>
    <contour>
      <point x="505" y="-234" type="curve" smooth="yes"/>
      <point x="571" y="-234"/>
      <point x="624" y="-209"/>
      <point x="624" y="-159" type="curve" smooth="yes"/>
      <point x="624" y="-134"/>
      <point x="608" y="-117"/>
      <point x="574" y="-117" type="curve"/>
      <point x="574" y="-156"/>
      <point x="547" y="-183"/>
      <point x="499" y="-183" type="curve" smooth="yes"/>
      <point x="436" y="-183"/>
      <point x="403" y="-150"/>
      <point x="362" y="-89" type="curve" smooth="yes"/>
      <point x="322" y="-30"/>
      <point x="270" y="36"/>
      <point x="165" y="34" type="curve"/>
      <point x="548" y="505" type="line"/>
      <point x="548" y="536" type="line"/>
      <point x="81" y="536" type="line"/>
      <point x="70" y="392" type="line"/>
      <point x="116" y="392" type="line"/>
      <point x="123" y="427" type="line" smooth="yes"/>
      <point x="133" y="478"/>
      <point x="152" y="488"/>
      <point x="241" y="488" type="curve" smooth="yes"/>
      <point x="424" y="488" type="line"/>
      <point x="53" y="30" type="line"/>
      <point x="53" y="0" type="line"/>
      <point x="120" y="0" type="line" smooth="yes"/>
      <point x="230" y="0"/>
      <point x="276" y="-50"/>
      <point x="316" y="-102" type="curve" smooth="yes"/>
      <point x="357" y="-157"/>
      <point x="398" y="-234"/>
    </contour>
  </outline>
</glyph>
<glyph name="uni0243" format="2">
  <advance width="798"/>
  <unicode hex="0243"/>
  <anchor x="399" y="0" name="bottom"/>
  <anchor x="399" y="714" name="top"/>
  <anchor x="778" y="714" name="topright"/>
  <outline>
    <contour>
      <point x="47" y="185" type="line"/>
      <point x="477" y="185" type="line"/>
      <point x="477" y="230" type="line"/>
      <point x="47" y="230" type="line"/>
    </contour>
    <component base="B"/>
  </outline>
</glyph>
<glyph name="uni0259" format="2">
  <advance width="638"/>
  <unicode hex="0259"/>
  <anchor x="319" y="0" name="bottom"/>
  <anchor x="319" y="536" name="top"/>
  <outline>
    <contour>
      <point x="306" y="-10" type="curve" smooth="yes"/>
      <point x="477" y="-10"/>
      <point x="573" y="83"/>
      <point x="573" y="272" type="curve" smooth="yes"/>
      <point x="573" y="448"/>
      <point x="474" y="546"/>
      <point x="295" y="546" type="curve" smooth="yes"/>
      <point x="143" y="546"/>
      <point x="76" y="480"/>
      <point x="76" y="432" type="curve" smooth="yes"/>
      <point x="76" y="418"/>
      <point x="86" y="407"/>
      <point x="102" y="402" type="curve"/>
      <point x="130" y="457"/>
      <point x="182" y="495"/>
      <point x="270" y="495" type="curve" smooth="yes"/>
      <point x="387" y="495"/>
      <point x="465" y="418"/>
      <point x="464" y="266" type="curve"/>
      <point x="58" y="266" type="line"/>
      <point x="58" y="239" type="line" smooth="yes"/>
      <point x="58" y="78"/>
      <point x="156" y="-10"/>
    </contour>
    <contour>
      <point x="305" y="36" type="curve" smooth="yes"/>
      <point x="216" y="36"/>
      <point x="163" y="108"/>
      <point x="163" y="222" type="curve"/>
      <point x="460" y="222" type="line"/>
      <point x="455" y="107"/>
      <point x="413" y="36"/>
    </contour>
  </outline>
</glyph>
<glyph name="uni0278" format="2">
  <advance width="837"/>
  <unicode hex="0278"/>
  <anchor x="422" y="-240" name="bottom"/>
  <anchor x="423" y="268" name="center"/>
  <anchor x="422" y="760" name="top"/>
  <anchor x="818" y="536" name="topright"/>
  <outline>
    <contour>
      <point x="275" y="-240" type="line"/>
      <point x="559" y="-240" type="line"/>
      <point x="559" y="-202" type="line"/>
      <point x="520" y="-202" type="line" smooth="yes"/>
      <point x="459" y="-202"/>
      <point x="445" y="-192"/>
      <point x="445" y="-130" type="curve" smooth="yes"/>
      <point x="445" y="-9" type="line"/>
      <point x="653" y="-1"/>
      <point x="768" y="96"/>
      <point x="768" y="269" type="curve" smooth="yes"/>
      <point x="768" y="448"/>
      <point x="643" y="538"/>
      <point x="445" y="545" type="curve"/>
      <point x="445" y="650" type="line" smooth="yes"/>
      <point x="445" y="712"/>
      <point x="459" y="722"/>
      <point x="520" y="722" type="curve" smooth="yes"/>
      <point x="560" y="722" type="line"/>
      <point x="560" y="760" type="line"/>
      <point x="276" y="760" type="line"/>
      <point x="276" y="722" type="line"/>
      <point x="315" y="722" type="line" smooth="yes"/>
      <point x="376" y="722"/>
      <point x="391" y="712"/>
      <point x="391" y="650" type="curve" smooth="yes"/>
      <point x="391" y="545" type="line"/>
      <point x="189" y="538"/>
      <point x="68" y="449"/>
      <point x="68" y="269" type="curve" smooth="yes"/>
      <point x="68" y="91"/>
      <point x="190" y="-2"/>
      <point x="391" y="-9" type="curve"/>
      <point x="391" y="-130" type="line" smooth="yes"/>
      <point x="391" y="-192"/>
      <point x="376" y="-202"/>
      <point x="315" y="-202" type="curve" smooth="yes"/>
      <point x="275" y="-202" type="line"/>
    </contour>
    <contour>
      <point x="391" y="35" type="line"/>
      <point x="231" y="45"/>
      <point x="178" y="142"/>
      <point x="178" y="269" type="curve" smooth="yes"/>
      <point x="178" y="400"/>
      <point x="236" y="491"/>
      <point x="391" y="500" type="curve"/>
    </contour>
    <contour>
      <point x="445" y="35" type="curve"/>
      <point x="445" y="500" type="line"/>
      <point x="600" y="490"/>
      <point x="658" y="401"/>
      <point x="658" y="269" type="curve" smooth="yes"/>
      <point x="658" y="145"/>
      <point x="605" y="45"/>
    </contour>
  </outline>
</glyph>
<glyph name="uni027E" format="2">
  <advance width="548"/>
  <unicode hex="027E"/>
  <anchor x="274" y="0" name="bottom"/>
  <anchor x="274" y="536" name="top"/>
  <outline>
    <contour>
      <point x="7" y="0" type="line"/>
      <point x="367" y="0" type="line"/>
      <point x="367" y="38" type="line"/>
      <point x="299" y="38" type="line" smooth="yes"/>
      <point x="242" y="38"/>
      <point x="228" y="45"/>
      <point x="228" y="108" type="curve" smooth="yes"/>
      <point x="228" y="397" type="line" smooth="yes"/>
      <point x="228" y="469"/>
      <point x="257" y="500"/>
      <point x="331" y="500" type="curve" smooth="yes"/>
      <point x="391" y="500"/>
      <point x="436" y="474"/>
      <point x="436" y="378" type="curve"/>
      <point x="487" y="378"/>
      <point x="522" y="395"/>
      <point x="522" y="439" type="curve" smooth="yes"/>
      <point x="522" y="489"/>
      <point x="465" y="550"/>
      <point x="340" y="550" type="curve" smooth="yes"/>
      <point x="195" y="550"/>
      <point x="121" y="505"/>
      <point x="121" y="365" type="curve" smooth="yes"/>
      <point x="121" y="110" type="line" smooth="yes"/>
      <point x="121" y="48"/>
      <point x="106" y="38"/>
      <point x="49" y="38" type="curve" smooth="yes"/>
      <point x="7" y="38" type="line"/>
    </contour>
  </outline>
</glyph>
<glyph name="uni0282" format="2">
  <advance width="538"/>
  <unicode hex="0282"/>
  <anchor x="270" y="-197" name="bottom"/>
  <anchor x="270" y="536" name="top"/>
  <outline>
    <contour>
      <point x="175" y="-197" type="curve" smooth="yes"/>
      <point x="224" y="-197"/>
      <point x="259" y="-176"/>
      <point x="259" y="-155" type="curve" smooth="yes"/>
      <point x="259" y="-143"/>
      <point x="253" y="-132"/>
      <point x="241" y="-129" type="curve"/>
      <point x="226" y="-132"/>
      <point x="213" y="-144"/>
      <point x="186" y="-144" type="curve" smooth="yes"/>
      <point x="141" y="-144"/>
      <point x="112" y="-127"/>
      <point x="112" y="-69" type="curve" smooth="yes"/>
      <point x="112" y="32" type="line"/>
      <point x="145" y="8"/>
      <point x="198" y="-10"/>
      <point x="267" y="-10" type="curve" smooth="yes"/>
      <point x="399" y="-10"/>
      <point x="480" y="59"/>
      <point x="480" y="157" type="curve" smooth="yes"/>
      <point x="480" y="228"/>
      <point x="432" y="265"/>
      <point x="322" y="308" type="curve" smooth="yes"/>
      <point x="204" y="346"/>
      <point x="157" y="373"/>
      <point x="157" y="429" type="curve" smooth="yes"/>
      <point x="157" y="477"/>
      <point x="206" y="503"/>
      <point x="271" y="503" type="curve" smooth="yes"/>
      <point x="344" y="503"/>
      <point x="391" y="478"/>
      <point x="391" y="393" type="curve"/>
      <point x="428" y="393"/>
      <point x="457" y="415"/>
      <point x="457" y="452" type="curve" smooth="yes"/>
      <point x="457" y="480"/>
      <point x="417" y="546"/>
      <point x="282" y="546" type="curve" smooth="yes"/>
      <point x="155" y="546"/>
      <point x="72" y="495"/>
      <point x="72" y="402" type="curve" smooth="yes"/>
      <point x="72" y="317"/>
      <point x="130" y="275"/>
      <point x="275" y="224" type="curve" smooth="yes"/>
      <point x="372" y="191"/>
      <point x="396" y="169"/>
      <point x="396" y="123" type="curve" smooth="yes"/>
      <point x="396" y="87"/>
      <point x="357" y="34"/>
      <point x="268" y="34" type="curve" smooth="yes"/>
      <point x="185" y="34"/>
      <point x="127" y="69"/>
      <point x="127" y="154" type="curve"/>
      <point x="90" y="154"/>
      <point x="62" y="137"/>
      <point x="62" y="103" type="curve" smooth="yes"/>
      <point x="62" y="-84" type="line" smooth="yes"/>
      <point x="62" y="-143"/>
      <point x="90" y="-197"/>
    </contour>
  </outline>
</glyph>
<glyph name="qhook" format="2">
  <advance width="737"/>
  <unicode hex="02A0"/>
  <anchor x="368" y="-240" name="bottom"/>
  <anchor x="368" y="767" name="top"/>
  <outline>
    <contour>
      <point x="388" y="-240" type="line"/>
      <point x="704" y="-240" type="line"/>
      <point x="704" y="-202" type="line"/>
      <point x="688" y="-202" type="line" smooth="yes"/>
      <point x="631" y="-202"/>
      <point x="610" y="-199"/>
      <point x="610" y="-132" type="curve" smooth="yes"/>
      <point x="610" y="668" type="line" smooth="yes"/>
      <point x="610" y="715"/>
      <point x="634" y="722"/>
      <point x="663" y="722" type="curve" smooth="yes"/>
      <point x="684" y="722"/>
      <point x="705" y="712"/>
      <point x="723" y="686" type="curve" smooth="yes"/>
      <point x="770" y="690"/>
      <point x="780" y="703"/>
      <point x="780" y="719" type="curve" smooth="yes"/>
      <point x="780" y="739"/>
      <point x="750" y="767"/>
      <point x="663" y="767" type="curve" smooth="yes"/>
      <point x="547" y="767"/>
      <point x="503" y="718"/>
      <point x="503" y="658" type="curve" smooth="yes"/>
      <point x="503" y="552" type="line" smooth="yes"/>
      <point x="503" y="532"/>
      <point x="503" y="500"/>
      <point x="505" y="471" type="curve"/>
      <point x="503" y="471" type="line"/>
      <point x="470" y="518"/>
      <point x="404" y="546"/>
      <point x="322" y="546" type="curve" smooth="yes"/>
      <point x="148" y="546"/>
      <point x="67" y="447"/>
      <point x="67" y="267" type="curve" smooth="yes"/>
      <point x="67" y="77"/>
      <point x="155" y="-10"/>
      <point x="305" y="-10" type="curve" smooth="yes"/>
      <point x="416" y="-10"/>
      <point x="473" y="37"/>
      <point x="502" y="94" type="curve"/>
      <point x="507" y="94" type="line"/>
      <point x="503" y="70"/>
      <point x="503" y="19"/>
      <point x="503" y="-46" type="curve" smooth="yes"/>
      <point x="503" y="-133" type="line" smooth="yes"/>
      <point x="503" y="-199"/>
      <point x="482" y="-202"/>
      <point x="423" y="-202" type="curve" smooth="yes"/>
      <point x="388" y="-202" type="line"/>
    </contour>
    <contour>
      <point x="337" y="40" type="curve" smooth="yes"/>
      <point x="226" y="40"/>
      <point x="175" y="116"/>
      <point x="175" y="266" type="curve" smooth="yes"/>
      <point x="175" y="410"/>
      <point x="223" y="495"/>
      <point x="349" y="495" type="curve" smooth="yes"/>
      <point x="469" y="495"/>
      <point x="503" y="417"/>
      <point x="503" y="267" type="curve" smooth="yes"/>
      <point x="503" y="85"/>
      <point x="423" y="40"/>
    </contour>
  </outline>
</glyph>
<glyph name="uni02A1" format="2">
  <advance width="591"/>
  <unicode hex="02A1"/>
  <anchor x="296" y="0" name="bottom"/>
  <anchor x="296" y="764" name="top"/>
  <outline>
    <contour>
      <point x="91" y="187" type="line"/>
      <point x="452" y="187" type="line"/>
      <point x="452" y="230" type="line"/>
      <point x="91" y="230" type="line"/>
    </contour>
    <component base="uni0294"/>
  </outline>
</glyph>
<glyph name="uni02A2" format="2">
  <advance width="591"/>
  <unicode hex="02A2"/>
  <anchor x="296" y="0" name="bottom"/>
  <anchor x="296" y="764" name="top"/>
  <outline>
    <contour>
      <point x="166" y="0" type="line"/>
      <point x="498" y="0" type="line"/>
      <point x="498" y="36" type="line"/>
      <point x="474" y="36" type="line" smooth="yes"/>
      <point x="399" y="36"/>
      <point x="382" y="50"/>
      <point x="382" y="113" type="curve" smooth="yes"/>
      <point x="382" y="189" type="line"/>
      <point x="521" y="189" type="line"/>
      <point x="521" y="230" type="line"/>
      <point x="382" y="230" type="line"/>
      <point x="382" y="364" type="line"/>
      <point x="177" y="431"/>
      <point x="158" y="494"/>
      <point x="158" y="592" type="curve" smooth="yes"/>
      <point x="158" y="691"/>
      <point x="223" y="721"/>
      <point x="306" y="721" type="curve" smooth="yes"/>
      <point x="401" y="721"/>
      <point x="455" y="675"/>
      <point x="456" y="579" type="curve"/>
      <point x="518" y="579"/>
      <point x="540" y="592"/>
      <point x="540" y="634" type="curve" smooth="yes"/>
      <point x="540" y="709"/>
      <point x="457" y="764"/>
      <point x="299" y="764" type="curve" smooth="yes"/>
      <point x="143" y="764"/>
      <point x="52" y="701"/>
      <point x="52" y="565" type="curve" smooth="yes"/>
      <point x="52" y="465"/>
      <point x="94" y="403"/>
      <point x="283" y="325" type="curve"/>
      <point x="283" y="230" type="line"/>
      <point x="160" y="230" type="line"/>
      <point x="160" y="189" type="line"/>
      <point x="283" y="189" type="line"/>
      <point x="283" y="113" type="line" smooth="yes"/>
      <point x="283" y="50"/>
      <point x="266" y="36"/>
      <point x="193" y="36" type="curve" smooth="yes"/>
      <point x="166" y="36" type="line"/>
    </contour>
  </outline>
</glyph>
<glyph name="tslig" format="2">
  <advance width="905"/>
  <unicode hex="02A6"/>
  <anchor x="453" y="0" name="bottom"/>
  <anchor x="453" y="659" name="top"/>
  <outline>
    <contour>
      <point x="279" y="-10" type="curve" smooth="yes"/>
      <point x="359" y="-10"/>
      <point x="423" y="3"/>
      <point x="487" y="23" type="curve"/>
      <point x="520" y="3"/>
      <point x="568" y="-10"/>
      <point x="635" y="-10" type="curve" smooth="yes"/>
      <point x="767" y="-10"/>
      <point x="848" y="59"/>
      <point x="848" y="157" type="curve" smooth="yes"/>
      <point x="848" y="228"/>
      <point x="800" y="265"/>
      <point x="690" y="308" type="curve" smooth="yes"/>
      <point x="572" y="346"/>
      <point x="525" y="373"/>
      <point x="525" y="429" type="curve" smooth="yes"/>
      <point x="525" y="477"/>
      <point x="573" y="502"/>
      <point x="639" y="502" type="curve" smooth="yes"/>
      <point x="712" y="502"/>
      <point x="759" y="478"/>
      <point x="759" y="393" type="curve"/>
      <point x="796" y="393"/>
      <point x="825" y="415"/>
      <point x="825" y="452" type="curve" smooth="yes"/>
      <point x="825" y="480"/>
      <point x="785" y="545"/>
      <point x="650" y="545" type="curve" smooth="yes"/>
      <point x="620" y="545"/>
      <point x="589" y="542"/>
      <point x="566" y="536" type="curve"/>
      <point x="222" y="536" type="line"/>
      <point x="222" y="659" type="line"/>
      <point x="159" y="659" type="line"/>
      <point x="155" y="594"/>
      <point x="133" y="566"/>
      <point x="120" y="557" type="curve" smooth="yes"/>
      <point x="101" y="542"/>
      <point x="68" y="525"/>
      <point x="23" y="526" type="curve"/>
      <point x="23" y="488" type="line"/>
      <point x="115" y="488" type="line"/>
      <point x="115" y="145" type="line" smooth="yes"/>
      <point x="115" y="34"/>
      <point x="165" y="-10"/>
    </contour>
    <contour>
      <point x="636" y="34" type="curve" smooth="yes"/>
      <point x="553" y="34"/>
      <point x="495" y="69"/>
      <point x="495" y="154" type="curve"/>
      <point x="458" y="154"/>
      <point x="430" y="137"/>
      <point x="430" y="105" type="curve" smooth="yes"/>
      <point x="430" y="91"/>
      <point x="438" y="77"/>
      <point x="451" y="65" type="curve"/>
      <point x="412" y="57"/>
      <point x="368" y="50"/>
      <point x="319" y="50" type="curve" smooth="yes"/>
      <point x="240" y="50"/>
      <point x="222" y="82"/>
      <point x="222" y="145" type="curve" smooth="yes"/>
      <point x="222" y="488" type="line"/>
      <point x="478" y="488" type="line"/>
      <point x="454" y="466"/>
      <point x="440" y="437"/>
      <point x="440" y="402" type="curve" smooth="yes"/>
      <point x="440" y="317"/>
      <point x="498" y="275"/>
      <point x="642" y="224" type="curve" smooth="yes"/>
      <point x="741" y="191"/>
      <point x="765" y="169"/>
      <point x="765" y="123" type="curve" smooth="yes"/>
      <point x="765" y="87"/>
      <point x="726" y="34"/>
    </contour>
  </outline>
</glyph>
<glyph name="dotaccent" format="2">
  <advance width="207"/>
  <unicode hex="02D9"/>
  <outline>
    <contour>
      <point x="104" y="640" type="curve" smooth="yes"/>
      <point x="140" y="640"/>
      <point x="167" y="658"/>
      <point x="167" y="698" type="curve" smooth="yes"/>
      <point x="167" y="739"/>
      <point x="140" y="756"/>
      <point x="104" y="756" type="curve" smooth="yes"/>
      <point x="67" y="756"/>
      <point x="40" y="739"/>
      <point x="40" y="698" type="curve" smooth="yes"/>
      <point x="40" y="658"/>
      <point x="67" y="640"/>
    </contour>
  </outline>
</glyph>
<glyph name="ogonek" format="2">
  <advance width="606"/>
  <unicode hex="02DB"/>
  <outline>
    <contour>
      <point x="321" y="-226" type="curve" smooth="yes"/>
      <point x="342" y="-226"/>
      <point x="382" y="-219"/>
      <point x="406" y="-209" type="curve"/>
      <point x="406" y="-169" type="line"/>
      <point x="373" y="-174"/>
      <point x="356" y="-178"/>
      <point x="334" y="-178" type="curve" smooth="yes"/>
      <point x="288" y="-178"/>
      <point x="241" y="-164"/>
      <point x="241" y="-105" type="curve" smooth="yes"/>
      <point x="241" y="-38"/>
      <point x="321" y="-10"/>
      <point x="360" y="0" type="curve"/>
      <point x="296" y="0" type="line"/>
      <point x="229" y="-13"/>
      <point x="173" y="-68"/>
      <point x="173" y="-117" type="curve" smooth="yes"/>
      <point x="173" y="-181"/>
      <point x="219" y="-226"/>
    </contour>
  </outline>
</glyph>
<glyph name="hookpalatalizedbelowcomb" format="2">
  <unicode hex="0321"/>
  <anchor x="-26" y="0" name="_bottom"/>
  <anchor x="-26" y="-198" name="bottom"/>
  <outline>
    <contour>
      <point x="-37" y="-198" type="curve" smooth="yes"/>
      <point x="29" y="-198"/>
      <point x="73" y="-166"/>
      <point x="73" y="-94" type="curve" smooth="yes"/>
      <point x="73" y="24" type="line"/>
      <point x="21" y="24" type="line"/>
      <point x="21" y="-85" type="line" smooth="yes"/>
      <point x="21" y="-128"/>
      <point x="-1" y="-143"/>
      <point x="-41" y="-143" type="curve" smooth="yes"/>
      <point x="-61" y="-143"/>
      <point x="-88" y="-145"/>
      <point x="-114" y="-116" type="curve"/>
      <point x="-120" y="-119"/>
      <point x="-126" y="-132"/>
      <point x="-126" y="-142" type="curve" smooth="yes"/>
      <point x="-126" y="-174"/>
      <point x="-87" y="-198"/>
    </contour>
  </outline>
</glyph>
<glyph name="dblarchinvertedbelowcomb" format="2">
  <unicode hex="032B"/>
  <anchor x="1" y="0" name="_bottom"/>
  <anchor x="1" y="-183" name="bottom"/>
  <outline>
    <contour>
      <point x="-87" y="-183" type="curve" smooth="yes"/>
      <point x="-39" y="-183"/>
      <point x="-14" y="-159"/>
      <point x="-1" y="-134" type="curve"/>
      <point x="14" y="-159"/>
      <point x="40" y="-183"/>
      <point x="88" y="-183" type="curve" smooth="yes"/>
      <point x="158" y="-183"/>
      <point x="190" y="-156"/>
      <point x="194" y="-65" type="curve"/>
      <point x="163" y="-65" type="line"/>
      <point x="160" y="-138"/>
      <point x="132" y="-163"/>
      <point x="88" y="-163" type="curve" smooth="yes"/>
      <point x="43" y="-163"/>
      <point x="15" y="-136"/>
      <point x="15" y="-65" type="curve"/>
      <point x="-15" y="-65" type="line"/>
      <point x="-15" y="-136"/>
      <point x="-42" y="-163"/>
      <point x="-87" y="-163" type="curve" smooth="yes"/>
      <point x="-132" y="-163"/>
      <point x="-159" y="-138"/>
      <point x="-163" y="-65" type="curve"/>
      <point x="-194" y="-65" type="line"/>
      <point x="-189" y="-156"/>
      <point x="-158" y="-183"/>
    </contour>
  </outline>
</glyph>
<glyph name="bridgeinvertedbelowcomb" format="2">
  <unicode hex="033A"/>
  <anchor x="0" y="0" name="_bottom"/>
  <anchor x="0" y="-226" name="bottom"/>
  <outline>
    <contour>
      <point x="-218" y="-226" type="line"/>
      <point x="218" y="-226" type="line"/>
      <point x="218" y="-72" type="line"/>
      <point x="160" y="-72" type="line"/>
      <point x="160" y="-84" type="line" smooth="yes"/>
      <point x="160" y="-135"/>
      <point x="137" y="-166"/>
      <point x="53" y="-166" type="curve" smooth="yes"/>
      <point x="-53" y="-166" type="line" smooth="yes"/>
      <point x="-136" y="-166"/>
      <point x="-161" y="-138"/>
      <point x="-161" y="-84" type="curve" smooth="yes"/>
      <point x="-161" y="-72" type="line"/>
      <point x="-218" y="-72" type="line"/>
    </contour>
  </outline>
</glyph>
<glyph name="dbloverlinecomb" format="2">
  <unicode hex="033F"/>
  <anchor x="1" y="536" name="_top"/>
  <anchor x="1" y="946" name="top"/>
  <outline>
    <contour>
      <point x="-254" y="868" type="line"/>
      <point x="255" y="868" type="line"/>
      <point x="255" y="946" type="line"/>
      <point x="-254" y="946" type="line"/>
    </contour>
    <contour>
      <point x="-254" y="752" type="line"/>
      <point x="255" y="752" type="line"/>
      <point x="255" y="830" type="line"/>
      <point x="-254" y="830" type="line"/>
    </contour>
  </outline>
</glyph>
<glyph name="fermatacomb" format="2">
  <unicode hex="0352"/>
  <anchor x="2" y="536" name="_top"/>
  <anchor x="2" y="839" name="top"/>
  <outline>
    <contour>
      <point x="-158" y="699" type="curve"/>
      <point x="-111" y="699" type="line"/>
      <point x="-98" y="765"/>
      <point x="-58" y="793"/>
      <point x="0" y="793" type="curve" smooth="yes"/>
      <point x="59" y="793"/>
      <point x="102" y="764"/>
      <point x="114" y="699" type="curve"/>
      <point x="162" y="699" type="line"/>
      <point x="159" y="763"/>
      <point x="113" y="839"/>
      <point x="0" y="839" type="curve" smooth="yes"/>
      <point x="-112" y="839"/>
      <point x="-155" y="762"/>
    </contour>
    <contour>
      <point x="-1" y="604" type="curve" smooth="yes"/>
      <point x="32" y="604"/>
      <point x="53" y="620"/>
      <point x="53" y="662" type="curve" smooth="yes"/>
      <point x="53" y="702"/>
      <point x="32" y="719"/>
      <point x="-1" y="719" type="curve" smooth="yes"/>
      <point x="-33" y="719"/>
      <point x="-55" y="702"/>
      <point x="-55" y="662" type="curve" smooth="yes"/>
      <point x="-55" y="620"/>
      <point x="-33" y="604"/>
    </contour>
  </outline>
</glyph>
<glyph name="doublebrevebelowcomb" format="2">
  <unicode hex="035C"/>
  <anchor x="-292" y="0" name="_bottom"/>
  <anchor x="0" y="-213" name="bottom"/>
  <outline>
    <contour>
      <point x="0" y="-213" type="curve" smooth="yes"/>
      <point x="209" y="-213"/>
      <point x="368" y="-151"/>
      <point x="456" y="-25" type="curve"/>
      <point x="405" y="-25" type="line"/>
      <point x="337" y="-110"/>
      <point x="191" y="-169"/>
      <point x="0" y="-169" type="curve" smooth="yes"/>
      <point x="-193" y="-169"/>
      <point x="-337" y="-110"/>
      <point x="-406" y="-25" type="curve"/>
      <point x="-456" y="-25" type="line"/>
      <point x="-369" y="-152"/>
      <point x="-208" y="-213"/>
    </contour>
  </outline>
</glyph>
<glyph name="pamphyliandigamma" format="2">
  <advance width="786"/>
  <unicode hex="0377"/>
  <anchor x="393" y="0" name="bottom"/>
  <anchor x="393" y="536" name="top"/>
  <outline>
    <contour>
      <point x="606" y="-6" type="curve" smooth="yes"/>
      <point x="663" y="-6"/>
      <point x="683" y="17"/>
      <point x="692" y="41" type="curve"/>
      <point x="647" y="41"/>
      <point x="610" y="69"/>
      <point x="610" y="99" type="curve" smooth="yes"/>
      <point x="610" y="282"/>
      <point x="669" y="458"/>
      <point x="705" y="536" type="curve"/>
      <point x="598" y="536" type="line"/>
      <point x="229" y="114" type="line"/>
      <point x="229" y="536" type="line"/>
      <point x="27" y="536" type="line"/>
      <point x="27" y="498" type="line"/>
      <point x="79" y="498" type="line" smooth="yes"/>
      <point x="109" y="498"/>
      <point x="122" y="491"/>
      <point x="122" y="427" type="curve" smooth="yes"/>
      <point x="122" y="0" type="line"/>
      <point x="190" y="0" type="line"/>
      <point x="582" y="452" type="line"/>
      <point x="535" y="334"/>
      <point x="500" y="200"/>
      <point x="500" y="99" type="curve" smooth="yes"/>
      <point x="500" y="19"/>
      <point x="550" y="-6"/>
    </contour>
  </outline>
</glyph>
<glyph name="Phi" format="2">
  <advance width="937"/>
  <unicode hex="03A6"/>
  <anchor x="469" y="0" name="bottom"/>
  <anchor x="469" y="714" name="top"/>
  <outline>
    <contour>
      <point x="302" y="0" type="line"/>
      <point x="636" y="0" type="line"/>
      <point x="636" y="38" type="line"/>
      <point x="576" y="38" type="line" smooth="yes"/>
      <point x="543" y="38"/>
      <point x="521" y="48"/>
      <point x="521" y="110" type="curve" smooth="yes"/>
      <point x="521" y="134" type="line"/>
      <point x="555" y="134" type="line" smooth="yes"/>
      <point x="773" y="134"/>
      <point x="882" y="211"/>
      <point x="882" y="365" type="curve" smooth="yes"/>
      <point x="882" y="488"/>
      <point x="782" y="590"/>
      <point x="591" y="590" type="curve" smooth="yes"/>
      <point x="521" y="590" type="line"/>
      <point x="521" y="602" type="line" smooth="yes"/>
      <point x="521" y="666"/>
      <point x="540" y="676"/>
      <point x="581" y="676" type="curve" smooth="yes"/>
      <point x="636" y="676" type="line"/>
      <point x="636" y="714" type="line"/>
      <point x="302" y="714" type="line"/>
      <point x="302" y="676" type="line"/>
      <point x="361" y="676" type="line" smooth="yes"/>
      <point x="400" y="676"/>
      <point x="420" y="666"/>
      <point x="420" y="602" type="curve" smooth="yes"/>
      <point x="420" y="590" type="line"/>
      <point x="351" y="590" type="line" smooth="yes"/>
      <point x="165" y="590"/>
      <point x="60" y="495"/>
      <point x="60" y="368" type="curve" smooth="yes"/>
      <point x="60" y="219"/>
      <point x="166" y="134"/>
      <point x="387" y="134" type="curve" smooth="yes"/>
      <point x="420" y="134" type="line"/>
      <point x="420" y="110" type="line" smooth="yes"/>
      <point x="420" y="48"/>
      <point x="399" y="38"/>
      <point x="364" y="38" type="curve" smooth="yes"/>
      <point x="302" y="38" type="line"/>
    </contour>
    <contour>
      <point x="403" y="177" type="line" smooth="yes"/>
      <point x="235" y="177"/>
      <point x="161" y="223"/>
      <point x="161" y="366" type="curve" smooth="yes"/>
      <point x="161" y="489"/>
      <point x="235" y="546"/>
      <point x="380" y="546" type="curve" smooth="yes"/>
      <point x="420" y="546" type="line"/>
      <point x="420" y="177" type="line"/>
    </contour>
    <contour>
      <point x="521" y="177" type="line"/>
      <point x="521" y="546" type="line"/>
      <point x="562" y="546" type="line" smooth="yes"/>
      <point x="704" y="546"/>
      <point x="780" y="489"/>
      <point x="780" y="362" type="curve" smooth="yes"/>
      <point x="780" y="223"/>
      <point x="706" y="177"/>
      <point x="535" y="177" type="curve" smooth="yes"/>
    </contour>
  </outline>
</glyph>
<glyph name="kappa" format="2">
  <advance width="725"/>
  <unicode hex="03BA"/>
  <anchor x="363" y="0" name="bottom"/>
  <anchor x="363" y="536" name="top"/>
  <outline>
    <contour>
      <point x="133" y="0" type="line"/>
      <point x="240" y="0" type="line"/>
      <point x="240" y="185" type="line"/>
      <point x="336" y="268" type="line"/>
      <point x="485" y="64" type="line" smooth="yes"/>
      <point x="526" y="19"/>
      <point x="542" y="0"/>
      <point x="661" y="0" type="curve" smooth="yes"/>
      <point x="698" y="0" type="line"/>
      <point x="698" y="44" type="line"/>
      <point x="683" y="44" type="line" smooth="yes"/>
      <point x="637" y="44"/>
      <point x="622" y="51"/>
      <point x="573" y="113" type="curve" smooth="yes"/>
      <point x="399" y="338" type="line"/>
      <point x="441" y="377" type="line" smooth="yes"/>
      <point x="511" y="452"/>
      <point x="536" y="475"/>
      <point x="595" y="475" type="curve" smooth="yes"/>
      <point x="626" y="475"/>
      <point x="651" y="468"/>
      <point x="667" y="458" type="curve"/>
      <point x="674" y="462"/>
      <point x="686" y="471"/>
      <point x="686" y="488" type="curve" smooth="yes"/>
      <point x="686" y="508"/>
      <point x="665" y="541"/>
      <point x="593" y="541" type="curve" smooth="yes"/>
      <point x="513" y="541"/>
      <point x="481" y="506"/>
      <point x="392" y="408" type="curve" smooth="yes"/>
      <point x="238" y="237" type="line"/>
      <point x="238" y="236"/>
      <point x="240" y="296"/>
      <point x="240" y="327" type="curve" smooth="yes"/>
      <point x="240" y="536" type="line"/>
      <point x="39" y="536" type="line"/>
      <point x="39" y="498" type="line"/>
      <point x="59" y="498" type="line" smooth="yes"/>
      <point x="104" y="498"/>
      <point x="133" y="486"/>
      <point x="133" y="439" type="curve" smooth="yes"/>
    </contour>
  </outline>
</glyph>
<glyph name="lambda" format="2">
  <advance width="640"/>
  <unicode hex="03BB"/>
  <anchor x="320" y="0" name="bottom"/>
  <anchor x="320" y="770" name="top"/>
  <outline>
    <contour>
      <point x="10" y="0" type="line"/>
      <point x="125" y="0" type="line"/>
      <point x="270" y="251" type="line" smooth="yes"/>
      <point x="297" y="296"/>
      <point x="339" y="373"/>
      <point x="359" y="401" type="curve"/>
      <point x="363" y="401" type="line"/>
      <point x="381" y="334"/>
      <point x="410" y="262"/>
      <point x="436" y="158" type="curve" smooth="yes"/>
      <point x="465" y="36"/>
      <point x="501" y="0"/>
      <point x="603" y="0" type="curve" smooth="yes"/>
      <point x="635" y="0" type="line"/>
      <point x="635" y="44" type="line"/>
      <point x="629" y="44" type="line" smooth="yes"/>
      <point x="573" y="44"/>
      <point x="529" y="53"/>
      <point x="493" y="154" type="curve" smooth="yes"/>
      <point x="373" y="550" type="line" smooth="yes"/>
      <point x="318" y="731"/>
      <point x="252" y="770"/>
      <point x="164" y="770" type="curve" smooth="yes"/>
      <point x="101" y="770"/>
      <point x="52" y="746"/>
      <point x="52" y="713" type="curve" smooth="yes"/>
      <point x="52" y="689"/>
      <point x="66" y="683"/>
      <point x="76" y="675" type="curve"/>
      <point x="94" y="704"/>
      <point x="127" y="722"/>
      <point x="171" y="719" type="curve" smooth="yes"/>
      <point x="249" y="716"/>
      <point x="276" y="651"/>
      <point x="324" y="529" type="curve"/>
    </contour>
  </outline>
</glyph>
<glyph name="psi" format="2">
  <advance width="834"/>
  <unicode hex="03C8"/>
  <anchor x="416" y="-240" name="bottom"/>
  <anchor x="416" y="760" name="top"/>
  <outline>
    <contour>
      <point x="417" y="-240" type="line"/>
      <point x="462" y="-240" type="line"/>
      <point x="462" y="-8" type="line"/>
      <point x="648" y="2"/>
      <point x="762" y="127"/>
      <point x="762" y="337" type="curve" smooth="yes"/>
      <point x="762" y="519"/>
      <point x="706" y="544"/>
      <point x="654" y="544" type="curve" smooth="yes"/>
      <point x="621" y="544"/>
      <point x="605" y="525"/>
      <point x="605" y="504" type="curve"/>
      <point x="640" y="506"/>
      <point x="704" y="455"/>
      <point x="704" y="305" type="curve" smooth="yes"/>
      <point x="704" y="184"/>
      <point x="623" y="41"/>
      <point x="462" y="41" type="curve"/>
      <point x="462" y="760" type="line"/>
      <point x="417" y="760" type="line"/>
      <point x="417" y="42" type="line"/>
      <point x="309" y="46"/>
      <point x="226" y="83"/>
      <point x="226" y="221" type="curve" smooth="yes"/>
      <point x="226" y="536" type="line"/>
      <point x="38" y="536" type="line"/>
      <point x="38" y="498" type="line"/>
      <point x="54" y="498" type="line" smooth="yes"/>
      <point x="111" y="498"/>
      <point x="120" y="485"/>
      <point x="120" y="434" type="curve" smooth="yes"/>
      <point x="120" y="209" type="line" smooth="yes"/>
      <point x="120" y="25"/>
      <point x="262" y="-10"/>
      <point x="417" y="-10" type="curve"/>
    </contour>
  </outline>
</glyph>
<glyph name="uni03D1" format="2">
  <advance width="687"/>
  <unicode hex="03D1"/>
  <outline>
    <contour>
      <point x="301" y="-10" type="curve" smooth="yes"/>
      <point x="489" y="-10"/>
      <point x="598" y="132"/>
      <point x="598" y="371" type="curve" smooth="yes"/>
      <point x="598" y="392"/>
      <point x="596" y="412"/>
      <point x="595" y="427" type="curve"/>
      <point x="676" y="427" type="line"/>
      <point x="676" y="468" type="line"/>
      <point x="591" y="468" type="line"/>
      <point x="566" y="669"/>
      <point x="474" y="764"/>
      <point x="327" y="764" type="curve" smooth="yes"/>
      <point x="198" y="764"/>
      <point x="115" y="704"/>
      <point x="115" y="617" type="curve" smooth="yes"/>
      <point x="115" y="501"/>
      <point x="210" y="430"/>
      <point x="487" y="427" type="curve"/>
      <point x="488" y="413"/>
      <point x="489" y="387"/>
      <point x="489" y="371" type="curve" smooth="yes"/>
      <point x="489" y="154"/>
      <point x="424" y="35"/>
      <point x="305" y="35" type="curve" smooth="yes"/>
      <point x="222" y="35"/>
      <point x="192" y="99"/>
      <point x="192" y="179" type="curve" smooth="yes"/>
      <point x="192" y="214"/>
      <point x="206" y="281"/>
      <point x="206" y="318" type="curve" smooth="yes"/>
      <point x="206" y="377"/>
      <point x="173" y="408"/>
      <point x="75" y="408" type="curve" smooth="yes"/>
      <point x="3" y="408" type="line"/>
      <point x="3" y="363" type="line"/>
      <point x="42" y="363" type="line" smooth="yes"/>
      <point x="85" y="363"/>
      <point x="97" y="345"/>
      <point x="97" y="316" type="curve" smooth="yes"/>
      <point x="97" y="300"/>
      <point x="83" y="212"/>
      <point x="83" y="170" type="curve" smooth="yes"/>
      <point x="83" y="81"/>
      <point x="141" y="-10"/>
    </contour>
    <contour>
      <point x="485" y="472" type="curve"/>
      <point x="250" y="476"/>
      <point x="209" y="556"/>
      <point x="209" y="626" type="curve" smooth="yes"/>
      <point x="209" y="673"/>
      <point x="252" y="718"/>
      <point x="319" y="718" type="curve" smooth="yes"/>
      <point x="415" y="718"/>
      <point x="463" y="630"/>
    </contour>
  </outline>
</glyph>
<glyph name="afii10053" format="2">
  <advance width="733"/>
  <unicode hex="0404"/>
  <anchor x="366" y="0" name="bottom"/>
  <anchor x="366" y="714" name="top"/>
  <outline>
    <contour>
      <point x="433" y="-10" type="curve" smooth="yes"/>
      <point x="635" y="-10"/>
      <point x="682" y="78"/>
      <point x="682" y="113" type="curve" smooth="yes"/>
      <point x="682" y="122"/>
      <point x="679" y="137"/>
      <point x="670" y="143" type="curve"/>
      <point x="635" y="92"/>
      <point x="564" y="44"/>
      <point x="446" y="44" type="curve" smooth="yes"/>
      <point x="276" y="44"/>
      <point x="184" y="127"/>
      <point x="181" y="342" type="curve"/>
      <point x="534" y="342" type="line"/>
      <point x="534" y="384" type="line"/>
      <point x="181" y="384" type="line"/>
      <point x="189" y="595"/>
      <point x="279" y="678"/>
      <point x="417" y="678" type="curve" smooth="yes"/>
      <point x="551" y="678"/>
      <point x="603" y="610"/>
      <point x="603" y="529" type="curve"/>
      <point x="654" y="529"/>
      <point x="687" y="547"/>
      <point x="687" y="585" type="curve" smooth="yes"/>
      <point x="687" y="665"/>
      <point x="585" y="724"/>
      <point x="432" y="724" type="curve" smooth="yes"/>
      <point x="180" y="724"/>
      <point x="67" y="572"/>
      <point x="67" y="358" type="curve" smooth="yes"/>
      <point x="67" y="125"/>
      <point x="191" y="-10"/>
    </contour>
  </outline>
</glyph>
<glyph name="afii10059" format="2">
  <advance width="1178"/>
  <unicode hex="040A"/>
  <anchor x="589" y="0" name="bottom"/>
  <anchor x="589" y="714" name="top"/>
  <outline>
    <contour>
      <point x="47" y="0" type="line"/>
      <point x="382" y="0" type="line"/>
      <point x="382" y="38" type="line"/>
      <point x="324" y="38" type="line" smooth="yes"/>
      <point x="284" y="38"/>
      <point x="275" y="55"/>
      <point x="275" y="109" type="curve" smooth="yes"/>
      <point x="275" y="351" type="line"/>
      <point x="641" y="351" type="line"/>
      <point x="641" y="117" type="line" smooth="yes"/>
      <point x="641" y="54"/>
      <point x="630" y="38"/>
      <point x="587" y="38" type="curve" smooth="yes"/>
      <point x="532" y="38" type="line"/>
      <point x="532" y="0" type="line"/>
      <point x="828" y="0" type="line" smooth="yes"/>
      <point x="1043" y="0"/>
      <point x="1135" y="88"/>
      <point x="1135" y="200" type="curve" smooth="yes"/>
      <point x="1135" y="325"/>
      <point x="1049" y="396"/>
      <point x="862" y="396" type="curve" smooth="yes"/>
      <point x="751" y="396" type="line"/>
      <point x="751" y="601" type="line" smooth="yes"/>
      <point x="751" y="661"/>
      <point x="760" y="676"/>
      <point x="807" y="676" type="curve" smooth="yes"/>
      <point x="875" y="676" type="line"/>
      <point x="875" y="714" type="line"/>
      <point x="532" y="714" type="line"/>
      <point x="532" y="676" type="line"/>
      <point x="583" y="676" type="line" smooth="yes"/>
      <point x="632" y="676"/>
      <point x="641" y="664"/>
      <point x="641" y="599" type="curve" smooth="yes"/>
      <point x="641" y="395" type="line"/>
      <point x="275" y="395" type="line"/>
      <point x="275" y="604" type="line" smooth="yes"/>
      <point x="275" y="662"/>
      <point x="286" y="676"/>
      <point x="324" y="676" type="curve" smooth="yes"/>
      <point x="382" y="676" type="line"/>
      <point x="382" y="714" type="line"/>
      <point x="47" y="714" type="line"/>
      <point x="47" y="676" type="line"/>
      <point x="110" y="676" type="line" smooth="yes"/>
      <point x="154" y="676"/>
      <point x="166" y="662"/>
      <point x="166" y="602" type="curve" smooth="yes"/>
      <point x="166" y="109" type="line" smooth="yes"/>
      <point x="166" y="55"/>
      <point x="153" y="38"/>
      <point x="116" y="38" type="curve" smooth="yes"/>
      <point x="47" y="38" type="line"/>
    </contour>
    <contour>
      <point x="750" y="44" type="line"/>
      <point x="750" y="352" type="line"/>
      <point x="830" y="352" type="line" smooth="yes"/>
      <point x="950" y="352"/>
      <point x="1019" y="303"/>
      <point x="1019" y="200" type="curve" smooth="yes"/>
      <point x="1019" y="89"/>
      <point x="951" y="44"/>
      <point x="812" y="44" type="curve" smooth="yes"/>
    </contour>
  </outline>
</glyph>
<glyph name="afii10026" format="2">
  <advance width="972"/>
  <unicode hex="0418"/>
  <anchor x="487" y="0" name="bottom"/>
  <anchor x="487" y="714" name="top"/>
  <outline>
    <contour>
      <point x="47" y="0" type="line"/>
      <point x="380" y="0" type="line"/>
      <point x="380" y="38" type="line"/>
      <point x="331" y="38" type="line" smooth="yes"/>
      <point x="284" y="38"/>
      <point x="275" y="49"/>
      <point x="275" y="109" type="curve" smooth="yes"/>
      <point x="275" y="119" type="line"/>
      <point x="699" y="538" type="line"/>
      <point x="699" y="114" type="line" smooth="yes"/>
      <point x="699" y="50"/>
      <point x="688" y="38"/>
      <point x="645" y="38" type="curve" smooth="yes"/>
      <point x="592" y="38" type="line"/>
      <point x="592" y="0" type="line"/>
      <point x="922" y="0" type="line"/>
      <point x="922" y="38" type="line"/>
      <point x="860" y="38" type="line" smooth="yes"/>
      <point x="819" y="38"/>
      <point x="808" y="50"/>
      <point x="808" y="112" type="curve" smooth="yes"/>
      <point x="808" y="612" type="line" smooth="yes"/>
      <point x="808" y="664"/>
      <point x="823" y="676"/>
      <point x="859" y="676" type="curve" smooth="yes"/>
      <point x="922" y="676" type="line"/>
      <point x="922" y="714" type="line"/>
      <point x="592" y="714" type="line"/>
      <point x="592" y="676" type="line"/>
      <point x="650" y="676" type="line" smooth="yes"/>
      <point x="682" y="676"/>
      <point x="699" y="665"/>
      <point x="699" y="615" type="curve" smooth="yes"/>
      <point x="699" y="612" type="line"/>
      <point x="275" y="187" type="line"/>
      <point x="275" y="602" type="line" smooth="yes"/>
      <point x="275" y="664"/>
      <point x="286" y="676"/>
      <point x="329" y="676" type="curve" smooth="yes"/>
      <point x="380" y="676" type="line"/>
      <point x="380" y="714" type="line"/>
      <point x="47" y="714" type="line"/>
      <point x="47" y="676" type="line"/>
      <point x="112" y="676" type="line" smooth="yes"/>
      <point x="154" y="676"/>
      <point x="166" y="664"/>
      <point x="166" y="600" type="curve" smooth="yes"/>
      <point x="166" y="114" type="line" smooth="yes"/>
      <point x="166" y="50"/>
      <point x="154" y="38"/>
      <point x="113" y="38" type="curve" smooth="yes"/>
      <point x="47" y="38" type="line"/>
    </contour>
  </outline>
</glyph>
<glyph name="afii10029" format="2">
  <advance width="843"/>
  <unicode hex="041B"/>
  <anchor x="422" y="0" name="bottom"/>
  <anchor x="422" y="714" name="top"/>
  <outline>
    <contour>
      <point x="104" y="-7" type="curve" smooth="yes"/>
      <point x="196" y="-7"/>
      <point x="242" y="48"/>
      <point x="278" y="159" type="curve" smooth="yes"/>
      <point x="328" y="317"/>
      <point x="358" y="549"/>
      <point x="370" y="677" type="curve"/>
      <point x="571" y="677" type="line"/>
      <point x="571" y="114" type="line" smooth="yes"/>
      <point x="571" y="48"/>
      <point x="563" y="38"/>
      <point x="511" y="38" type="curve" smooth="yes"/>
      <point x="460" y="38" type="line"/>
      <point x="460" y="0" type="line"/>
      <point x="790" y="0" type="line"/>
      <point x="790" y="38" type="line"/>
      <point x="737" y="38" type="line" smooth="yes"/>
      <point x="689" y="38"/>
      <point x="680" y="47"/>
      <point x="680" y="110" type="curve" smooth="yes"/>
      <point x="680" y="604" type="line" smooth="yes"/>
      <point x="680" y="666"/>
      <point x="693" y="676"/>
      <point x="730" y="676" type="curve" smooth="yes"/>
      <point x="792" y="676" type="line"/>
      <point x="792" y="714" type="line"/>
      <point x="198" y="714" type="line"/>
      <point x="198" y="676" type="line"/>
      <point x="252" y="676" type="line" smooth="yes"/>
      <point x="295" y="676"/>
      <point x="309" y="665"/>
      <point x="309" y="608" type="curve" smooth="yes"/>
      <point x="309" y="554"/>
      <point x="270" y="307"/>
      <point x="231" y="181" type="curve" smooth="yes"/>
      <point x="205" y="109"/>
      <point x="179" y="49"/>
      <point x="109" y="49" type="curve" smooth="yes"/>
      <point x="73" y="49"/>
      <point x="50" y="64"/>
      <point x="40" y="112" type="curve"/>
      <point x="23" y="112"/>
      <point x="0" y="102"/>
      <point x="0" y="70" type="curve" smooth="yes"/>
      <point x="0" y="22"/>
      <point x="44" y="-7"/>
    </contour>
  </outline>
</glyph>
<glyph name="afii10043" format="2">
  <advance width="1273"/>
  <unicode hex="0429"/>
  <anchor x="637" y="0" name="bottom"/>
  <anchor x="637" y="714" name="top"/>
  <outline>
    <contour>
      <point x="1179" y="-210" type="curve"/>
      <point x="1229" y="-210" type="line"/>
      <point x="1229" y="51" type="line"/>
      <point x="1175" y="51" type="line" smooth="yes"/>
      <point x="1110" y="51"/>
      <point x="1103" y="58"/>
      <point x="1103" y="120" type="curve" smooth="yes"/>
      <point x="1103" y="597" type="line" smooth="yes"/>
      <point x="1103" y="665"/>
      <point x="1115" y="676"/>
      <point x="1157" y="676" type="curve" smooth="yes"/>
      <point x="1221" y="676" type="line"/>
      <point x="1221" y="714" type="line"/>
      <point x="899" y="714" type="line"/>
      <point x="899" y="676" type="line"/>
      <point x="946" y="676" type="line" smooth="yes"/>
      <point x="990" y="676"/>
      <point x="998" y="665"/>
      <point x="998" y="597" type="curve" smooth="yes"/>
      <point x="997" y="44" type="line"/>
      <point x="686" y="44" type="line"/>
      <point x="686" y="602" type="line" smooth="yes"/>
      <point x="686" y="668"/>
      <point x="697" y="676"/>
      <point x="741" y="676" type="curve" smooth="yes"/>
      <point x="779" y="676" type="line"/>
      <point x="779" y="714" type="line"/>
      <point x="490" y="714" type="line"/>
      <point x="490" y="676" type="line"/>
      <point x="520" y="676" type="line" smooth="yes"/>
      <point x="567" y="676"/>
      <point x="581" y="667"/>
      <point x="581" y="596" type="curve" smooth="yes"/>
      <point x="581" y="44" type="line"/>
      <point x="269" y="44" type="line"/>
      <point x="269" y="597" type="line" smooth="yes"/>
      <point x="269" y="665"/>
      <point x="278" y="676"/>
      <point x="330" y="676" type="curve" smooth="yes"/>
      <point x="368" y="676" type="line"/>
      <point x="368" y="714" type="line"/>
      <point x="47" y="714" type="line"/>
      <point x="47" y="676" type="line"/>
      <point x="107" y="676" type="line" smooth="yes"/>
      <point x="152" y="676"/>
      <point x="165" y="665"/>
      <point x="165" y="597" type="curve" smooth="yes"/>
      <point x="165" y="114" type="line" smooth="yes"/>
      <point x="165" y="49"/>
      <point x="154" y="38"/>
      <point x="103" y="38" type="curve" smooth="yes"/>
      <point x="48" y="38" type="line"/>
      <point x="48" y="0" type="line"/>
      <point x="1123" y="0" type="line" smooth="yes"/>
      <point x="1169" y="0"/>
      <point x="1179" y="-68"/>
    </contour>
  </outline>
</glyph>
<glyph name="afii10045" format="2">
  <advance width="1078"/>
  <unicode hex="042B"/>
  <anchor x="539" y="0" name="bottom"/>
  <anchor x="539" y="714" name="top"/>
  <outline>
    <contour>
      <point x="48" y="0" type="line"/>
      <point x="332" y="0" type="line" smooth="yes"/>
      <point x="540" y="0"/>
      <point x="654" y="63"/>
      <point x="654" y="200" type="curve" smooth="yes"/>
      <point x="654" y="334"/>
      <point x="567" y="397"/>
      <point x="378" y="397" type="curve" smooth="yes"/>
      <point x="275" y="397" type="line"/>
      <point x="275" y="601" type="line" smooth="yes"/>
      <point x="275" y="661"/>
      <point x="283" y="676"/>
      <point x="332" y="676" type="curve" smooth="yes"/>
      <point x="387" y="676" type="line"/>
      <point x="387" y="714" type="line"/>
      <point x="48" y="714" type="line"/>
      <point x="48" y="676" type="line"/>
      <point x="115" y="676" type="line" smooth="yes"/>
      <point x="153" y="676"/>
      <point x="166" y="664"/>
      <point x="166" y="599" type="curve" smooth="yes"/>
      <point x="166" y="108" type="line" smooth="yes"/>
      <point x="166" y="55"/>
      <point x="151" y="38"/>
      <point x="115" y="38" type="curve" smooth="yes"/>
      <point x="48" y="38" type="line"/>
    </contour>
    <contour>
      <point x="275" y="44" type="line"/>
      <point x="275" y="353" type="line"/>
      <point x="345" y="353" type="line" smooth="yes"/>
      <point x="472" y="353"/>
      <point x="538" y="316"/>
      <point x="538" y="200" type="curve" smooth="yes"/>
      <point x="538" y="89"/>
      <point x="468" y="44"/>
      <point x="328" y="44" type="curve" smooth="yes"/>
    </contour>
    <contour>
      <point x="691" y="0" type="line"/>
      <point x="1030" y="0" type="line"/>
      <point x="1030" y="38" type="line"/>
      <point x="964" y="38" type="line" smooth="yes"/>
      <point x="929" y="38"/>
      <point x="917" y="54"/>
      <point x="917" y="109" type="curve" smooth="yes"/>
      <point x="917" y="602" type="line" smooth="yes"/>
      <point x="917" y="662"/>
      <point x="924" y="676"/>
      <point x="972" y="676" type="curve" smooth="yes"/>
      <point x="1030" y="676" type="line"/>
      <point x="1030" y="714" type="line"/>
      <point x="691" y="714" type="line"/>
      <point x="691" y="676" type="line"/>
      <point x="758" y="676" type="line" smooth="yes"/>
      <point x="793" y="676"/>
      <point x="807" y="662"/>
      <point x="807" y="602" type="curve" smooth="yes"/>
      <point x="807" y="108" type="line" smooth="yes"/>
      <point x="807" y="52"/>
      <point x="792" y="38"/>
      <point x="760" y="38" type="curve" smooth="yes"/>
      <point x="691" y="38" type="line"/>
    </contour>
  </outline>
</glyph>
<glyph name="afii10069" format="2">
  <advance width="703"/>
  <unicode hex="0434"/>
  <anchor x="352" y="0" name="bottom"/>
  <anchor x="352" y="536" name="top"/>
  <outline>
    <contour>
      <point x="17" y="-210" type="line"/>
      <point x="66" y="-210" type="line"/>
      <point x="76" y="-9" type="line" smooth="yes"/>
      <point x="81" y="-6"/>
      <point x="94" y="0"/>
      <point x="106" y="0" type="curve" smooth="yes"/>
      <point x="563" y="0" type="line" smooth="yes"/>
      <point x="568" y="0"/>
      <point x="575" y="-4"/>
      <point x="579" y="-5" type="curve" smooth="yes"/>
      <point x="588" y="-210" type="line"/>
      <point x="637" y="-210" type="line"/>
      <point x="637" y="41" type="line"/>
      <point x="587" y="41" type="line" smooth="yes"/>
      <point x="546" y="41"/>
      <point x="532" y="63"/>
      <point x="532" y="87" type="curve" smooth="yes"/>
      <point x="532" y="425" type="line" smooth="yes"/>
      <point x="532" y="489"/>
      <point x="545" y="498"/>
      <point x="583" y="498" type="curve" smooth="yes"/>
      <point x="642" y="498" type="line"/>
      <point x="642" y="536" type="line"/>
      <point x="107" y="536" type="line"/>
      <point x="107" y="498" type="line"/>
      <point x="150" y="498" type="line" smooth="yes"/>
      <point x="194" y="498"/>
      <point x="216" y="494"/>
      <point x="216" y="481" type="curve" smooth="yes"/>
      <point x="216" y="375"/>
      <point x="199" y="299"/>
      <point x="173" y="211" type="curve" smooth="yes"/>
      <point x="155" y="153"/>
      <point x="130" y="96"/>
      <point x="108" y="41" type="curve"/>
      <point x="17" y="41" type="line"/>
    </contour>
    <contour>
      <point x="162" y="41" type="line"/>
      <point x="226" y="194"/>
      <point x="258" y="299"/>
      <point x="273" y="495" type="curve"/>
      <point x="433" y="495" type="line"/>
      <point x="433" y="41" type="line"/>
    </contour>
  </outline>
</glyph>
<glyph name="afii10074" format="2">
  <advance width="847"/>
  <unicode hex="0438"/>
  <anchor x="423" y="0" name="bottom"/>
  <anchor x="423" y="536" name="top"/>
  <outline>
    <contour>
      <point x="31" y="0" type="line"/>
      <point x="349" y="0" type="line"/>
      <point x="349" y="38" type="line"/>
      <point x="317" y="38" type="line" smooth="yes"/>
      <point x="260" y="38"/>
      <point x="251" y="46"/>
      <point x="251" y="100" type="curve" smooth="yes"/>
      <point x="251" y="125" type="line"/>
      <point x="595" y="368" type="line"/>
      <point x="595" y="102" type="line" smooth="yes"/>
      <point x="595" y="48"/>
      <point x="587" y="38"/>
      <point x="529" y="38" type="curve" smooth="yes"/>
      <point x="498" y="38" type="line"/>
      <point x="498" y="0" type="line"/>
      <point x="817" y="0" type="line"/>
      <point x="817" y="38" type="line"/>
      <point x="777" y="38" type="line" smooth="yes"/>
      <point x="716" y="38"/>
      <point x="702" y="48"/>
      <point x="702" y="112" type="curve" smooth="yes"/>
      <point x="702" y="426" type="line" smooth="yes"/>
      <point x="702" y="488"/>
      <point x="715" y="498"/>
      <point x="777" y="498" type="curve" smooth="yes"/>
      <point x="817" y="498" type="line"/>
      <point x="817" y="536" type="line"/>
      <point x="498" y="536" type="line"/>
      <point x="498" y="498" type="line"/>
      <point x="530" y="498" type="line" smooth="yes"/>
      <point x="588" y="498"/>
      <point x="595" y="487"/>
      <point x="595" y="439" type="curve" smooth="yes"/>
      <point x="595" y="429" type="line"/>
      <point x="251" y="185" type="line"/>
      <point x="251" y="439" type="line" smooth="yes"/>
      <point x="251" y="491"/>
      <point x="263" y="498"/>
      <point x="312" y="498" type="curve" smooth="yes"/>
      <point x="349" y="498" type="line"/>
      <point x="349" y="536" type="line"/>
      <point x="31" y="536" type="line"/>
      <point x="31" y="498" type="line"/>
      <point x="70" y="498" type="line" smooth="yes"/>
      <point x="130" y="498"/>
      <point x="145" y="490"/>
      <point x="145" y="427" type="curve" smooth="yes"/>
      <point x="145" y="109" type="line" smooth="yes"/>
      <point x="145" y="45"/>
      <point x="132" y="38"/>
      <point x="64" y="38" type="curve" smooth="yes"/>
      <point x="31" y="38" type="line"/>
    </contour>
  </outline>
</glyph>
<glyph name="afii10091" format="2">
  <advance width="1161"/>
  <unicode hex="0449"/>
  <anchor x="580" y="0" name="bottom"/>
  <anchor x="580" y="536" name="top"/>
  <outline>
    <contour>
      <point x="1047" y="-210" type="line"/>
      <point x="1097" y="-210" type="line"/>
      <point x="1097" y="43" type="line"/>
      <point x="1033" y="43" type="line" smooth="yes"/>
      <point x="1004" y="44"/>
      <point x="984" y="62"/>
      <point x="984" y="99" type="curve" smooth="yes"/>
      <point x="984" y="429" type="line" smooth="yes"/>
      <point x="984" y="490"/>
      <point x="999" y="498"/>
      <point x="1052" y="498" type="curve" smooth="yes"/>
      <point x="1097" y="498" type="line"/>
      <point x="1097" y="536" type="line"/>
      <point x="780" y="536" type="line"/>
      <point x="780" y="498" type="line"/>
      <point x="812" y="498" type="line" smooth="yes"/>
      <point x="867" y="498"/>
      <point x="877" y="490"/>
      <point x="877" y="429" type="curve" smooth="yes"/>
      <point x="877" y="49" type="line"/>
      <point x="618" y="49" type="line"/>
      <point x="618" y="429" type="line" smooth="yes"/>
      <point x="618" y="490"/>
      <point x="625" y="498"/>
      <point x="684" y="498" type="curve" smooth="yes"/>
      <point x="715" y="498" type="line"/>
      <point x="715" y="536" type="line"/>
      <point x="407" y="536" type="line"/>
      <point x="407" y="498" type="line"/>
      <point x="445" y="498" type="line" smooth="yes"/>
      <point x="502" y="498"/>
      <point x="511" y="490"/>
      <point x="511" y="429" type="curve" smooth="yes"/>
      <point x="511" y="49" type="line"/>
      <point x="252" y="49" type="line"/>
      <point x="252" y="429" type="line" smooth="yes"/>
      <point x="252" y="489"/>
      <point x="262" y="498"/>
      <point x="313" y="498" type="curve" smooth="yes"/>
      <point x="350" y="498" type="line"/>
      <point x="350" y="536" type="line"/>
      <point x="31" y="536" type="line"/>
      <point x="31" y="498" type="line"/>
      <point x="69" y="498" type="line" smooth="yes"/>
      <point x="132" y="498"/>
      <point x="145" y="487"/>
      <point x="145" y="429" type="curve" smooth="yes"/>
      <point x="145" y="107" type="line" smooth="yes"/>
      <point x="145" y="46"/>
      <point x="131" y="38"/>
      <point x="67" y="38" type="curve" smooth="yes"/>
      <point x="31" y="38" type="line"/>
      <point x="31" y="0" type="line"/>
      <point x="1011" y="0" type="line" smooth="yes"/>
      <point x="1012" y="0"/>
      <point x="1024" y="-6"/>
      <point x="1029" y="6" type="curve" smooth="yes"/>
    </contour>
  </outline>
</glyph>
<glyph name="afii10107" format="2">
  <advance width="1054"/>
  <unicode hex="045A"/>
  <anchor x="527" y="0" name="bottom"/>
  <anchor x="527" y="536" name="top"/>
  <outline>
    <contour>
      <point x="32" y="0" type="line"/>
      <point x="352" y="0" type="line"/>
      <point x="352" y="38" type="line"/>
      <point x="312" y="38" type="line" smooth="yes"/>
      <point x="264" y="38"/>
      <point x="251" y="46"/>
      <point x="251" y="107" type="curve" smooth="yes"/>
      <point x="251" y="254" type="line"/>
      <point x="547" y="254" type="line"/>
      <point x="547" y="106" type="line" smooth="yes"/>
      <point x="547" y="46"/>
      <point x="538" y="38"/>
      <point x="477" y="38" type="curve" smooth="yes"/>
      <point x="453" y="38" type="line"/>
      <point x="453" y="0" type="line"/>
      <point x="778" y="0" type="line" smooth="yes"/>
      <point x="941" y="0"/>
      <point x="1014" y="71"/>
      <point x="1014" y="162" type="curve" smooth="yes"/>
      <point x="1014" y="275"/>
      <point x="911" y="296"/>
      <point x="783" y="297" type="curve" smooth="yes"/>
      <point x="653" y="297" type="line"/>
      <point x="653" y="426" type="line" smooth="yes"/>
      <point x="653" y="480"/>
      <point x="668" y="494"/>
      <point x="727" y="494" type="curve" smooth="yes"/>
      <point x="761" y="494" type="line"/>
      <point x="761" y="536" type="line"/>
      <point x="447" y="536" type="line"/>
      <point x="447" y="498" type="line"/>
      <point x="480" y="498" type="line" smooth="yes"/>
      <point x="538" y="498"/>
      <point x="547" y="489"/>
      <point x="547" y="430" type="curve" smooth="yes"/>
      <point x="547" y="297" type="line"/>
      <point x="251" y="297" type="line"/>
      <point x="251" y="429" type="line" smooth="yes"/>
      <point x="251" y="489"/>
      <point x="262" y="498"/>
      <point x="316" y="498" type="curve" smooth="yes"/>
      <point x="352" y="498" type="line"/>
      <point x="352" y="536" type="line"/>
      <point x="32" y="536" type="line"/>
      <point x="32" y="498" type="line"/>
      <point x="70" y="498" type="line" smooth="yes"/>
      <point x="133" y="498"/>
      <point x="145" y="489"/>
      <point x="145" y="430" type="curve" smooth="yes"/>
      <point x="145" y="107" type="line" smooth="yes"/>
      <point x="145" y="46"/>
      <point x="131" y="38"/>
      <point x="72" y="38" type="curve" smooth="yes"/>
      <point x="32" y="38" type="line"/>
    </contour>
    <contour>
      <point x="653" y="44" type="line"/>
      <point x="653" y="254" type="line"/>
      <point x="742" y="254" type="line" smooth="yes"/>
      <point x="856" y="254"/>
      <point x="904" y="226"/>
      <point x="904" y="162" type="curve" smooth="yes"/>
      <point x="904" y="81"/>
      <point x="860" y="44"/>
      <point x="721" y="44" type="curve" smooth="yes"/>
    </contour>
  </outline>
</glyph>
<glyph name="uni0467" format="2">
  <advance width="704"/>
  <unicode hex="0467"/>
  <anchor x="353" y="0" name="bottom"/>
  <anchor x="353" y="536" name="top"/>
  <outline>
    <contour>
      <point x="6" y="0" type="line"/>
      <point x="202" y="0" type="line"/>
      <point x="202" y="38" type="line"/>
      <point x="157" y="37"/>
      <point x="148" y="40"/>
      <point x="148" y="58" type="curve" smooth="yes"/>
      <point x="148" y="73"/>
      <point x="157" y="93"/>
      <point x="152" y="68" type="curve" smooth="yes"/>
      <point x="230" y="250" type="line"/>
      <point x="296" y="250" type="line"/>
      <point x="296" y="0" type="line"/>
      <point x="374" y="0" type="line"/>
      <point x="374" y="250" type="line"/>
      <point x="441" y="250" type="line"/>
      <point x="515" y="94" type="line" smooth="yes"/>
      <point x="521" y="85"/>
      <point x="529" y="66"/>
      <point x="529" y="59" type="curve" smooth="yes"/>
      <point x="529" y="40"/>
      <point x="519" y="37"/>
      <point x="467" y="38" type="curve"/>
      <point x="467" y="0" type="line"/>
      <point x="696" y="0" type="line"/>
      <point x="696" y="38" type="line"/>
      <point x="664" y="38"/>
      <point x="650" y="48"/>
      <point x="643" y="53" type="curve" smooth="yes"/>
      <point x="404" y="536" type="line"/>
      <point x="311" y="536" type="line"/>
      <point x="91" y="76" type="line" smooth="yes"/>
      <point x="78" y="50"/>
      <point x="66" y="38"/>
      <point x="31" y="38" type="curve" smooth="yes"/>
      <point x="6" y="38" type="line"/>
    </contour>
    <contour>
      <point x="247" y="293" type="line"/>
      <point x="300" y="417" type="line" smooth="yes"/>
      <point x="313" y="423"/>
      <point x="319" y="431"/>
      <point x="335" y="460" type="curve"/>
      <point x="347" y="440"/>
      <point x="352" y="443"/>
      <point x="374" y="405" type="curve" smooth="yes"/>
      <point x="422" y="293" type="line"/>
    </contour>
  </outline>
</glyph>
<glyph name="uni0482" format="2">
  <advance width="738"/>
  <unicode hex="0482"/>
  <outline>
    <contour>
      <point x="173" y="9" type="line"/>
      <point x="284" y="165" type="line"/>
      <point x="466" y="59" type="line"/>
      <point x="488" y="97" type="line"/>
      <point x="308" y="201" type="line"/>
      <point x="445" y="395" type="line"/>
      <point x="634" y="287" type="line"/>
      <point x="655" y="326" type="line"/>
      <point x="470" y="432" type="line"/>
      <point x="591" y="605" type="line"/>
      <point x="554" y="628" type="line"/>
      <point x="431" y="453" type="line"/>
      <point x="261" y="553" type="line"/>
      <point x="241" y="516" type="line"/>
      <point x="407" y="417" type="line"/>
      <point x="269" y="221" type="line"/>
      <point x="94" y="324" type="line"/>
      <point x="73" y="286" type="line"/>
      <point x="245" y="185" type="line"/>
      <point x="134" y="32" type="line"/>
    </contour>
  </outline>
</glyph>
<glyph name="uni049B" format="2">
  <advance width="758"/>
  <unicode hex="049B"/>
  <anchor x="379" y="0" name="bottom"/>
  <anchor x="379" y="536" name="top"/>
  <outline>
    <contour>
      <point x="702" y="-205" type="curve"/>
      <point x="743" y="-205" type="line"/>
      <point x="743" y="44" type="line"/>
      <point x="695" y="44" type="line" smooth="yes"/>
      <point x="659" y="44"/>
      <point x="630" y="24"/>
      <point x="586" y="104" type="curve" smooth="yes"/>
      <point x="525" y="208" type="line" smooth="yes"/>
      <point x="493" y="265"/>
      <point x="451" y="281"/>
      <point x="386" y="289" type="curve"/>
      <point x="421" y="307"/>
      <point x="445" y="340"/>
      <point x="481" y="392" type="curve" smooth="yes"/>
      <point x="523" y="451"/>
      <point x="553" y="496"/>
      <point x="596" y="496" type="curve" smooth="yes"/>
      <point x="646" y="496"/>
      <point x="654" y="466"/>
      <point x="655" y="427" type="curve"/>
      <point x="688" y="430"/>
      <point x="700" y="451"/>
      <point x="700" y="475" type="curve" smooth="yes"/>
      <point x="700" y="515"/>
      <point x="660" y="542"/>
      <point x="612" y="542" type="curve" smooth="yes"/>
      <point x="521" y="542"/>
      <point x="502" y="512"/>
      <point x="448" y="429" type="curve" smooth="yes"/>
      <point x="413" y="378"/>
      <point x="384" y="341"/>
      <point x="367" y="325" type="curve" smooth="yes"/>
      <point x="343" y="299"/>
      <point x="317" y="294"/>
      <point x="250" y="294" type="curve"/>
      <point x="250" y="427" type="line" smooth="yes"/>
      <point x="250" y="489"/>
      <point x="257" y="498"/>
      <point x="319" y="498" type="curve" smooth="yes"/>
      <point x="344" y="498" type="line"/>
      <point x="344" y="536" type="line"/>
      <point x="32" y="536" type="line"/>
      <point x="32" y="498" type="line"/>
      <point x="83" y="498" type="line" smooth="yes"/>
      <point x="128" y="498"/>
      <point x="144" y="489"/>
      <point x="144" y="430" type="curve" smooth="yes"/>
      <point x="144" y="108" type="line" smooth="yes"/>
      <point x="144" y="45"/>
      <point x="133" y="38"/>
      <point x="66" y="38" type="curve" smooth="yes"/>
      <point x="27" y="38" type="line"/>
      <point x="27" y="0" type="line"/>
      <point x="348" y="0" type="line"/>
      <point x="348" y="38" type="line"/>
      <point x="319" y="38" type="line" smooth="yes"/>
      <point x="258" y="38"/>
      <point x="250" y="47"/>
      <point x="250" y="106" type="curve" smooth="yes"/>
      <point x="250" y="253" type="line"/>
      <point x="356" y="253"/>
      <point x="390" y="250"/>
      <point x="422" y="193" type="curve" smooth="yes"/>
      <point x="489" y="68" type="line" smooth="yes"/>
      <point x="513" y="28"/>
      <point x="550" y="13"/>
      <point x="633" y="-3" type="curve" smooth="yes"/>
      <point x="686" y="-11"/>
      <point x="697" y="-35"/>
    </contour>
  </outline>
</glyph>
<glyph name="uni04AD" format="2">
  <advance width="620"/>
  <unicode hex="04AD"/>
  <anchor x="311" y="-205" name="bottom"/>
  <anchor x="311" y="536" name="top"/>
  <outline>
    <contour>
      <point x="445" y="-205" type="line"/>
      <point x="485" y="-205" type="line"/>
      <point x="485" y="44" type="line"/>
      <point x="407" y="44" type="line" smooth="yes"/>
      <point x="369" y="44"/>
      <point x="363" y="55"/>
      <point x="363" y="108" type="curve" smooth="yes"/>
      <point x="363" y="489" type="line"/>
      <point x="480" y="489" type="line" smooth="yes"/>
      <point x="530" y="489"/>
      <point x="541" y="477"/>
      <point x="545" y="426" type="curve" smooth="yes"/>
      <point x="551" y="361" type="line"/>
      <point x="602" y="361" type="line"/>
      <point x="596" y="536" type="line"/>
      <point x="25" y="536" type="line"/>
      <point x="18" y="361" type="line"/>
      <point x="69" y="361" type="line"/>
      <point x="76" y="425" type="line" smooth="yes"/>
      <point x="81" y="475"/>
      <point x="91" y="489"/>
      <point x="146" y="489" type="curve" smooth="yes"/>
      <point x="256" y="489" type="line"/>
      <point x="256" y="108" type="line" smooth="yes"/>
      <point x="256" y="48"/>
      <point x="243" y="38"/>
      <point x="175" y="38" type="curve" smooth="yes"/>
      <point x="140" y="38" type="line"/>
      <point x="140" y="0" type="line"/>
      <point x="414" y="0" type="line" smooth="yes"/>
      <point x="422" y="0"/>
      <point x="428" y="2"/>
      <point x="434" y="-18" type="curve" smooth="yes"/>
    </contour>
  </outline>
</glyph>
<glyph name="uni04B2" format="2">
  <advance width="855"/>
  <unicode hex="04B2"/>
  <anchor x="427" y="0" name="bottom"/>
  <anchor x="427" y="714" name="top"/>
  <outline>
    <contour>
      <point x="755" y="-210" type="curve"/>
      <point x="797" y="-210" type="line"/>
      <point x="797" y="44" type="line"/>
      <point x="760" y="44" type="line" smooth="yes"/>
      <point x="706" y="44"/>
      <point x="678" y="55"/>
      <point x="655" y="88" type="curve" smooth="yes"/>
      <point x="451" y="377" type="line"/>
      <point x="625" y="619" type="line" smooth="yes"/>
      <point x="658" y="664"/>
      <point x="669" y="676"/>
      <point x="717" y="676" type="curve" smooth="yes"/>
      <point x="754" y="676" type="line"/>
      <point x="754" y="714" type="line"/>
      <point x="492" y="714" type="line"/>
      <point x="492" y="676" type="line"/>
      <point x="523" y="676" type="line" smooth="yes"/>
      <point x="558" y="676"/>
      <point x="572" y="669"/>
      <point x="572" y="652" type="curve" smooth="yes"/>
      <point x="572" y="635"/>
      <point x="554" y="609"/>
      <point x="539" y="588" type="curve" smooth="yes"/>
      <point x="422" y="422" type="line"/>
      <point x="306" y="589" type="line" smooth="yes"/>
      <point x="288" y="614"/>
      <point x="276" y="630"/>
      <point x="276" y="649" type="curve" smooth="yes"/>
      <point x="276" y="663"/>
      <point x="283" y="676"/>
      <point x="326" y="676" type="curve" smooth="yes"/>
      <point x="347" y="676" type="line"/>
      <point x="347" y="714" type="line"/>
      <point x="34" y="714" type="line"/>
      <point x="34" y="676" type="line"/>
      <point x="75" y="676" type="line" smooth="yes"/>
      <point x="127" y="676"/>
      <point x="132" y="664"/>
      <point x="159" y="626" type="curve" smooth="yes"/>
      <point x="341" y="363" type="line"/>
      <point x="143" y="95" type="line" smooth="yes"/>
      <point x="113" y="57"/>
      <point x="100" y="38"/>
      <point x="51" y="38" type="curve" smooth="yes"/>
      <point x="10" y="38" type="line"/>
      <point x="10" y="0" type="line"/>
      <point x="293" y="0" type="line"/>
      <point x="293" y="38" type="line"/>
      <point x="250" y="38" type="line" smooth="yes"/>
      <point x="210" y="38"/>
      <point x="202" y="50"/>
      <point x="202" y="65" type="curve" smooth="yes"/>
      <point x="202" y="85"/>
      <point x="219" y="105"/>
      <point x="247" y="149" type="curve" smooth="yes"/>
      <point x="373" y="318" type="line"/>
      <point x="498" y="138" type="line" smooth="yes"/>
      <point x="528" y="99"/>
      <point x="536" y="84"/>
      <point x="536" y="66" type="curve" smooth="yes"/>
      <point x="536" y="41"/>
      <point x="515" y="38"/>
      <point x="458" y="38" type="curve" smooth="yes"/>
      <point x="460" y="38" type="line"/>
      <point x="460" y="0" type="line"/>
      <point x="720" y="0" type="line" smooth="yes"/>
      <point x="740" y="0"/>
      <point x="750" y="-25"/>
    </contour>
  </outline>
</glyph>
<glyph name="uni04B3" format="2">
  <advance width="747"/>
  <unicode hex="04B3"/>
  <anchor x="373" y="0" name="bottom"/>
  <anchor x="373" y="536" name="top"/>
  <outline>
    <contour>
      <point x="662" y="-205" type="line"/>
      <point x="702" y="-205" type="line"/>
      <point x="702" y="44" type="line"/>
      <point x="664" y="44" type="line" smooth="yes"/>
      <point x="619" y="44"/>
      <point x="608" y="48"/>
      <point x="575" y="89" type="curve" smooth="yes"/>
      <point x="405" y="292" type="line"/>
      <point x="536" y="442" type="line" smooth="yes"/>
      <point x="577" y="486"/>
      <point x="583" y="498"/>
      <point x="628" y="498" type="curve" smooth="yes"/>
      <point x="651" y="498" type="line"/>
      <point x="651" y="536" type="line"/>
      <point x="403" y="536" type="line"/>
      <point x="403" y="498" type="line"/>
      <point x="445" y="498" type="line" smooth="yes"/>
      <point x="481" y="498"/>
      <point x="492" y="492"/>
      <point x="492" y="477" type="curve" smooth="yes"/>
      <point x="492" y="464"/>
      <point x="476" y="447"/>
      <point x="455" y="424" type="curve" smooth="yes"/>
      <point x="374" y="326" type="line"/>
      <point x="292" y="426" type="line" smooth="yes"/>
      <point x="271" y="450"/>
      <point x="259" y="466"/>
      <point x="259" y="478" type="curve" smooth="yes"/>
      <point x="259" y="490"/>
      <point x="267" y="498"/>
      <point x="308" y="498" type="curve" smooth="yes"/>
      <point x="323" y="498" type="line"/>
      <point x="323" y="536" type="line"/>
      <point x="35" y="536" type="line"/>
      <point x="35" y="498" type="line"/>
      <point x="68" y="498" type="line" smooth="yes"/>
      <point x="112" y="498"/>
      <point x="126" y="487"/>
      <point x="158" y="448" type="curve" smooth="yes"/>
      <point x="296" y="281" type="line"/>
      <point x="133" y="91" type="line" smooth="yes"/>
      <point x="94" y="49"/>
      <point x="86" y="38"/>
      <point x="39" y="38" type="curve" smooth="yes"/>
      <point x="4" y="38" type="line"/>
      <point x="4" y="0" type="line"/>
      <point x="284" y="0" type="line"/>
      <point x="284" y="38" type="line"/>
      <point x="239" y="38" type="line" smooth="yes"/>
      <point x="191" y="38"/>
      <point x="181" y="47"/>
      <point x="181" y="60" type="curve" smooth="yes"/>
      <point x="181" y="71"/>
      <point x="196" y="90"/>
      <point x="215" y="112" type="curve" smooth="yes"/>
      <point x="325" y="248" type="line"/>
      <point x="432" y="120" type="line" smooth="yes"/>
      <point x="461" y="90"/>
      <point x="470" y="72"/>
      <point x="470" y="60" type="curve" smooth="yes"/>
      <point x="470" y="46"/>
      <point x="458" y="38"/>
      <point x="417" y="38" type="curve" smooth="yes"/>
      <point x="380" y="38" type="line"/>
      <point x="380" y="0" type="line"/>
      <point x="633" y="0" type="line" smooth="yes"/>
      <point x="644" y="0"/>
      <point x="643" y="6"/>
      <point x="649" y="1" type="curve" smooth="yes"/>
    </contour>
  </outline>
</glyph>
<glyph name="uni04D9" format="2">
  <advance width="638"/>
  <unicode hex="04D9"/>
  <anchor x="319" y="0" name="bottom"/>
  <anchor x="319" y="536" name="top"/>
  <outline>
    <contour>
      <point x="304" y="-10" type="curve" smooth="yes"/>
      <point x="475" y="-10"/>
      <point x="570" y="83"/>
      <point x="570" y="272" type="curve" smooth="yes"/>
      <point x="570" y="448"/>
      <point x="471" y="546"/>
      <point x="292" y="546" type="curve" smooth="yes"/>
      <point x="141" y="546"/>
      <point x="74" y="480"/>
      <point x="74" y="432" type="curve" smooth="yes"/>
      <point x="74" y="418"/>
      <point x="84" y="407"/>
      <point x="100" y="402" type="curve"/>
      <point x="128" y="457"/>
      <point x="180" y="495"/>
      <point x="268" y="495" type="curve" smooth="yes"/>
      <point x="385" y="495"/>
      <point x="462" y="418"/>
      <point x="462" y="266" type="curve"/>
      <point x="56" y="266" type="line"/>
      <point x="56" y="239" type="line" smooth="yes"/>
      <point x="56" y="78"/>
      <point x="154" y="-10"/>
    </contour>
    <contour>
      <point x="303" y="36" type="curve" smooth="yes"/>
      <point x="214" y="36"/>
      <point x="161" y="108"/>
      <point x="161" y="222" type="curve"/>
      <point x="458" y="222" type="line"/>
      <point x="452" y="107"/>
      <point x="411" y="36"/>
    </contour>
  </outline>
</glyph>
<glyph name="uni0503" format="2">
  <advance width="1022"/>
  <unicode hex="0503"/>
  <anchor x="512" y="0" name="bottom"/>
  <anchor x="512" y="760" name="top"/>
  <outline>
    <contour>
      <point x="270" y="-10" type="curve" smooth="yes"/>
      <point x="381" y="-10"/>
      <point x="444" y="51"/>
      <point x="474" y="117" type="curve"/>
      <point x="479" y="117" type="line"/>
      <point x="497" y="35"/>
      <point x="558" y="-10"/>
      <point x="672" y="-10" type="curve" smooth="yes"/>
      <point x="805" y="-10"/>
      <point x="893" y="48"/>
      <point x="893" y="122" type="curve" smooth="yes"/>
      <point x="893" y="243" type="line" smooth="yes"/>
      <point x="893" y="294"/>
      <point x="921" y="303"/>
      <point x="945" y="303" type="curve" smooth="yes"/>
      <point x="1005" y="303" type="line"/>
      <point x="1005" y="341" type="line"/>
      <point x="681" y="341" type="line"/>
      <point x="681" y="303" type="line"/>
      <point x="741" y="303" type="line" smooth="yes"/>
      <point x="766" y="303"/>
      <point x="787" y="294"/>
      <point x="787" y="245" type="curve" smooth="yes"/>
      <point x="787" y="123" type="line" smooth="yes"/>
      <point x="787" y="61"/>
      <point x="745" y="36"/>
      <point x="671" y="36" type="curve" smooth="yes"/>
      <point x="604" y="36"/>
      <point x="573" y="61"/>
      <point x="573" y="142" type="curve" smooth="yes"/>
      <point x="573" y="760" type="line"/>
      <point x="355" y="760" type="line"/>
      <point x="355" y="722" type="line"/>
      <point x="391" y="722" type="line" smooth="yes"/>
      <point x="442" y="722"/>
      <point x="466" y="718"/>
      <point x="466" y="656" type="curve" smooth="yes"/>
      <point x="466" y="559" type="line" smooth="yes"/>
      <point x="466" y="534"/>
      <point x="467" y="496"/>
      <point x="467" y="457" type="curve"/>
      <point x="462" y="457" type="line"/>
      <point x="430" y="513"/>
      <point x="363" y="545"/>
      <point x="261" y="545" type="curve" smooth="yes"/>
      <point x="99" y="545"/>
      <point x="31" y="430"/>
      <point x="31" y="267" type="curve" smooth="yes"/>
      <point x="31" y="100"/>
      <point x="118" y="-10"/>
    </contour>
    <contour>
      <point x="295" y="40" type="curve" smooth="yes"/>
      <point x="204" y="37"/>
      <point x="138" y="129"/>
      <point x="138" y="266" type="curve" smooth="yes"/>
      <point x="138" y="397"/>
      <point x="174" y="495"/>
      <point x="294" y="495" type="curve" smooth="yes"/>
      <point x="428" y="495"/>
      <point x="467" y="418"/>
      <point x="467" y="267" type="curve" smooth="yes"/>
      <point x="467" y="136"/>
      <point x="416" y="42"/>
    </contour>
  </outline>
</glyph>
<glyph name="uni0506" format="2">
  <advance width="717"/>
  <unicode hex="0506"/>
  <anchor x="359" y="0" name="bottom"/>
  <anchor x="359" y="714" name="top"/>
  <outline>
    <contour>
      <point x="664" y="-210" type="curve"/>
      <point x="700" y="-210" type="line"/>
      <point x="700" y="40" type="line"/>
      <point x="629" y="40" type="line" smooth="yes"/>
      <point x="589" y="40"/>
      <point x="570" y="40"/>
      <point x="570" y="104" type="curve" smooth="yes"/>
      <point x="570" y="164" type="line" smooth="yes"/>
      <point x="570" y="315"/>
      <point x="508" y="368"/>
      <point x="408" y="373" type="curve"/>
      <point x="511" y="394"/>
      <point x="568" y="448"/>
      <point x="568" y="549" type="curve" smooth="yes"/>
      <point x="568" y="649"/>
      <point x="484" y="726"/>
      <point x="297" y="726" type="curve" smooth="yes"/>
      <point x="142" y="726"/>
      <point x="33" y="679"/>
      <point x="33" y="598" type="curve" smooth="yes"/>
      <point x="33" y="553"/>
      <point x="72" y="534"/>
      <point x="127" y="534" type="curve"/>
      <point x="127" y="622"/>
      <point x="165" y="681"/>
      <point x="296" y="681" type="curve" smooth="yes"/>
      <point x="413" y="681"/>
      <point x="463" y="619"/>
      <point x="463" y="543" type="curve" smooth="yes"/>
      <point x="463" y="433"/>
      <point x="408" y="393"/>
      <point x="273" y="393" type="curve" smooth="yes"/>
      <point x="165" y="393" type="line"/>
      <point x="165" y="348" type="line"/>
      <point x="277" y="348" type="line" smooth="yes"/>
      <point x="417" y="348"/>
      <point x="463" y="294"/>
      <point x="463" y="167" type="curve" smooth="yes"/>
      <point x="463" y="0" type="line"/>
      <point x="618" y="0" type="line" smooth="yes"/>
      <point x="663" y="0"/>
      <point x="656" y="-27"/>
    </contour>
  </outline>
</glyph>
<glyph name="uni050C" format="2">
  <advance width="863"/>
  <unicode hex="050C"/>
  <anchor x="431" y="0" name="bottom"/>
  <anchor x="431" y="714" name="top"/>
  <outline>
    <contour>
      <point x="444" y="-10" type="curve" smooth="yes"/>
      <point x="661" y="-11"/>
      <point x="756" y="86"/>
      <point x="766" y="222" type="curve" smooth="yes"/>
      <point x="770" y="275"/>
      <point x="778" y="291"/>
      <point x="802" y="291" type="curve" smooth="yes"/>
      <point x="849" y="291" type="line"/>
      <point x="849" y="330" type="line"/>
      <point x="540" y="330" type="line"/>
      <point x="540" y="291" type="line"/>
      <point x="606" y="291" type="line" smooth="yes"/>
      <point x="641" y="291"/>
      <point x="658" y="272"/>
      <point x="657" y="216" type="curve" smooth="yes"/>
      <point x="656" y="76"/>
      <point x="557" y="38"/>
      <point x="446" y="38" type="curve" smooth="yes"/>
      <point x="253" y="38"/>
      <point x="184" y="179"/>
      <point x="184" y="358" type="curve" smooth="yes"/>
      <point x="184" y="590"/>
      <point x="289" y="678"/>
      <point x="487" y="678" type="curve" smooth="yes"/>
      <point x="617" y="678"/>
      <point x="660" y="643"/>
      <point x="660" y="540" type="curve"/>
      <point x="717" y="540"/>
      <point x="747" y="568"/>
      <point x="747" y="604" type="curve" smooth="yes"/>
      <point x="747" y="666"/>
      <point x="671" y="724"/>
      <point x="493" y="724" type="curve" smooth="yes"/>
      <point x="237" y="724"/>
      <point x="70" y="623"/>
      <point x="70" y="358" type="curve" smooth="yes"/>
      <point x="70" y="147"/>
      <point x="183" y="-8"/>
    </contour>
  </outline>
</glyph>
<glyph name="uni050E" format="2">
  <advance width="890"/>
  <unicode hex="050E"/>
  <anchor x="445" y="0" name="bottom"/>
  <anchor x="445" y="714" name="top"/>
  <outline>
    <contour>
      <point x="544" y="-10" type="curve" smooth="yes"/>
      <point x="693" y="-10"/>
      <point x="762" y="63"/>
      <point x="762" y="141" type="curve" smooth="yes"/>
      <point x="762" y="305" type="line" smooth="yes"/>
      <point x="762" y="347"/>
      <point x="774" y="357"/>
      <point x="804" y="357" type="curve" smooth="yes"/>
      <point x="872" y="357" type="line"/>
      <point x="872" y="396" type="line"/>
      <point x="541" y="396" type="line"/>
      <point x="541" y="357" type="line"/>
      <point x="611" y="357" type="line" smooth="yes"/>
      <point x="644" y="357"/>
      <point x="652" y="349"/>
      <point x="652" y="307" type="curve" smooth="yes"/>
      <point x="652" y="127" type="line" smooth="yes"/>
      <point x="652" y="73"/>
      <point x="616" y="36"/>
      <point x="541" y="36" type="curve" smooth="yes"/>
      <point x="464" y="36"/>
      <point x="420" y="63"/>
      <point x="420" y="189" type="curve" smooth="yes"/>
      <point x="420" y="670" type="line"/>
      <point x="563" y="670" type="line" smooth="yes"/>
      <point x="629" y="670"/>
      <point x="645" y="664"/>
      <point x="650" y="607" type="curve" smooth="yes"/>
      <point x="656" y="537" type="line"/>
      <point x="704" y="537" type="line"/>
      <point x="697" y="714" type="line"/>
      <point x="33" y="714" type="line"/>
      <point x="26" y="537" type="line"/>
      <point x="75" y="537" type="line"/>
      <point x="82" y="621" type="line" smooth="yes"/>
      <point x="87" y="663"/>
      <point x="111" y="670"/>
      <point x="153" y="670" type="curve" smooth="yes"/>
      <point x="310" y="670" type="line"/>
      <point x="310" y="200" type="line" smooth="yes"/>
      <point x="310" y="21"/>
      <point x="395" y="-10"/>
    </contour>
  </outline>
</glyph>
<glyph name="uni0511" format="2">
  <advance width="601"/>
  <unicode hex="0511"/>
  <anchor x="301" y="0" name="bottom"/>
  <anchor x="301" y="536" name="top"/>
  <outline>
    <contour>
      <point x="296" y="-10" type="curve" smooth="yes"/>
      <point x="465" y="-10"/>
      <point x="552" y="56"/>
      <point x="552" y="103" type="curve" smooth="yes"/>
      <point x="552" y="116"/>
      <point x="543" y="130"/>
      <point x="526" y="131" type="curve"/>
      <point x="501" y="85"/>
      <point x="420" y="42"/>
      <point x="321" y="42" type="curve" smooth="yes"/>
      <point x="213" y="42"/>
      <point x="167" y="92"/>
      <point x="167" y="156" type="curve" smooth="yes"/>
      <point x="167" y="234"/>
      <point x="221" y="263"/>
      <point x="301" y="263" type="curve" smooth="yes"/>
      <point x="362" y="263" type="line"/>
      <point x="362" y="310" type="line"/>
      <point x="301" y="310" type="line" smooth="yes"/>
      <point x="238" y="310"/>
      <point x="185" y="335"/>
      <point x="185" y="413" type="curve" smooth="yes"/>
      <point x="185" y="455"/>
      <point x="229" y="504"/>
      <point x="305" y="504" type="curve" smooth="yes"/>
      <point x="376" y="504"/>
      <point x="437" y="467"/>
      <point x="437" y="398" type="curve"/>
      <point x="498" y="398"/>
      <point x="514" y="418"/>
      <point x="514" y="446" type="curve" smooth="yes"/>
      <point x="514" y="511"/>
      <point x="434" y="546"/>
      <point x="308" y="546" type="curve" smooth="yes"/>
      <point x="165" y="546"/>
      <point x="77" y="493"/>
      <point x="77" y="407" type="curve" smooth="yes"/>
      <point x="77" y="332"/>
      <point x="129" y="302"/>
      <point x="189" y="290" type="curve"/>
      <point x="189" y="285" type="line"/>
      <point x="114" y="269"/>
      <point x="59" y="232"/>
      <point x="59" y="151" type="curve" smooth="yes"/>
      <point x="59" y="65"/>
      <point x="127" y="-10"/>
    </contour>
  </outline>
</glyph>
<glyph name="uni0527" format="2">
  <advance width="762"/>
  <unicode hex="0527"/>
  <anchor x="382" y="0" name="bottom"/>
  <anchor x="382" y="760" name="top"/>
  <outline>
    <contour>
      <point x="709" y="-205" type="line"/>
      <point x="750" y="-205" type="line"/>
      <point x="750" y="44" type="line"/>
      <point x="676" y="44" type="line" smooth="yes"/>
      <point x="639" y="44"/>
      <point x="631" y="59"/>
      <point x="631" y="106" type="curve" smooth="yes"/>
      <point x="631" y="361" type="line" smooth="yes"/>
      <point x="631" y="496"/>
      <point x="568" y="546"/>
      <point x="439" y="546" type="curve" smooth="yes"/>
      <point x="313" y="546"/>
      <point x="263" y="493"/>
      <point x="241" y="445" type="curve"/>
      <point x="236" y="445" type="line"/>
      <point x="239" y="465"/>
      <point x="240" y="501"/>
      <point x="240" y="539" type="curve" smooth="yes"/>
      <point x="240" y="760" type="line"/>
      <point x="23" y="760" type="line"/>
      <point x="23" y="722" type="line"/>
      <point x="52" y="722" type="line" smooth="yes"/>
      <point x="109" y="722"/>
      <point x="133" y="720"/>
      <point x="133" y="652" type="curve" smooth="yes"/>
      <point x="133" y="108" type="line" smooth="yes"/>
      <point x="133" y="43"/>
      <point x="117" y="38"/>
      <point x="53" y="38" type="curve" smooth="yes"/>
      <point x="22" y="38" type="line"/>
      <point x="22" y="0" type="line"/>
      <point x="344" y="0" type="line"/>
      <point x="344" y="38" type="line"/>
      <point x="318" y="38" type="line" smooth="yes"/>
      <point x="251" y="38"/>
      <point x="240" y="44"/>
      <point x="240" y="107" type="curve" smooth="yes"/>
      <point x="240" y="319" type="line" smooth="yes"/>
      <point x="240" y="421"/>
      <point x="300" y="488"/>
      <point x="401" y="488" type="curve" smooth="yes"/>
      <point x="486" y="488"/>
      <point x="524" y="442"/>
      <point x="524" y="337" type="curve" smooth="yes"/>
      <point x="524" y="0" type="line"/>
      <point x="663" y="0" type="line" smooth="yes"/>
      <point x="681" y="0"/>
      <point x="693" y="4"/>
      <point x="697" y="-5" type="curve" smooth="yes"/>
    </contour>
  </outline>
</glyph>
<glyph name="uni1AB2" format="2">
  <unicode hex="1AB2"/>
  <anchor x="1" y="536" name="_top"/>
  <anchor x="1" y="825" name="top"/>
  <outline>
    <contour>
      <point x="143" y="585" type="curve" smooth="yes"/>
      <point x="227" y="585"/>
      <point x="286" y="641"/>
      <point x="286" y="705" type="curve" smooth="yes"/>
      <point x="286" y="776"/>
      <point x="228" y="824"/>
      <point x="151" y="824" type="curve" smooth="yes"/>
      <point x="91" y="824"/>
      <point x="44" y="794"/>
      <point x="6" y="748" type="curve"/>
      <point x="-33" y="797"/>
      <point x="-87" y="825"/>
      <point x="-142" y="825" type="curve" smooth="yes"/>
      <point x="-226" y="825"/>
      <point x="-284" y="771"/>
      <point x="-284" y="706" type="curve" smooth="yes"/>
      <point x="-284" y="633"/>
      <point x="-226" y="587"/>
      <point x="-145" y="587" type="curve" smooth="yes"/>
      <point x="-96" y="587"/>
      <point x="-43" y="617"/>
      <point x="-4" y="664" type="curve"/>
      <point x="39" y="614"/>
      <point x="85" y="585"/>
    </contour>
    <contour>
      <point x="-146" y="637" type="curve" smooth="yes"/>
      <point x="-198" y="637"/>
      <point x="-231" y="671"/>
      <point x="-231" y="706" type="curve" smooth="yes"/>
      <point x="-231" y="742"/>
      <point x="-194" y="774"/>
      <point x="-143" y="774" type="curve" smooth="yes"/>
      <point x="-95" y="774"/>
      <point x="-64" y="743"/>
      <point x="-26" y="705" type="curve"/>
      <point x="-62" y="670"/>
      <point x="-97" y="637"/>
    </contour>
    <contour>
      <point x="142" y="636" type="curve" smooth="yes"/>
      <point x="94" y="636"/>
      <point x="64" y="668"/>
      <point x="29" y="703" type="curve"/>
      <point x="73" y="744"/>
      <point x="99" y="771"/>
      <point x="142" y="771" type="curve" smooth="yes"/>
      <point x="194" y="771"/>
      <point x="232" y="747"/>
      <point x="232" y="705" type="curve" smooth="yes"/>
      <point x="232" y="660"/>
      <point x="195" y="636"/>
    </contour>
  </outline>
</glyph>
<glyph name="uni1D00" format="2">
  <advance width="717"/>
  <unicode hex="1D00"/>
  <anchor x="359" y="0" name="bottom"/>
  <anchor x="359" y="536" name="top"/>
  <outline>
    <contour>
      <point x="9" y="0" type="line"/>
      <point x="255" y="0" type="line"/>
      <point x="255" y="40" type="line"/>
      <point x="205" y="40" type="line" smooth="yes"/>
      <point x="173" y="40"/>
      <point x="154" y="42"/>
      <point x="154" y="59" type="curve" smooth="yes"/>
      <point x="154" y="74"/>
      <point x="163" y="98"/>
      <point x="170" y="109" type="curve" smooth="yes"/>
      <point x="203" y="174" type="line"/>
      <point x="464" y="174" type="line"/>
      <point x="497" y="110" type="line" smooth="yes"/>
      <point x="506" y="95"/>
      <point x="517" y="76"/>
      <point x="517" y="64" type="curve" smooth="yes"/>
      <point x="517" y="48"/>
      <point x="513" y="40"/>
      <point x="482" y="40" type="curve" smooth="yes"/>
      <point x="435" y="40" type="line"/>
      <point x="435" y="0" type="line"/>
      <point x="708" y="0" type="line"/>
      <point x="708" y="40" type="line"/>
      <point x="677" y="40" type="line" smooth="yes"/>
      <point x="653" y="40"/>
      <point x="636" y="46"/>
      <point x="618" y="84" type="curve" smooth="yes"/>
      <point x="401" y="536" type="line"/>
      <point x="312" y="536" type="line"/>
      <point x="109" y="110" type="line" smooth="yes"/>
      <point x="86" y="61"/>
      <point x="72" y="40"/>
      <point x="34" y="40" type="curve" smooth="yes"/>
      <point x="9" y="40" type="line"/>
    </contour>
    <contour>
      <point x="218" y="212" type="line" smooth="yes"/>
      <point x="301" y="412" type="line" smooth="yes"/>
      <point x="305" y="402"/>
      <point x="321" y="434"/>
      <point x="333" y="460" type="curve"/>
      <point x="335" y="460" type="line"/>
      <point x="344" y="446"/>
      <point x="359" y="425"/>
      <point x="372" y="405" type="curve" smooth="yes"/>
      <point x="451" y="212" type="line"/>
    </contour>
  </outline>
</glyph>
<glyph name="uni1D04" format="2">
  <advance width="635"/>
  <unicode hex="1D04"/>
  <anchor x="318" y="0" name="bottom"/>
  <anchor x="318" y="536" name="top"/>
  <outline>
    <contour>
      <point x="370" y="-9" type="curve" smooth="yes"/>
      <point x="527" y="-9"/>
      <point x="575" y="55"/>
      <point x="575" y="73" type="curve" smooth="yes"/>
      <point x="575" y="78"/>
      <point x="568" y="92"/>
      <point x="556" y="97" type="curve"/>
      <point x="530" y="66"/>
      <point x="478" y="40"/>
      <point x="383" y="40" type="curve" smooth="yes"/>
      <point x="229" y="40"/>
      <point x="170" y="130"/>
      <point x="170" y="269" type="curve" smooth="yes"/>
      <point x="170" y="390"/>
      <point x="227" y="503"/>
      <point x="362" y="503" type="curve" smooth="yes"/>
      <point x="475" y="503"/>
      <point x="501" y="451"/>
      <point x="501" y="408" type="curve"/>
      <point x="549" y="408"/>
      <point x="580" y="436"/>
      <point x="580" y="466" type="curve" smooth="yes"/>
      <point x="580" y="493"/>
      <point x="524" y="542"/>
      <point x="369" y="542" type="curve" smooth="yes"/>
      <point x="165" y="542"/>
      <point x="64" y="407"/>
      <point x="64" y="270" type="curve" smooth="yes"/>
      <point x="64" y="122"/>
      <point x="156" y="-9"/>
    </contour>
  </outline>
</glyph>
<glyph name="uni1D06" format="2">
  <advance width="751"/>
  <unicode hex="1D06"/>
  <anchor x="377" y="0" name="bottom"/>
  <anchor x="377" y="536" name="top"/>
  <outline>
    <contour>
      <point x="50" y="0" type="line"/>
      <point x="355" y="0" type="line" smooth="yes"/>
      <point x="576" y="0"/>
      <point x="682" y="113"/>
      <point x="682" y="272" type="curve" smooth="yes"/>
      <point x="682" y="433"/>
      <point x="565" y="536"/>
      <point x="352" y="536" type="curve" smooth="yes"/>
      <point x="50" y="536" type="line"/>
      <point x="50" y="496" type="line"/>
      <point x="94" y="496" type="line" smooth="yes"/>
      <point x="137" y="496"/>
      <point x="145" y="489"/>
      <point x="145" y="436" type="curve" smooth="yes"/>
      <point x="145" y="298" type="line"/>
      <point x="45" y="298" type="line"/>
      <point x="45" y="256" type="line"/>
      <point x="145" y="256" type="line"/>
      <point x="145" y="100" type="line" smooth="yes"/>
      <point x="145" y="48"/>
      <point x="141" y="40"/>
      <point x="92" y="40" type="curve" smooth="yes"/>
      <point x="50" y="40" type="line"/>
    </contour>
    <contour>
      <point x="248" y="46" type="line"/>
      <point x="248" y="256" type="line"/>
      <point x="432" y="256" type="line"/>
      <point x="432" y="298" type="line"/>
      <point x="248" y="298" type="line"/>
      <point x="248" y="490" type="line"/>
      <point x="336" y="490" type="line" smooth="yes"/>
      <point x="504" y="490"/>
      <point x="574" y="409"/>
      <point x="574" y="272" type="curve" smooth="yes"/>
      <point x="574" y="123"/>
      <point x="506" y="46"/>
      <point x="335" y="46" type="curve" smooth="yes"/>
    </contour>
  </outline>
</glyph>
<glyph name="uni1D07" format="2">
  <advance width="619"/>
  <unicode hex="1D07"/>
  <anchor x="310" y="0" name="bottom"/>
  <anchor x="310" y="536" name="top"/>
  <outline>
    <contour>
      <point x="38" y="0" type="line"/>
      <point x="575" y="0" type="line"/>
      <point x="581" y="144" type="line"/>
      <point x="538" y="144" type="line"/>
      <point x="531" y="73" type="line" smooth="yes"/>
      <point x="531" y="62"/>
      <point x="511" y="46"/>
      <point x="459" y="46" type="curve" smooth="yes"/>
      <point x="237" y="46" type="line"/>
      <point x="237" y="259" type="line"/>
      <point x="474" y="259" type="line"/>
      <point x="474" y="300" type="line"/>
      <point x="237" y="300" type="line"/>
      <point x="237" y="490" type="line"/>
      <point x="439" y="490" type="line" smooth="yes"/>
      <point x="478" y="490"/>
      <point x="494" y="479"/>
      <point x="499" y="439" type="curve" smooth="yes"/>
      <point x="504" y="392" type="line"/>
      <point x="549" y="392" type="line"/>
      <point x="544" y="536" type="line"/>
      <point x="38" y="536" type="line"/>
      <point x="38" y="496" type="line"/>
      <point x="80" y="496" type="line" smooth="yes"/>
      <point x="126" y="496"/>
      <point x="134" y="489"/>
      <point x="134" y="435" type="curve" smooth="yes"/>
      <point x="134" y="100" type="line" smooth="yes"/>
      <point x="134" y="49"/>
      <point x="127" y="40"/>
      <point x="79" y="40" type="curve" smooth="yes"/>
      <point x="38" y="40" type="line"/>
    </contour>
  </outline>
</glyph>
<glyph name="uni1D09" format="2">
  <advance width="378"/>
  <unicode hex="1D09"/>
  <anchor x="188" y="-184" name="bottom"/>
  <anchor x="188" y="536" name="top"/>
  <outline>
    <contour>
      <point x="38" y="0" type="line"/>
      <point x="337" y="0" type="line"/>
      <point x="337" y="40" type="line"/>
      <point x="294" y="40" type="line" smooth="yes"/>
      <point x="248" y="40"/>
      <point x="241" y="47"/>
      <point x="241" y="102" type="curve" smooth="yes"/>
      <point x="241" y="434" type="line" smooth="yes"/>
      <point x="241" y="489"/>
      <point x="248" y="496"/>
      <point x="294" y="496" type="curve" smooth="yes"/>
      <point x="336" y="496" type="line"/>
      <point x="336" y="536" type="line"/>
      <point x="38" y="536" type="line"/>
      <point x="38" y="496" type="line"/>
      <point x="82" y="496" type="line" smooth="yes"/>
      <point x="128" y="496"/>
      <point x="137" y="489"/>
      <point x="137" y="434" type="curve" smooth="yes"/>
      <point x="137" y="102" type="line" smooth="yes"/>
      <point x="137" y="47"/>
      <point x="129" y="40"/>
      <point x="82" y="40" type="curve" smooth="yes"/>
      <point x="38" y="40" type="line"/>
    </contour>
    <contour>
      <point x="191" y="-184" type="curve" smooth="yes"/>
      <point x="227" y="-184"/>
      <point x="254" y="-167"/>
      <point x="254" y="-126" type="curve" smooth="yes"/>
      <point x="254" y="-86"/>
      <point x="227" y="-69"/>
      <point x="191" y="-69" type="curve" smooth="yes"/>
      <point x="154" y="-69"/>
      <point x="127" y="-86"/>
      <point x="127" y="-126" type="curve" smooth="yes"/>
      <point x="127" y="-167"/>
      <point x="154" y="-184"/>
    </contour>
  </outline>
</glyph>
<glyph name="uni1D1B" format="2">
  <advance width="619"/>
  <unicode hex="1D1B"/>
  <anchor x="310" y="0" name="bottom"/>
  <anchor x="310" y="536" name="top"/>
  <outline>
    <contour>
      <point x="146" y="0" type="line"/>
      <point x="465" y="0" type="line"/>
      <point x="465" y="40" type="line"/>
      <point x="430" y="40" type="line" smooth="yes"/>
      <point x="360" y="40"/>
      <point x="357" y="49"/>
      <point x="357" y="105" type="curve" smooth="yes"/>
      <point x="357" y="494" type="line"/>
      <point x="483" y="494" type="line" smooth="yes"/>
      <point x="529" y="494"/>
      <point x="537" y="483"/>
      <point x="542" y="457" type="curve" smooth="yes"/>
      <point x="551" y="384" type="line"/>
      <point x="593" y="384" type="line"/>
      <point x="588" y="536" type="line"/>
      <point x="28" y="536" type="line"/>
      <point x="22" y="384" type="line"/>
      <point x="64" y="384" type="line"/>
      <point x="73" y="460" type="line" smooth="yes"/>
      <point x="77" y="481"/>
      <point x="86" y="494"/>
      <point x="130" y="494" type="curve" smooth="yes"/>
      <point x="253" y="494" type="line"/>
      <point x="253" y="109" type="line" smooth="yes"/>
      <point x="253" y="49"/>
      <point x="247" y="40"/>
      <point x="180" y="40" type="curve" smooth="yes"/>
      <point x="146" y="40" type="line"/>
    </contour>
  </outline>
</glyph>
<glyph name="uni1D25" format="2">
  <advance width="564"/>
  <unicode hex="1D25"/>
  <anchor x="282" y="0" name="bottom"/>
  <anchor x="282" y="536" name="top"/>
  <outline>
    <contour>
      <point x="113" y="-5" type="curve" smooth="yes"/>
      <point x="187" y="-5"/>
      <point x="207" y="15"/>
      <point x="278" y="114" type="curve"/>
      <point x="348" y="12"/>
      <point x="370" y="-5"/>
      <point x="436" y="-5" type="curve" smooth="yes"/>
      <point x="490" y="-5"/>
      <point x="515" y="18"/>
      <point x="515" y="68" type="curve" smooth="yes"/>
      <point x="515" y="89"/>
      <point x="502" y="100"/>
      <point x="459" y="100" type="curve"/>
      <point x="459" y="69"/>
      <point x="454" y="59"/>
      <point x="431" y="59" type="curve" smooth="yes"/>
      <point x="401" y="59"/>
      <point x="375" y="83"/>
      <point x="332" y="153" type="curve"/>
      <point x="385" y="209"/>
      <point x="438" y="298"/>
      <point x="438" y="388" type="curve" smooth="yes"/>
      <point x="438" y="479"/>
      <point x="387" y="546"/>
      <point x="278" y="546" type="curve" smooth="yes"/>
      <point x="170" y="546"/>
      <point x="116" y="479"/>
      <point x="116" y="388" type="curve" smooth="yes"/>
      <point x="116" y="300"/>
      <point x="180" y="202"/>
      <point x="226" y="153" type="curve"/>
      <point x="185" y="89"/>
      <point x="153" y="59"/>
      <point x="120" y="59" type="curve" smooth="yes"/>
      <point x="100" y="59"/>
      <point x="95" y="66"/>
      <point x="95" y="100" type="curve"/>
      <point x="56" y="100"/>
      <point x="40" y="93"/>
      <point x="40" y="67" type="curve" smooth="yes"/>
      <point x="40" y="29"/>
      <point x="61" y="-5"/>
    </contour>
  </outline>
</glyph>
<glyph name="uni1D6D" format="2">
  <advance width="735"/>
  <unicode hex="1D6D"/>
  <outline>
    <contour>
      <point x="308" y="-10" type="curve" smooth="yes"/>
      <point x="414" y="-10"/>
      <point x="470" y="33"/>
      <point x="509" y="102" type="curve"/>
      <point x="513" y="102" type="line"/>
      <point x="531" y="0" type="line"/>
      <point x="716" y="0" type="line"/>
      <point x="716" y="38" type="line"/>
      <point x="692" y="38" type="line" smooth="yes"/>
      <point x="623" y="38"/>
      <point x="611" y="47"/>
      <point x="611" y="121" type="curve" smooth="yes"/>
      <point x="611" y="760" type="line"/>
      <point x="392" y="760" type="line"/>
      <point x="392" y="722" type="line"/>
      <point x="424" y="722" type="line" smooth="yes"/>
      <point x="482" y="722"/>
      <point x="503" y="718"/>
      <point x="503" y="656" type="curve" smooth="yes"/>
      <point x="503" y="548" type="line" smooth="yes"/>
      <point x="503" y="538"/>
      <point x="504" y="471"/>
      <point x="504" y="433" type="curve"/>
      <point x="499" y="433" type="line"/>
      <point x="467" y="489"/>
      <point x="401" y="521"/>
      <point x="298" y="521" type="curve" smooth="yes"/>
      <point x="137" y="521"/>
      <point x="68" y="406"/>
      <point x="68" y="255" type="curve" smooth="yes"/>
      <point x="68" y="100"/>
      <point x="160" y="-10"/>
    </contour>
    <contour>
      <point x="333" y="40" type="curve" smooth="yes"/>
      <point x="241" y="37"/>
      <point x="176" y="129"/>
      <point x="176" y="254" type="curve" smooth="yes"/>
      <point x="176" y="374"/>
      <point x="212" y="471"/>
      <point x="331" y="471" type="curve" smooth="yes"/>
      <point x="465" y="471"/>
      <point x="504" y="395"/>
      <point x="504" y="255" type="curve" smooth="yes"/>
      <point x="504" y="129"/>
      <point x="454" y="42"/>
    </contour>
    <contour>
      <point x="328" y="558" type="curve"/>
      <point x="376" y="558" type="line"/>
      <point x="380" y="586"/>
      <point x="391" y="617"/>
      <point x="438" y="617" type="curve" smooth="yes"/>
      <point x="514" y="617"/>
      <point x="582" y="568"/>
      <point x="662" y="568" type="curve" smooth="yes"/>
      <point x="743" y="568"/>
      <point x="773" y="613"/>
      <point x="776" y="679" type="curve"/>
      <point x="728" y="679" type="line"/>
      <point x="725" y="650"/>
      <point x="711" y="627"/>
      <point x="669" y="627" type="curve" smooth="yes"/>
      <point x="599" y="627"/>
      <point x="536" y="676"/>
      <point x="448" y="676" type="curve" smooth="yes"/>
      <point x="366" y="676"/>
      <point x="331" y="620"/>
    </contour>
  </outline>
</glyph>
<glyph name="uni1D73" format="2">
  <advance width="548"/>
  <unicode hex="1D73"/>
  <anchor x="274" y="536" name="top"/>
  <anchor x="274" y="0" name="bottom"/>
  <outline>
    <contour>
      <point x="-46" y="182" type="curve"/>
      <point x="3" y="182" type="line"/>
      <point x="6" y="209"/>
      <point x="17" y="242"/>
      <point x="65" y="242" type="curve" smooth="yes"/>
      <point x="139" y="242"/>
      <point x="212" y="188"/>
      <point x="293" y="188" type="curve" smooth="yes"/>
      <point x="375" y="188"/>
      <point x="403" y="238"/>
      <point x="407" y="304" type="curve"/>
      <point x="359" y="304" type="line"/>
      <point x="356" y="277"/>
      <point x="340" y="250"/>
      <point x="300" y="250" type="curve" smooth="yes"/>
      <point x="225" y="250"/>
      <point x="160" y="304"/>
      <point x="74" y="304" type="curve" smooth="yes"/>
      <point x="-10" y="304"/>
      <point x="-42" y="243"/>
    </contour>
    <component base="uni027E"/>
  </outline>
</glyph>
<glyph name="uni1D7C" format="2">
  <advance width="401"/>
  <unicode hex="1D7C"/>
  <anchor x="200" y="536" name="top"/>
  <anchor x="200" y="0" name="bottom"/>
  <outline>
    <contour>
      <point x="6" y="291" type="line"/>
      <point x="372" y="291" type="line"/>
      <point x="372" y="334" type="line"/>
      <point x="6" y="334" type="line"/>
    </contour>
    <component base="iotaLatin"/>
  </outline>
</glyph>
<glyph name="uni1D7D" format="2">
  <advance width="735"/>
  <unicode hex="1D7D"/>
  <anchor x="367" y="536" name="top"/>
  <anchor x="698" y="536" name="topright"/>
  <anchor x="367" y="-231" name="bottom"/>
  <outline>
    <contour>
      <point x="16" y="248" type="line"/>
      <point x="756" y="248" type="line"/>
      <point x="756" y="294" type="line"/>
      <point x="16" y="294" type="line"/>
    </contour>
    <component base="p"/>
  </outline>
</glyph>
<glyph name="uni1D93" format="2">
  <advance width="597"/>
  <unicode hex="1D93"/>
  <anchor x="301" y="536" name="top"/>
  <anchor x="301" y="0" name="bottom"/>
  <outline>
    <contour>
      <point x="614" y="-203" type="curve" smooth="yes"/>
      <point x="661" y="-203"/>
      <point x="694" y="-184"/>
      <point x="694" y="-159" type="curve" smooth="yes"/>
      <point x="694" y="-148"/>
      <point x="689" y="-136"/>
      <point x="677" y="-133" type="curve"/>
      <point x="663" y="-135"/>
      <point x="652" y="-148"/>
      <point x="625" y="-148" type="curve" smooth="yes"/>
      <point x="578" y="-148"/>
      <point x="552" y="-128"/>
      <point x="552" y="-77" type="curve" smooth="yes"/>
      <point x="552" y="102" type="line"/>
      <point x="503" y="74" type="line"/>
      <point x="503" y="-81" type="line" smooth="yes"/>
      <point x="503" y="-139"/>
      <point x="529" y="-203"/>
    </contour>
    <component base="uni025B"/>
  </outline>
</glyph>
<glyph name="uni1D98" format="2">
  <advance width="561"/>
  <unicode hex="1D98"/>
  <outline>
    <contour>
      <point x="122" y="-203" type="curve" smooth="yes"/>
      <point x="169" y="-203"/>
      <point x="202" y="-184"/>
      <point x="202" y="-159" type="curve" smooth="yes"/>
      <point x="202" y="-148"/>
      <point x="197" y="-136"/>
      <point x="185" y="-133" type="curve"/>
      <point x="171" y="-135"/>
      <point x="160" y="-148"/>
      <point x="133" y="-148" type="curve" smooth="yes"/>
      <point x="86" y="-148"/>
      <point x="60" y="-128"/>
      <point x="60" y="-77" type="curve" smooth="yes"/>
      <point x="60" y="81" type="line"/>
      <point x="12" y="88" type="line"/>
      <point x="12" y="-81" type="line" smooth="yes"/>
      <point x="12" y="-139"/>
      <point x="38" y="-203"/>
    </contour>
    <component base="uniAB4D" xOffset="28"/>
  </outline>
</glyph>
<glyph name="uni1D9A" format="2">
  <advance width="565"/>
  <unicode hex="1D9A"/>
  <outline>
    <contour>
      <point x="149" y="-203" type="curve" smooth="yes"/>
      <point x="195" y="-203"/>
      <point x="229" y="-184"/>
      <point x="229" y="-159" type="curve" smooth="yes"/>
      <point x="229" y="-148"/>
      <point x="224" y="-136"/>
      <point x="211" y="-133" type="curve"/>
      <point x="198" y="-135"/>
      <point x="187" y="-148"/>
      <point x="160" y="-148" type="curve" smooth="yes"/>
      <point x="113" y="-148"/>
      <point x="87" y="-128"/>
      <point x="87" y="-77" type="curve" smooth="yes"/>
      <point x="87" y="33" type="line"/>
      <point x="123" y="7"/>
      <point x="181" y="-10"/>
      <point x="263" y="-10" type="curve" smooth="yes"/>
      <point x="379" y="-10"/>
      <point x="521" y="29"/>
      <point x="521" y="162" type="curve" smooth="yes"/>
      <point x="521" y="253"/>
      <point x="457" y="307"/>
      <point x="283" y="310" type="curve"/>
      <point x="512" y="496" type="line"/>
      <point x="512" y="536" type="line"/>
      <point x="89" y="536" type="line"/>
      <point x="79" y="391" type="line"/>
      <point x="123" y="391" type="line"/>
      <point x="128" y="431" type="line" smooth="yes"/>
      <point x="134" y="465"/>
      <point x="152" y="479"/>
      <point x="197" y="479" type="curve" smooth="yes"/>
      <point x="410" y="479" type="line"/>
      <point x="198" y="298" type="line"/>
      <point x="198" y="267" type="line"/>
      <point x="247" y="267" type="line" smooth="yes"/>
      <point x="366" y="267"/>
      <point x="413" y="225"/>
      <point x="413" y="159" type="curve" smooth="yes"/>
      <point x="413" y="77"/>
      <point x="340" y="34"/>
      <point x="253" y="34" type="curve" smooth="yes"/>
      <point x="155" y="34"/>
      <point x="111" y="79"/>
      <point x="111" y="149" type="curve"/>
      <point x="68" y="149"/>
      <point x="39" y="141"/>
      <point x="39" y="107" type="curve" smooth="yes"/>
      <point x="39" y="-81" type="line" smooth="yes"/>
      <point x="39" y="-139"/>
      <point x="65" y="-203"/>
    </contour>
  </outline>
</glyph>
<glyph name="dottedgrave" format="2">
  <unicode hex="1DC0"/>
  <anchor x="14" y="536" name="_top"/>
  <anchor x="14" y="809" name="top"/>
  <outline>
    <contour>
      <point x="40" y="629" type="curve"/>
      <point x="72" y="629" type="line"/>
      <point x="72" y="641" type="line"/>
      <point x="55" y="679"/>
      <point x="28" y="759"/>
      <point x="17" y="805" type="curve"/>
      <point x="-66" y="805" type="line"/>
      <point x="-66" y="795" type="line"/>
      <point x="-49" y="753"/>
      <point x="2" y="677"/>
    </contour>
    <contour>
      <point x="-98" y="630" type="curve" smooth="yes"/>
      <point x="-74" y="630"/>
      <point x="-55" y="645"/>
      <point x="-55" y="690" type="curve" smooth="yes"/>
      <point x="-55" y="732"/>
      <point x="-74" y="749"/>
      <point x="-98" y="749" type="curve" smooth="yes"/>
      <point x="-121" y="749"/>
      <point x="-141" y="732"/>
      <point x="-141" y="690" type="curve" smooth="yes"/>
      <point x="-141" y="645"/>
      <point x="-121" y="630"/>
    </contour>
    <contour>
      <point x="125" y="685" type="curve" smooth="yes"/>
      <point x="148" y="685"/>
      <point x="167" y="700"/>
      <point x="167" y="745" type="curve" smooth="yes"/>
      <point x="167" y="787"/>
      <point x="148" y="804"/>
      <point x="125" y="804" type="curve" smooth="yes"/>
      <point x="101" y="804"/>
      <point x="80" y="787"/>
      <point x="80" y="745" type="curve" smooth="yes"/>
      <point x="80" y="700"/>
      <point x="101" y="685"/>
    </contour>
  </outline>
</glyph>
<glyph name="isbelowcomb" format="2">
  <unicode hex="1DD0"/>
  <anchor x="2" y="0" name="_bottom"/>
  <anchor x="2" y="-278" name="bottom"/>
  <outline>
    <contour>
      <point x="99" y="-278" type="curve" smooth="yes"/>
      <point x="162" y="-278"/>
      <point x="215" y="-247"/>
      <point x="215" y="-190" type="curve" smooth="yes"/>
      <point x="215" y="-152"/>
      <point x="196" y="-124"/>
      <point x="168" y="-99" type="curve"/>
      <point x="113" y="-99" type="line"/>
      <point x="141" y="-127"/>
      <point x="159" y="-158"/>
      <point x="159" y="-174" type="curve" smooth="yes"/>
      <point x="159" y="-220"/>
      <point x="136" y="-224"/>
      <point x="107" y="-224" type="curve" smooth="yes"/>
      <point x="78" y="-224"/>
      <point x="58" y="-215"/>
      <point x="15" y="-190" type="curve" smooth="yes"/>
      <point x="-20" y="-169"/>
      <point x="-40" y="-161"/>
      <point x="-81" y="-161" type="curve" smooth="yes"/>
      <point x="-102" y="-161"/>
      <point x="-119" y="-166"/>
      <point x="-135" y="-172" type="curve"/>
      <point x="-76" y="0" type="line"/>
      <point x="-125" y="0" type="line"/>
      <point x="-213" y="-268" type="line"/>
      <point x="-167" y="-268" type="line"/>
      <point x="-152" y="-230"/>
      <point x="-121" y="-215"/>
      <point x="-88" y="-215" type="curve" smooth="yes"/>
      <point x="-63" y="-215"/>
      <point x="-45" y="-222"/>
      <point x="-7" y="-244" type="curve" smooth="yes"/>
      <point x="31" y="-264"/>
      <point x="57" y="-278"/>
    </contour>
  </outline>
</glyph>
<glyph name="arrowheadrightheaddownbelow" format="2">
  <unicode hex="1DFF"/>
  <anchor x="0" y="0" name="_bottom"/>
  <anchor x="0" y="-240" name="bottom"/>
  <outline>
    <contour>
      <point x="81" y="-240" type="curve"/>
      <point x="151" y="-240" type="line"/>
      <point x="170" y="-180"/>
      <point x="194" y="-123"/>
      <point x="237" y="-58" type="curve"/>
      <point x="237" y="-48" type="line"/>
      <point x="175" y="-48" type="line"/>
      <point x="154" y="-73"/>
      <point x="131" y="-108"/>
      <point x="116" y="-142" type="curve"/>
      <point x="99" y="-103"/>
      <point x="71" y="-65"/>
      <point x="56" y="-48" type="curve"/>
      <point x="-5" y="-48" type="line"/>
      <point x="-5" y="-58" type="line"/>
      <point x="39" y="-124"/>
      <point x="70" y="-179"/>
    </contour>
    <contour>
      <point x="-237" y="-240" type="line"/>
      <point x="-225" y="-240" type="line"/>
      <point x="-145" y="-203"/>
      <point x="-91" y="-178"/>
      <point x="-17" y="-169" type="curve"/>
      <point x="-17" y="-111" type="line"/>
      <point x="-89" y="-96"/>
      <point x="-147" y="-76"/>
      <point x="-225" y="-40" type="curve"/>
      <point x="-237" y="-40" type="line"/>
      <point x="-237" y="-91" type="line"/>
      <point x="-207" y="-108"/>
      <point x="-166" y="-127"/>
      <point x="-124" y="-140" type="curve"/>
      <point x="-172" y="-154"/>
      <point x="-217" y="-177"/>
      <point x="-237" y="-189" type="curve"/>
    </contour>
  </outline>
</glyph>
<glyph name="longsdiagonalstroke" format="2">
  <advance width="380"/>
  <unicode hex="1E9C"/>
  <anchor x="190" y="0" name="bottom"/>
  <anchor x="190" y="770" name="top"/>
  <outline>
    <contour>
      <point x="14" y="0" type="line"/>
      <point x="383" y="0" type="line"/>
      <point x="383" y="38" type="line"/>
      <point x="304" y="38" type="line" smooth="yes"/>
      <point x="257" y="38"/>
      <point x="238" y="40"/>
      <point x="238" y="100" type="curve" smooth="yes"/>
      <point x="238" y="340" type="line"/>
      <point x="361" y="408" type="line"/>
      <point x="361" y="463" type="line"/>
      <point x="238" y="395" type="line"/>
      <point x="238" y="594" type="line" smooth="yes"/>
      <point x="238" y="690"/>
      <point x="284" y="727"/>
      <point x="341" y="727" type="curve" smooth="yes"/>
      <point x="396" y="727"/>
      <point x="408" y="671"/>
      <point x="408" y="636" type="curve"/>
      <point x="464" y="636"/>
      <point x="482" y="659"/>
      <point x="482" y="693" type="curve" smooth="yes"/>
      <point x="482" y="725"/>
      <point x="440" y="770"/>
      <point x="337" y="770" type="curve" smooth="yes"/>
      <point x="200" y="770"/>
      <point x="132" y="695"/>
      <point x="132" y="582" type="curve" smooth="yes"/>
      <point x="132" y="335" type="line"/>
      <point x="38" y="286" type="line"/>
      <point x="38" y="230" type="line"/>
      <point x="132" y="279" type="line"/>
      <point x="132" y="100" type="line" smooth="yes"/>
      <point x="132" y="40"/>
      <point x="111" y="38"/>
      <point x="70" y="38" type="curve" smooth="yes"/>
      <point x="14" y="38" type="line"/>
    </contour>
  </outline>
</glyph>
<glyph name="Yloop" format="2">
  <advance width="811"/>
  <unicode hex="1EFE"/>
  <anchor x="405" y="0" name="bottom"/>
  <anchor x="405" y="714" name="top"/>
  <outline>
    <contour>
      <point x="245" y="-110" type="curve" smooth="yes"/>
      <point x="317" y="-110"/>
      <point x="363" y="-66"/>
      <point x="397" y="-15" type="curve" smooth="yes"/>
      <point x="704" y="601" type="line" smooth="yes"/>
      <point x="733" y="659"/>
      <point x="746" y="676"/>
      <point x="785" y="676" type="curve" smooth="yes"/>
      <point x="807" y="676" type="line"/>
      <point x="807" y="714" type="line"/>
      <point x="554" y="714" type="line"/>
      <point x="554" y="676" type="line"/>
      <point x="583" y="676" type="line" smooth="yes"/>
      <point x="632" y="676"/>
      <point x="652" y="662"/>
      <point x="652" y="632" type="curve" smooth="yes"/>
      <point x="652" y="621"/>
      <point x="645" y="600"/>
      <point x="624" y="554" type="curve" smooth="yes"/>
      <point x="522" y="361" type="line" smooth="yes"/>
      <point x="501" y="326"/>
      <point x="470" y="269"/>
      <point x="446" y="223" type="curve"/>
      <point x="425" y="253"/>
      <point x="409" y="284"/>
      <point x="389" y="314" type="curve" smooth="yes"/>
      <point x="230" y="570" type="line" smooth="yes"/>
      <point x="215" y="595"/>
      <point x="200" y="625"/>
      <point x="200" y="641" type="curve" smooth="yes"/>
      <point x="200" y="676"/>
      <point x="223" y="676"/>
      <point x="270" y="676" type="curve" smooth="yes"/>
      <point x="308" y="676" type="line"/>
      <point x="308" y="714" type="line"/>
      <point x="0" y="714" type="line"/>
      <point x="0" y="676" type="line"/>
      <point x="24" y="676" type="line" smooth="yes"/>
      <point x="43" y="676"/>
      <point x="63" y="664"/>
      <point x="93" y="611" type="curve" smooth="yes"/>
      <point x="370" y="171" type="line"/>
      <point x="346" y="165"/>
      <point x="323" y="163"/>
      <point x="292" y="163" type="curve" smooth="yes"/>
      <point x="195" y="162"/>
      <point x="111" y="113"/>
      <point x="111" y="21" type="curve" smooth="yes"/>
      <point x="111" y="-63"/>
      <point x="166" y="-110"/>
    </contour>
    <contour>
      <point x="244" y="-56" type="curve" smooth="yes"/>
      <point x="224" y="-56"/>
      <point x="174" y="-45"/>
      <point x="174" y="26" type="curve" smooth="yes"/>
      <point x="174" y="83"/>
      <point x="231" y="114"/>
      <point x="301" y="114" type="curve" smooth="yes"/>
      <point x="325" y="114"/>
      <point x="349" y="114"/>
      <point x="367" y="112" type="curve"/>
      <point x="345" y="59" type="line" smooth="yes"/>
      <point x="312" y="-24"/>
      <point x="296" y="-56"/>
    </contour>
  </outline>
</glyph>
<glyph name="uni1FBD" format="2">
  <advance width="269"/>
  <unicode hex="1FBD"/>
  <anchor x="140" y="536" name="_top"/>
  <outline>
    <contour>
      <point x="78" y="546" type="line"/>
      <point x="178" y="564"/>
      <point x="202" y="595"/>
      <point x="202" y="658" type="curve" smooth="yes"/>
      <point x="202" y="699"/>
      <point x="177" y="728"/>
      <point x="141" y="728" type="curve" smooth="yes"/>
      <point x="103" y="728"/>
      <point x="86" y="707"/>
      <point x="86" y="683" type="curve" smooth="yes"/>
      <point x="86" y="635"/>
      <point x="150" y="650"/>
      <point x="150" y="624" type="curve" smooth="yes"/>
      <point x="150" y="607"/>
      <point x="132" y="583"/>
      <point x="78" y="577" type="curve"/>
    </contour>
  </outline>
</glyph>
<glyph name="uni1FCE" format="2">
  <advance width="485"/>
  <unicode hex="1FCE"/>
  <anchor x="230" y="536" name="_top"/>
  <anchor x="230" y="728" name="top"/>
  <outline>
    <contour>
      <point x="85" y="546" type="line"/>
      <point x="187" y="564"/>
      <point x="209" y="599"/>
      <point x="209" y="658" type="curve" smooth="yes"/>
      <point x="209" y="699"/>
      <point x="184" y="728"/>
      <point x="149" y="728" type="curve" smooth="yes"/>
      <point x="111" y="728"/>
      <point x="93" y="704"/>
      <point x="93" y="686" type="curve" smooth="yes"/>
      <point x="93" y="634"/>
      <point x="157" y="649"/>
      <point x="157" y="624" type="curve" smooth="yes"/>
      <point x="157" y="607"/>
      <point x="139" y="583"/>
      <point x="85" y="577" type="curve"/>
    </contour>
    <contour>
      <point x="244" y="565" type="line"/>
      <point x="281" y="565" type="line"/>
      <point x="320" y="609"/>
      <point x="363" y="673"/>
      <point x="375" y="702" type="curve"/>
      <point x="375" y="713" type="line"/>
      <point x="286" y="713" type="line"/>
      <point x="279" y="675"/>
      <point x="257" y="611"/>
      <point x="244" y="580" type="curve"/>
    </contour>
  </outline>
</glyph>
<glyph name="uni1FDE" format="2">
  <advance width="485"/>
  <unicode hex="1FDE"/>
  <anchor x="257" y="536" name="_top"/>
  <anchor x="257" y="728" name="top"/>
  <outline>
    <contour>
      <point x="227" y="546" type="curve"/>
      <point x="227" y="577" type="line"/>
      <point x="173" y="583"/>
      <point x="156" y="607"/>
      <point x="156" y="624" type="curve" smooth="yes"/>
      <point x="156" y="649"/>
      <point x="220" y="634"/>
      <point x="220" y="686" type="curve" smooth="yes"/>
      <point x="220" y="704"/>
      <point x="202" y="728"/>
      <point x="163" y="728" type="curve" smooth="yes"/>
      <point x="129" y="728"/>
      <point x="103" y="699"/>
      <point x="103" y="658" type="curve" smooth="yes"/>
      <point x="103" y="599"/>
      <point x="126" y="564"/>
    </contour>
    <contour>
      <point x="279" y="565" type="line"/>
      <point x="315" y="565" type="line"/>
      <point x="354" y="609"/>
      <point x="397" y="673"/>
      <point x="409" y="702" type="curve"/>
      <point x="409" y="713" type="line"/>
      <point x="320" y="713" type="line"/>
      <point x="313" y="675"/>
      <point x="292" y="611"/>
      <point x="279" y="580" type="curve"/>
    </contour>
  </outline>
</glyph>
<glyph name="uni1FDF" format="2">
  <advance width="485"/>
  <unicode hex="1FDF"/>
  <anchor x="236" y="536" name="_top"/>
  <anchor x="236" y="845" name="top"/>
  <outline>
    <contour>
      <point x="41" y="739" type="curve"/>
      <point x="87" y="739" type="line"/>
      <point x="90" y="756"/>
      <point x="102" y="790"/>
      <point x="144" y="790" type="curve" smooth="yes"/>
      <point x="202" y="790"/>
      <point x="263" y="760"/>
      <point x="329" y="760" type="curve" smooth="yes"/>
      <point x="394" y="760"/>
      <point x="427" y="798"/>
      <point x="431" y="855" type="curve"/>
      <point x="385" y="855" type="line"/>
      <point x="381" y="835"/>
      <point x="369" y="808"/>
      <point x="331" y="808" type="curve" smooth="yes"/>
      <point x="280" y="808"/>
      <point x="227" y="840"/>
      <point x="154" y="840" type="curve" smooth="yes"/>
      <point x="85" y="840"/>
      <point x="46" y="790"/>
    </contour>
    <contour>
      <point x="310" y="570" type="curve"/>
      <point x="310" y="602" type="line"/>
      <point x="256" y="612"/>
      <point x="234" y="621"/>
      <point x="234" y="647" type="curve" smooth="yes"/>
      <point x="234" y="670"/>
      <point x="287" y="653"/>
      <point x="287" y="698" type="curve" smooth="yes"/>
      <point x="287" y="705"/>
      <point x="274" y="733"/>
      <point x="231" y="733" type="curve" smooth="yes"/>
      <point x="197" y="733"/>
      <point x="172" y="711"/>
      <point x="172" y="673" type="curve" smooth="yes"/>
      <point x="172" y="636"/>
      <point x="197" y="583"/>
    </contour>
  </outline>
</glyph>
<glyph name="underscoredbl" format="2">
  <advance width="477"/>
  <unicode hex="2017"/>
  <outline>
    <contour>
      <point x="-6" y="-112" type="line"/>
      <point x="483" y="-112" type="line"/>
      <point x="483" y="-94" type="line"/>
      <point x="-6" y="-94" type="line"/>
    </contour>
    <contour>
      <point x="-6" y="-201" type="line"/>
      <point x="483" y="-201" type="line"/>
      <point x="483" y="-183" type="line"/>
      <point x="-6" y="-183" type="line"/>
    </contour>
  </outline>
</glyph>
<glyph name="quotereversed" format="2">
  <advance width="294"/>
  <unicode hex="201B"/>
  <outline>
    <contour>
      <point x="209" y="453" type="curve"/>
      <point x="209" y="485" type="line"/>
      <point x="150" y="496"/>
      <point x="110" y="543"/>
      <point x="110" y="575" type="curve" smooth="yes"/>
      <point x="110" y="594"/>
      <point x="188" y="589"/>
      <point x="188" y="657" type="curve" smooth="yes"/>
      <point x="188" y="698"/>
      <point x="159" y="714"/>
      <point x="128" y="714" type="curve" smooth="yes"/>
      <point x="82" y="714"/>
      <point x="44" y="690"/>
      <point x="44" y="624" type="curve" smooth="yes"/>
      <point x="44" y="556"/>
      <point x="96" y="472"/>
    </contour>
  </outline>
</glyph>
<glyph name="daggerdbl" format="2">
  <advance width="534"/>
  <unicode hex="2021"/>
  <outline>
    <contour>
      <point x="221" y="-111" type="line"/>
      <point x="317" y="-111" type="line"/>
      <point x="286" y="66" type="line"/>
      <point x="492" y="47" type="line"/>
      <point x="492" y="138" type="line"/>
      <point x="286" y="110" type="line"/>
      <point x="320" y="243" type="line"/>
      <point x="313" y="229"/>
      <point x="295" y="245"/>
      <point x="284" y="324" type="curve"/>
      <point x="295" y="405"/>
      <point x="314" y="420"/>
      <point x="320" y="407" type="curve"/>
      <point x="286" y="527" type="line"/>
      <point x="492" y="510" type="line"/>
      <point x="492" y="601" type="line"/>
      <point x="286" y="570" type="line"/>
      <point x="317" y="760" type="line"/>
      <point x="221" y="760" type="line"/>
      <point x="248" y="570" type="line"/>
      <point x="42" y="601" type="line"/>
      <point x="42" y="510" type="line"/>
      <point x="248" y="527" type="line"/>
      <point x="215" y="408" type="line"/>
      <point x="223" y="420"/>
      <point x="240" y="406"/>
      <point x="250" y="326" type="curve"/>
      <point x="240" y="244"/>
      <point x="224" y="229"/>
      <point x="217" y="242" type="curve"/>
      <point x="249" y="110" type="line"/>
      <point x="42" y="138" type="line"/>
      <point x="42" y="47" type="line"/>
      <point x="249" y="66" type="line"/>
    </contour>
  </outline>
</glyph>
<glyph name="bullet" format="2">
  <advance width="428"/>
  <unicode hex="2022"/>
  <outline>
    <contour>
      <point x="215" y="210" type="curve" smooth="yes"/>
      <point x="303" y="210"/>
      <point x="371" y="246"/>
      <point x="371" y="356" type="curve" smooth="yes"/>
      <point x="371" y="467"/>
      <point x="303" y="502"/>
      <point x="215" y="502" type="curve" smooth="yes"/>
      <point x="125" y="502"/>
      <point x="58" y="467"/>
      <point x="58" y="356" type="curve" smooth="yes"/>
      <point x="58" y="246"/>
      <point x="125" y="210"/>
    </contour>
  </outline>
</glyph>
<glyph name="doubleprimeReversed" format="2">
  <advance width="437"/>
  <unicode hex="2036"/>
  <outline>
    <contour>
      <point x="363" y="479" type="line"/>
      <point x="417" y="479" type="line"/>
      <point x="369" y="714" type="line"/>
      <point x="244" y="714" type="line"/>
    </contour>
    <contour>
      <point x="139" y="479" type="line"/>
      <point x="193" y="479" type="line"/>
      <point x="145" y="714" type="line"/>
      <point x="20" y="714" type="line"/>
    </contour>
  </outline>
</glyph>
<glyph name="tironiansignet" format="2">
  <advance width="653"/>
  <unicode hex="204A"/>
  <outline>
    <contour>
      <point x="301" y="-177" type="line"/>
      <point x="358" y="-177" type="line"/>
      <point x="553" y="475" type="line"/>
      <point x="553" y="554" type="line"/>
      <point x="464" y="543"/>
      <point x="386" y="534"/>
      <point x="236" y="534" type="curve" smooth="yes"/>
      <point x="146" y="534"/>
      <point x="102" y="544"/>
      <point x="66" y="564" type="curve"/>
      <point x="61" y="548"/>
      <point x="55" y="528"/>
      <point x="55" y="504" type="curve" smooth="yes"/>
      <point x="55" y="447"/>
      <point x="84" y="408"/>
      <point x="199" y="408" type="curve" smooth="yes"/>
      <point x="309" y="408"/>
      <point x="429" y="423"/>
      <point x="487" y="435" type="curve"/>
    </contour>
  </outline>
</glyph>
<glyph name="blackrightbullet" format="2">
  <advance width="717"/>
  <unicode hex="204D"/>
  <outline>
    <contour>
      <point x="50" y="188" type="line"/>
      <point x="484" y="188" type="line" smooth="yes"/>
      <point x="621" y="188"/>
      <point x="669" y="259"/>
      <point x="669" y="366" type="curve" smooth="yes"/>
      <point x="669" y="473"/>
      <point x="621" y="544"/>
      <point x="484" y="544" type="curve" smooth="yes"/>
      <point x="50" y="544" type="line"/>
      <point x="50" y="511" type="line"/>
      <point x="113" y="511" type="line" smooth="yes"/>
      <point x="146" y="511"/>
      <point x="164" y="497"/>
      <point x="164" y="487" type="curve" smooth="yes"/>
      <point x="164" y="245" type="line" smooth="yes"/>
      <point x="164" y="239"/>
      <point x="144" y="222"/>
      <point x="113" y="222" type="curve" smooth="yes"/>
      <point x="50" y="222" type="line"/>
    </contour>
    <contour>
      <point x="217" y="229" type="line"/>
      <point x="217" y="503" type="line"/>
      <point x="350" y="503" type="line"/>
      <point x="350" y="229" type="line"/>
    </contour>
  </outline>
</glyph>
<glyph name="closeup" format="2">
  <advance width="874"/>
  <unicode hex="2050"/>
  <outline>
    <contour>
      <point x="67" y="532" type="curve"/>
      <point x="131" y="532" type="line"/>
      <point x="189" y="648"/>
      <point x="296" y="680"/>
      <point x="440" y="680" type="curve" smooth="yes"/>
      <point x="585" y="680"/>
      <point x="689" y="646"/>
      <point x="746" y="532" type="curve"/>
      <point x="811" y="532" type="line"/>
      <point x="746" y="676"/>
      <point x="607" y="726"/>
      <point x="440" y="726" type="curve" smooth="yes"/>
      <point x="273" y="726"/>
      <point x="132" y="676"/>
    </contour>
    <contour>
      <point x="440" y="-10" type="curve" smooth="yes"/>
      <point x="607" y="-10"/>
      <point x="746" y="48"/>
      <point x="811" y="190" type="curve"/>
      <point x="746" y="190" type="line"/>
      <point x="689" y="76"/>
      <point x="585" y="36"/>
      <point x="440" y="36" type="curve" smooth="yes"/>
      <point x="296" y="36"/>
      <point x="189" y="74"/>
      <point x="131" y="190" type="curve"/>
      <point x="67" y="190" type="line"/>
      <point x="132" y="48"/>
      <point x="273" y="-10"/>
    </contour>
  </outline>
</glyph>
<glyph name="fivedotpunctuation" format="2">
  <advance width="828"/>
  <unicode hex="2059"/>
  <outline>
    <contour>
      <point x="651" y="425" type="curve" smooth="yes"/>
      <point x="686" y="425"/>
      <point x="715" y="439"/>
      <point x="715" y="487" type="curve" smooth="yes"/>
      <point x="715" y="534"/>
      <point x="686" y="546"/>
      <point x="651" y="546" type="curve" smooth="yes"/>
      <point x="619" y="546"/>
      <point x="590" y="534"/>
      <point x="590" y="487" type="curve" smooth="yes"/>
      <point x="590" y="439"/>
      <point x="619" y="425"/>
    </contour>
    <contour>
      <point x="173" y="-14" type="curve" smooth="yes"/>
      <point x="208" y="-14"/>
      <point x="237" y="1"/>
      <point x="237" y="49" type="curve" smooth="yes"/>
      <point x="237" y="96"/>
      <point x="208" y="108"/>
      <point x="173" y="108" type="curve" smooth="yes"/>
      <point x="141" y="108"/>
      <point x="112" y="96"/>
      <point x="112" y="49" type="curve" smooth="yes"/>
      <point x="112" y="1"/>
      <point x="141" y="-14"/>
    </contour>
    <contour>
      <point x="650" y="-14" type="curve" smooth="yes"/>
      <point x="684" y="-14"/>
      <point x="713" y="0"/>
      <point x="713" y="49" type="curve" smooth="yes"/>
      <point x="713" y="96"/>
      <point x="684" y="108"/>
      <point x="650" y="108" type="curve" smooth="yes"/>
      <point x="617" y="108"/>
      <point x="589" y="96"/>
      <point x="589" y="49" type="curve" smooth="yes"/>
      <point x="589" y="0"/>
      <point x="617" y="-14"/>
    </contour>
    <contour>
      <point x="414" y="203" type="curve" smooth="yes"/>
      <point x="448" y="203"/>
      <point x="477" y="218"/>
      <point x="477" y="266" type="curve" smooth="yes"/>
      <point x="477" y="313"/>
      <point x="448" y="325"/>
      <point x="414" y="325" type="curve" smooth="yes"/>
      <point x="381" y="325"/>
      <point x="353" y="313"/>
      <point x="353" y="266" type="curve" smooth="yes"/>
      <point x="353" y="218"/>
      <point x="381" y="203"/>
    </contour>
    <contour>
      <point x="175" y="425" type="curve" smooth="yes"/>
      <point x="209" y="425"/>
      <point x="238" y="440"/>
      <point x="238" y="487" type="curve" smooth="yes"/>
      <point x="238" y="534"/>
      <point x="209" y="546"/>
      <point x="175" y="546" type="curve" smooth="yes"/>
      <point x="142" y="546"/>
      <point x="114" y="534"/>
      <point x="114" y="487" type="curve" smooth="yes"/>
      <point x="114" y="440"/>
      <point x="142" y="425"/>
    </contour>
  </outline>
</glyph>
<glyph name="sevensuperior" format="2">
  <advance width="485"/>
  <unicode hex="2077"/>
  <outline>
    <contour>
      <point x="131" y="388" type="line"/>
      <point x="209" y="388" type="line"/>
      <point x="419" y="769" type="line"/>
      <point x="419" y="815" type="line"/>
      <point x="63" y="815" type="line"/>
      <point x="59" y="696" type="line"/>
      <point x="93" y="696" type="line"/>
      <point x="99" y="725" type="line" smooth="yes"/>
      <point x="102" y="744"/>
      <point x="107" y="757"/>
      <point x="133" y="757" type="curve" smooth="yes"/>
      <point x="364" y="757" type="line"/>
    </contour>
  </outline>
</glyph>
<glyph name="uni20B5" format="2">
  <advance width="735"/>
  <unicode hex="20B5"/>
  <anchor x="414" y="714" name="top"/>
  <anchor x="713" y="714" name="topright"/>
  <anchor x="414" y="0" name="bottom"/>
  <outline>
    <contour>
      <point x="400" y="-80" type="line"/>
      <point x="446" y="-80" type="line"/>
      <point x="446" y="780" type="line"/>
      <point x="400" y="780" type="line"/>
    </contour>
    <component base="C"/>
  </outline>
</glyph>
<glyph name="addressedtothesubject" format="2">
  <advance width="817"/>
  <unicode hex="2101"/>
  <outline>
    <contour>
      <point x="165" y="380" type="curve" smooth="yes"/>
      <point x="239" y="380"/>
      <point x="279" y="425"/>
      <point x="299" y="453" type="curve"/>
      <point x="302" y="453" type="line"/>
      <point x="314" y="386" type="line"/>
      <point x="419" y="386" type="line"/>
      <point x="419" y="415" type="line"/>
      <point x="376" y="415"/>
      <point x="369" y="427"/>
      <point x="369" y="471" type="curve" smooth="yes"/>
      <point x="369" y="621" type="line" smooth="yes"/>
      <point x="369" y="680"/>
      <point x="329" y="720"/>
      <point x="223" y="720" type="curve" smooth="yes"/>
      <point x="118" y="720"/>
      <point x="81" y="674"/>
      <point x="81" y="646" type="curve" smooth="yes"/>
      <point x="81" y="624"/>
      <point x="104" y="621"/>
      <point x="144" y="621" type="curve"/>
      <point x="144" y="664"/>
      <point x="157" y="686"/>
      <point x="219" y="686" type="curve" smooth="yes"/>
      <point x="291" y="686"/>
      <point x="295" y="660"/>
      <point x="295" y="611" type="curve" smooth="yes"/>
      <point x="295" y="582" type="line"/>
      <point x="237" y="580" type="line" smooth="yes"/>
      <point x="110" y="575"/>
      <point x="49" y="549"/>
      <point x="49" y="481" type="curve" smooth="yes"/>
      <point x="49" y="407"/>
      <point x="106" y="380"/>
    </contour>
    <contour>
      <point x="190" y="420" type="curve" smooth="yes"/>
      <point x="140" y="420"/>
      <point x="125" y="452"/>
      <point x="125" y="485" type="curve" smooth="yes"/>
      <point x="125" y="531"/>
      <point x="157" y="547"/>
      <point x="253" y="549" type="curve" smooth="yes"/>
      <point x="295" y="551" type="line"/>
      <point x="295" y="494" type="line" smooth="yes"/>
      <point x="295" y="477"/>
      <point x="256" y="420"/>
    </contour>
    <contour>
      <point x="224" y="0" type="line"/>
      <point x="280" y="0" type="line"/>
      <point x="751" y="714" type="line"/>
      <point x="696" y="714" type="line"/>
    </contour>
    <contour>
      <point x="660" y="-12" type="curve" smooth="yes"/>
      <point x="759" y="-12"/>
      <point x="799" y="39"/>
      <point x="799" y="81" type="curve" smooth="yes"/>
      <point x="799" y="152"/>
      <point x="758" y="164"/>
      <point x="695" y="184" type="curve" smooth="yes"/>
      <point x="628" y="206"/>
      <point x="613" y="218"/>
      <point x="613" y="249" type="curve" smooth="yes"/>
      <point x="613" y="274"/>
      <point x="630" y="292"/>
      <point x="676" y="292" type="curve" smooth="yes"/>
      <point x="707" y="292"/>
      <point x="729" y="291"/>
      <point x="729" y="243" type="curve"/>
      <point x="770" y="243"/>
      <point x="782" y="250"/>
      <point x="782" y="276" type="curve" smooth="yes"/>
      <point x="782" y="297"/>
      <point x="749" y="326"/>
      <point x="676" y="326" type="curve" smooth="yes"/>
      <point x="596" y="326"/>
      <point x="548" y="296"/>
      <point x="548" y="235" type="curve" smooth="yes"/>
      <point x="548" y="171"/>
      <point x="592" y="153"/>
      <point x="648" y="136" type="curve" smooth="yes"/>
      <point x="707" y="115"/>
      <point x="730" y="101"/>
      <point x="730" y="69" type="curve" smooth="yes"/>
      <point x="730" y="42"/>
      <point x="706" y="19"/>
      <point x="658" y="19" type="curve" smooth="yes"/>
      <point x="602" y="19"/>
      <point x="595" y="43"/>
      <point x="595" y="90" type="curve"/>
      <point x="557" y="90"/>
      <point x="541" y="75"/>
      <point x="541" y="50" type="curve" smooth="yes"/>
      <point x="541" y="12"/>
      <point x="571" y="-12"/>
    </contour>
  </outline>
</glyph>
<glyph name="planckconstant" format="2">
  <advance width="707"/>
  <unicode hex="210E"/>
  <outline>
    <contour>
      <point x="527" y="-10" type="curve" smooth="yes"/>
      <point x="589" y="-10"/>
      <point x="635" y="10"/>
      <point x="700" y="56" type="curve"/>
      <point x="679" y="84" type="line"/>
      <point x="652" y="69"/>
      <point x="610" y="41"/>
      <point x="579" y="41" type="curve" smooth="yes"/>
      <point x="547" y="41"/>
      <point x="531" y="63"/>
      <point x="531" y="86" type="curve" smooth="yes"/>
      <point x="531" y="106"/>
      <point x="537" y="120"/>
      <point x="543" y="137" type="curve" smooth="yes"/>
      <point x="589" y="344" type="line" smooth="yes"/>
      <point x="598" y="379"/>
      <point x="604" y="402"/>
      <point x="604" y="437" type="curve" smooth="yes"/>
      <point x="604" y="495"/>
      <point x="575" y="543"/>
      <point x="501" y="543" type="curve" smooth="yes"/>
      <point x="402" y="543"/>
      <point x="321" y="477"/>
      <point x="257" y="393" type="curve"/>
      <point x="249" y="393" type="line"/>
      <point x="267" y="454"/>
      <point x="281" y="516"/>
      <point x="288" y="542" type="curve" smooth="yes"/>
      <point x="337" y="760" type="line"/>
      <point x="119" y="760" type="line"/>
      <point x="111" y="723" type="line"/>
      <point x="153" y="723" type="line" smooth="yes"/>
      <point x="199" y="723"/>
      <point x="214" y="717"/>
      <point x="214" y="683" type="curve" smooth="yes"/>
      <point x="214" y="669"/>
      <point x="209" y="644"/>
      <point x="208" y="636" type="curve" smooth="yes"/>
      <point x="60" y="0" type="line"/>
      <point x="165" y="0" type="line"/>
      <point x="219" y="240" type="line" smooth="yes"/>
      <point x="231" y="293"/>
      <point x="252" y="336"/>
      <point x="308" y="398" type="curve" smooth="yes"/>
      <point x="362" y="455"/>
      <point x="418" y="484"/>
      <point x="447" y="484" type="curve" smooth="yes"/>
      <point x="481" y="484"/>
      <point x="494" y="459"/>
      <point x="494" y="423" type="curve" smooth="yes"/>
      <point x="494" y="392"/>
      <point x="488" y="365"/>
      <point x="484" y="349" type="curve" smooth="yes"/>
      <point x="438" y="150" type="line" smooth="yes"/>
      <point x="432" y="129"/>
      <point x="425" y="108"/>
      <point x="425" y="75" type="curve" smooth="yes"/>
      <point x="425" y="23"/>
      <point x="463" y="-10"/>
    </contour>
  </outline>
</glyph>
<glyph name="servicemark" format="2">
  <advance width="898"/>
  <unicode hex="2120"/>
  <outline>
    <contour>
      <point x="390" y="368" type="line"/>
      <point x="519" y="368" type="line"/>
      <point x="519" y="390" type="line"/>
      <point x="494" y="390"/>
      <point x="471" y="393"/>
      <point x="471" y="416" type="curve" smooth="yes"/>
      <point x="471" y="677" type="line"/>
      <point x="602" y="368" type="line"/>
      <point x="625" y="368" type="line"/>
      <point x="748" y="679" type="line"/>
      <point x="748" y="412" type="line" smooth="yes"/>
      <point x="748" y="395"/>
      <point x="726" y="390"/>
      <point x="706" y="390" type="curve"/>
      <point x="706" y="368" type="line"/>
      <point x="844" y="368" type="line"/>
      <point x="844" y="390" type="line"/>
      <point x="831" y="390" type="line" smooth="yes"/>
      <point x="811" y="390"/>
      <point x="790" y="393"/>
      <point x="790" y="416" type="curve" smooth="yes"/>
      <point x="790" y="668" type="line" smooth="yes"/>
      <point x="790" y="690"/>
      <point x="811" y="691"/>
      <point x="831" y="691" type="curve" smooth="yes"/>
      <point x="844" y="691" type="line"/>
      <point x="844" y="714" type="line"/>
      <point x="739" y="714" type="line"/>
      <point x="620" y="414" type="line"/>
      <point x="497" y="714" type="line"/>
      <point x="390" y="714" type="line"/>
      <point x="390" y="691" type="line"/>
      <point x="403" y="691" type="line" smooth="yes"/>
      <point x="419" y="691"/>
      <point x="446" y="688"/>
      <point x="446" y="668" type="curve" smooth="yes"/>
      <point x="446" y="414" type="line" smooth="yes"/>
      <point x="446" y="393"/>
      <point x="419" y="390"/>
      <point x="403" y="390" type="curve" smooth="yes"/>
      <point x="390" y="390" type="line"/>
    </contour>
    <contour>
      <point x="183" y="359" type="curve" smooth="yes"/>
      <point x="279" y="359"/>
      <point x="338" y="396"/>
      <point x="338" y="463" type="curve" smooth="yes"/>
      <point x="338" y="521"/>
      <point x="296" y="543"/>
      <point x="207" y="565" type="curve" smooth="yes"/>
      <point x="138" y="582"/>
      <point x="97" y="584"/>
      <point x="97" y="633" type="curve" smooth="yes"/>
      <point x="97" y="680"/>
      <point x="131" y="701"/>
      <point x="190" y="701" type="curve" smooth="yes"/>
      <point x="263" y="701"/>
      <point x="288" y="665"/>
      <point x="288" y="620" type="curve"/>
      <point x="309" y="620"/>
      <point x="331" y="626"/>
      <point x="331" y="652" type="curve" smooth="yes"/>
      <point x="331" y="688"/>
      <point x="279" y="722"/>
      <point x="192" y="722" type="curve" smooth="yes"/>
      <point x="102" y="722"/>
      <point x="57" y="688"/>
      <point x="57" y="626" type="curve" smooth="yes"/>
      <point x="57" y="559"/>
      <point x="117" y="541"/>
      <point x="182" y="530" type="curve" smooth="yes"/>
      <point x="262" y="509"/>
      <point x="297" y="502"/>
      <point x="297" y="457" type="curve" smooth="yes"/>
      <point x="297" y="396"/>
      <point x="238" y="382"/>
      <point x="184" y="382" type="curve" smooth="yes"/>
      <point x="115" y="382"/>
      <point x="85" y="408"/>
      <point x="85" y="473" type="curve"/>
      <point x="57" y="473"/>
      <point x="45" y="456"/>
      <point x="45" y="435" type="curve" smooth="yes"/>
      <point x="45" y="396"/>
      <point x="88" y="359"/>
    </contour>
  </outline>
</glyph>
<glyph name="informationsource" format="2">
  <advance width="426"/>
  <unicode hex="2139"/>
  <outline>
    <contour>
      <point x="21" y="0" type="line"/>
      <point x="406" y="0" type="line"/>
      <point x="406" y="53" type="line"/>
      <point x="391" y="53" type="line" smooth="yes"/>
      <point x="356" y="53"/>
      <point x="305" y="61"/>
      <point x="305" y="118" type="curve" smooth="yes"/>
      <point x="305" y="536" type="line"/>
      <point x="21" y="536" type="line"/>
      <point x="21" y="483" type="line"/>
      <point x="35" y="483" type="line" smooth="yes"/>
      <point x="69" y="483"/>
      <point x="121" y="475"/>
      <point x="121" y="422" type="curve" smooth="yes"/>
      <point x="121" y="118" type="line" smooth="yes"/>
      <point x="121" y="61"/>
      <point x="70" y="53"/>
      <point x="35" y="53" type="curve" smooth="yes"/>
      <point x="21" y="53" type="line"/>
    </contour>
    <contour>
      <point x="206" y="626" type="curve" smooth="yes"/>
      <point x="263" y="626"/>
      <point x="311" y="649"/>
      <point x="311" y="698" type="curve" smooth="yes"/>
      <point x="311" y="749"/>
      <point x="263" y="770"/>
      <point x="206" y="770" type="curve" smooth="yes"/>
      <point x="149" y="770"/>
      <point x="105" y="749"/>
      <point x="105" y="698" type="curve"/>
      <point x="105" y="649"/>
      <point x="149" y="626"/>
    </contour>
  </outline>
</glyph>
<glyph name="uni2C6C" format="2">
  <advance width="595"/>
  <unicode hex="2C6C"/>
  <anchor x="298" y="0" name="bottom"/>
  <anchor x="298" y="536" name="top"/>
  <outline>
    <contour>
      <point x="506" y="-206" type="line"/>
      <point x="543" y="-206" type="line"/>
      <point x="543" y="48" type="line"/>
      <point x="175" y="48" type="line"/>
      <point x="548" y="505" type="line"/>
      <point x="548" y="536" type="line"/>
      <point x="81" y="536" type="line"/>
      <point x="70" y="392" type="line"/>
      <point x="116" y="392" type="line"/>
      <point x="123" y="435" type="line" smooth="yes"/>
      <point x="132" y="487"/>
      <point x="152" y="488"/>
      <point x="205" y="488" type="curve" smooth="yes"/>
      <point x="424" y="488" type="line"/>
      <point x="53" y="30" type="line"/>
      <point x="53" y="0" type="line"/>
      <point x="483" y="0" type="line" smooth="yes"/>
      <point x="482" y="0"/>
      <point x="491" y="4"/>
      <point x="495" y="-1" type="curve" smooth="yes"/>
    </contour>
  </outline>
</glyph>
<glyph name="rightanglesubstitutionmarker" format="2">
  <advance width="415"/>
  <unicode hex="2E00"/>
  <outline>
    <contour>
      <point x="61" y="246" type="line"/>
      <point x="147" y="246" type="line"/>
      <point x="147" y="644" type="line"/>
      <point x="352" y="644" type="line"/>
      <point x="352" y="714" type="line"/>
      <point x="61" y="714" type="line"/>
    </contour>
  </outline>
</glyph>
<glyph name="dottedtranspositionmarker" format="2">
  <advance width="606"/>
  <unicode hex="2E08"/>
  <outline>
    <contour>
      <point x="237" y="212" type="curve" smooth="yes"/>
      <point x="335" y="212"/>
      <point x="425" y="257"/>
      <point x="425" y="348" type="curve" smooth="yes"/>
      <point x="425" y="411"/>
      <point x="391" y="448"/>
      <point x="343" y="490" type="curve" smooth="yes"/>
      <point x="298" y="530"/>
      <point x="266" y="557"/>
      <point x="266" y="602" type="curve" smooth="yes"/>
      <point x="266" y="648"/>
      <point x="305" y="679"/>
      <point x="366" y="679" type="curve" smooth="yes"/>
      <point x="421" y="679"/>
      <point x="460" y="664"/>
      <point x="502" y="645" type="curve"/>
      <point x="539" y="708" type="line"/>
      <point x="490" y="733"/>
      <point x="438" y="749"/>
      <point x="366" y="749" type="curve" smooth="yes"/>
      <point x="266" y="749"/>
      <point x="178" y="697"/>
      <point x="178" y="598" type="curve" smooth="yes"/>
      <point x="178" y="535"/>
      <point x="218" y="495"/>
      <point x="266" y="453" type="curve" smooth="yes"/>
      <point x="305" y="418"/>
      <point x="338" y="386"/>
      <point x="338" y="347" type="curve" smooth="yes"/>
      <point x="338" y="307"/>
      <point x="298" y="282"/>
      <point x="234" y="282" type="curve" smooth="yes"/>
      <point x="180" y="282"/>
      <point x="130" y="296"/>
      <point x="94" y="312" type="curve"/>
      <point x="61" y="246" type="line"/>
      <point x="106" y="225"/>
      <point x="172" y="212"/>
    </contour>
    <contour>
      <point x="478" y="479" type="curve" smooth="yes"/>
      <point x="511" y="479"/>
      <point x="539" y="495"/>
      <point x="539" y="535" type="curve" smooth="yes"/>
      <point x="539" y="572"/>
      <point x="518" y="591"/>
      <point x="478" y="591" type="curve" smooth="yes"/>
      <point x="437" y="591"/>
      <point x="417" y="571"/>
      <point x="417" y="535" type="curve" smooth="yes"/>
      <point x="417" y="495"/>
      <point x="443" y="479"/>
    </contour>
  </outline>
</glyph>
<glyph name="reversedforkedparagraphos" format="2">
  <advance width="1213"/>
  <unicode hex="2E11"/>
  <outline>
    <contour>
      <point x="-6" y="-83" type="line"/>
      <point x="-6" y="-142" type="line"/>
      <point x="871" y="-142" type="line"/>
      <point x="1158" y="-294" type="line"/>
      <point x="1202" y="-243" type="line"/>
      <point x="1006" y="-142" type="line"/>
      <point x="1219" y="-142" type="line"/>
      <point x="1219" y="-83" type="line"/>
    </contour>
  </outline>
</glyph>
<glyph name="rightverticalbarwithquill" format="2">
  <advance width="677"/>
  <unicode hex="2E21"/>
  <outline>
    <contour>
      <point x="314" y="-240" type="line"/>
      <point x="368" y="-240" type="line"/>
      <point x="368" y="760" type="line"/>
      <point x="314" y="760" type="line"/>
      <point x="314" y="283" type="line"/>
      <point x="67" y="283" type="line"/>
      <point x="67" y="238" type="line"/>
      <point x="314" y="238" type="line"/>
    </contour>
  </outline>
</glyph>
<glyph name="brackhalftopright" format="2">
  <advance width="422"/>
  <unicode hex="2E23"/>
  <outline>
    <contour>
      <point x="194" y="315" type="line"/>
      <point x="300" y="315" type="line"/>
      <point x="300" y="760" type="line"/>
      <point x="44" y="760" type="line"/>
      <point x="44" y="722" type="line"/>
      <point x="115" y="722" type="line" smooth="yes"/>
      <point x="160" y="722"/>
      <point x="194" y="717"/>
      <point x="194" y="662" type="curve" smooth="yes"/>
    </contour>
  </outline>
</glyph>
<glyph name="squaredfourdotpunctuation" format="2">
  <advance width="666"/>
  <unicode hex="2E2C"/>
  <outline>
    <contour>
      <point x="528" y="319" type="curve" smooth="yes"/>
      <point x="562" y="319"/>
      <point x="589" y="332"/>
      <point x="589" y="382" type="curve" smooth="yes"/>
      <point x="589" y="431"/>
      <point x="562" y="444"/>
      <point x="528" y="444" type="curve" smooth="yes"/>
      <point x="494" y="444"/>
      <point x="466" y="431"/>
      <point x="466" y="382" type="curve" smooth="yes"/>
      <point x="466" y="332"/>
      <point x="494" y="319"/>
    </contour>
    <contour>
      <point x="140" y="-10" type="curve" smooth="yes"/>
      <point x="173" y="-10"/>
      <point x="201" y="3"/>
      <point x="201" y="53" type="curve" smooth="yes"/>
      <point x="201" y="102"/>
      <point x="173" y="115"/>
      <point x="140" y="115" type="curve" smooth="yes"/>
      <point x="106" y="115"/>
      <point x="78" y="102"/>
      <point x="78" y="53" type="curve" smooth="yes"/>
      <point x="78" y="3"/>
      <point x="106" y="-10"/>
    </contour>
    <contour>
      <point x="528" y="-11" type="curve" smooth="yes"/>
      <point x="562" y="-11"/>
      <point x="589" y="2"/>
      <point x="589" y="52" type="curve" smooth="yes"/>
      <point x="589" y="101"/>
      <point x="562" y="115"/>
      <point x="528" y="115" type="curve" smooth="yes"/>
      <point x="494" y="115"/>
      <point x="466" y="101"/>
      <point x="466" y="52" type="curve" smooth="yes"/>
      <point x="466" y="2"/>
      <point x="494" y="-11"/>
    </contour>
    <contour>
      <point x="138" y="319" type="curve" smooth="yes"/>
      <point x="172" y="319"/>
      <point x="199" y="333"/>
      <point x="199" y="382" type="curve" smooth="yes"/>
      <point x="199" y="432"/>
      <point x="172" y="444"/>
      <point x="138" y="444" type="curve" smooth="yes"/>
      <point x="104" y="444"/>
      <point x="76" y="432"/>
      <point x="76" y="382" type="curve" smooth="yes"/>
      <point x="76" y="333"/>
      <point x="104" y="319"/>
    </contour>
  </outline>
</glyph>
<glyph name="daggerwithleftguard" format="2">
  <advance width="534"/>
  <unicode hex="2E36"/>
  <outline>
    <contour>
      <point x="250" y="-111" type="curve"/>
      <point x="285" y="-111" type="line"/>
      <point x="285" y="248"/>
      <point x="316" y="412"/>
      <point x="318" y="387" type="curve"/>
      <point x="286" y="498" type="line"/>
      <point x="317" y="760" type="line"/>
      <point x="221" y="760" type="line"/>
      <point x="248" y="542" type="line"/>
      <point x="42" y="573" type="line"/>
      <point x="42" y="482" type="line"/>
      <point x="248" y="499" type="line"/>
      <point x="217" y="387" type="line"/>
      <point x="218" y="416"/>
      <point x="250" y="248"/>
    </contour>
  </outline>
</glyph>
<glyph name="uniA640" format="2">
  <advance width="698"/>
  <unicode hex="A640"/>
  <outline>
    <contour>
      <point x="115" y="-196" type="curve"/>
      <point x="115" y="-148"/>
      <point x="140" y="-134"/>
      <point x="176" y="-134" type="curve" smooth="yes"/>
      <point x="251" y="-134"/>
      <point x="374" y="-204"/>
      <point x="499" y="-204" type="curve" smooth="yes"/>
      <point x="609" y="-204"/>
      <point x="684" y="-166"/>
      <point x="684" y="-73" type="curve" smooth="yes"/>
      <point x="684" y="24"/>
      <point x="590" y="44"/>
      <point x="500" y="44" type="curve" smooth="yes"/>
      <point x="168" y="44" type="line"/>
      <point x="629" y="667" type="line"/>
      <point x="629" y="714" type="line"/>
      <point x="70" y="714" type="line"/>
      <point x="64" y="537" type="line"/>
      <point x="117" y="537" type="line"/>
      <point x="123" y="616" type="line" smooth="yes"/>
      <point x="128" y="650"/>
      <point x="139" y="670"/>
      <point x="198" y="670" type="curve" smooth="yes"/>
      <point x="507" y="670" type="line"/>
      <point x="42" y="38" type="line"/>
      <point x="42" y="0" type="line"/>
      <point x="484" y="0" type="line" smooth="yes"/>
      <point x="586" y="0"/>
      <point x="627" y="-29"/>
      <point x="627" y="-71" type="curve" smooth="yes"/>
      <point x="627" y="-116"/>
      <point x="599" y="-154"/>
      <point x="499" y="-154" type="curve" smooth="yes"/>
      <point x="371" y="-154"/>
      <point x="260" y="-75"/>
      <point x="154" y="-75" type="curve" smooth="yes"/>
      <point x="104" y="-75"/>
      <point x="47" y="-94"/>
      <point x="47" y="-148" type="curve" smooth="yes"/>
      <point x="47" y="-184"/>
      <point x="74" y="-196"/>
    </contour>
  </outline>
</glyph>
<glyph name="uniA64B" format="2">
  <advance width="681"/>
  <unicode hex="A64B"/>
  <outline>
    <contour>
      <point x="308" y="-240" type="curve" smooth="yes"/>
      <point x="403" y="-240"/>
      <point x="440" y="-181"/>
      <point x="440" y="-122" type="curve" smooth="yes"/>
      <point x="440" y="-58"/>
      <point x="404" y="15"/>
      <point x="361" y="100" type="curve"/>
      <point x="404" y="170" type="line" smooth="yes"/>
      <point x="495" y="305"/>
      <point x="614" y="455"/>
      <point x="614" y="617" type="curve" smooth="yes"/>
      <point x="614" y="680"/>
      <point x="572" y="722"/>
      <point x="517" y="722" type="curve" smooth="yes"/>
      <point x="477" y="722"/>
      <point x="449" y="704"/>
      <point x="443" y="668" type="curve"/>
      <point x="504" y="668"/>
      <point x="543" y="643"/>
      <point x="543" y="594" type="curve" smooth="yes"/>
      <point x="543" y="442"/>
      <point x="428" y="298"/>
      <point x="335" y="149" type="curve"/>
      <point x="269" y="248" type="line" smooth="yes"/>
      <point x="218" y="332"/>
      <point x="150" y="438"/>
      <point x="150" y="492" type="curve" smooth="yes"/>
      <point x="150" y="521"/>
      <point x="167" y="534"/>
      <point x="202" y="550" type="curve" smooth="yes"/>
      <point x="215" y="556" type="line"/>
      <point x="198" y="593" type="line"/>
      <point x="80" y="563"/>
      <point x="53" y="525"/>
      <point x="53" y="481" type="curve" smooth="yes"/>
      <point x="53" y="426"/>
      <point x="120" y="324"/>
      <point x="166" y="252" type="curve" smooth="yes"/>
      <point x="273" y="59" type="line"/>
      <point x="228" y="-14"/>
      <point x="191" y="-80"/>
      <point x="191" y="-136" type="curve" smooth="yes"/>
      <point x="191" y="-199"/>
      <point x="228" y="-240"/>
    </contour>
    <contour>
      <point x="296" y="-192" type="curve" smooth="yes"/>
      <point x="256" y="-192"/>
      <point x="243" y="-166"/>
      <point x="243" y="-138" type="curve" smooth="yes"/>
      <point x="243" y="-91"/>
      <point x="268" y="-38"/>
      <point x="302" y="12" type="curve"/>
      <point x="328" y="-38"/>
      <point x="350" y="-93"/>
      <point x="350" y="-140" type="curve" smooth="yes"/>
      <point x="350" y="-156"/>
      <point x="335" y="-192"/>
    </contour>
  </outline>
</glyph>
